G04 #@! TF.GenerationSoftware,KiCad,Pcbnew,5.1.0*
G04 #@! TF.CreationDate,2019-03-28T19:40:46+01:00*
G04 #@! TF.ProjectId,hc05-bb,68633035-2d62-4622-9e6b-696361645f70,rev?*
G04 #@! TF.SameCoordinates,Original*
G04 #@! TF.FileFunction,Soldermask,Top*
G04 #@! TF.FilePolarity,Negative*
%FSLAX46Y46*%
G04 Gerber Fmt 4.6, Leading zero omitted, Abs format (unit mm)*
G04 Created by KiCad (PCBNEW 5.1.0) date 2019-03-28 19:40:46*
%MOMM*%
%LPD*%
G04 APERTURE LIST*
%ADD10C,0.100000*%
G04 APERTURE END LIST*
D10*
G36*
X53958443Y-105785519D02*
G01*
X54024627Y-105792037D01*
X54194466Y-105843557D01*
X54350991Y-105927222D01*
X54386729Y-105956552D01*
X54488186Y-106039814D01*
X54571448Y-106141271D01*
X54600778Y-106177009D01*
X54684443Y-106333534D01*
X54735963Y-106503373D01*
X54753359Y-106680000D01*
X54735963Y-106856627D01*
X54684443Y-107026466D01*
X54600778Y-107182991D01*
X54571448Y-107218729D01*
X54488186Y-107320186D01*
X54386729Y-107403448D01*
X54350991Y-107432778D01*
X54194466Y-107516443D01*
X54024627Y-107567963D01*
X53958443Y-107574481D01*
X53892260Y-107581000D01*
X53803740Y-107581000D01*
X53737557Y-107574481D01*
X53671373Y-107567963D01*
X53501534Y-107516443D01*
X53345009Y-107432778D01*
X53309271Y-107403448D01*
X53207814Y-107320186D01*
X53124552Y-107218729D01*
X53095222Y-107182991D01*
X53011557Y-107026466D01*
X52960037Y-106856627D01*
X52942641Y-106680000D01*
X52960037Y-106503373D01*
X53011557Y-106333534D01*
X53095222Y-106177009D01*
X53124552Y-106141271D01*
X53207814Y-106039814D01*
X53309271Y-105956552D01*
X53345009Y-105927222D01*
X53501534Y-105843557D01*
X53671373Y-105792037D01*
X53737557Y-105785519D01*
X53803740Y-105779000D01*
X53892260Y-105779000D01*
X53958443Y-105785519D01*
X53958443Y-105785519D01*
G37*
G36*
X22462443Y-105785519D02*
G01*
X22528627Y-105792037D01*
X22698466Y-105843557D01*
X22854991Y-105927222D01*
X22890729Y-105956552D01*
X22992186Y-106039814D01*
X23075448Y-106141271D01*
X23104778Y-106177009D01*
X23188443Y-106333534D01*
X23239963Y-106503373D01*
X23257359Y-106680000D01*
X23239963Y-106856627D01*
X23188443Y-107026466D01*
X23104778Y-107182991D01*
X23075448Y-107218729D01*
X22992186Y-107320186D01*
X22890729Y-107403448D01*
X22854991Y-107432778D01*
X22698466Y-107516443D01*
X22528627Y-107567963D01*
X22462443Y-107574481D01*
X22396260Y-107581000D01*
X22307740Y-107581000D01*
X22241557Y-107574481D01*
X22175373Y-107567963D01*
X22005534Y-107516443D01*
X21849009Y-107432778D01*
X21813271Y-107403448D01*
X21711814Y-107320186D01*
X21628552Y-107218729D01*
X21599222Y-107182991D01*
X21515557Y-107026466D01*
X21464037Y-106856627D01*
X21446641Y-106680000D01*
X21464037Y-106503373D01*
X21515557Y-106333534D01*
X21599222Y-106177009D01*
X21628552Y-106141271D01*
X21711814Y-106039814D01*
X21813271Y-105956552D01*
X21849009Y-105927222D01*
X22005534Y-105843557D01*
X22175373Y-105792037D01*
X22241557Y-105785519D01*
X22307740Y-105779000D01*
X22396260Y-105779000D01*
X22462443Y-105785519D01*
X22462443Y-105785519D01*
G37*
G36*
X53958443Y-103245519D02*
G01*
X54024627Y-103252037D01*
X54194466Y-103303557D01*
X54350991Y-103387222D01*
X54386729Y-103416552D01*
X54488186Y-103499814D01*
X54571448Y-103601271D01*
X54600778Y-103637009D01*
X54684443Y-103793534D01*
X54735963Y-103963373D01*
X54753359Y-104140000D01*
X54735963Y-104316627D01*
X54684443Y-104486466D01*
X54600778Y-104642991D01*
X54571448Y-104678729D01*
X54488186Y-104780186D01*
X54386729Y-104863448D01*
X54350991Y-104892778D01*
X54194466Y-104976443D01*
X54024627Y-105027963D01*
X53958442Y-105034482D01*
X53892260Y-105041000D01*
X53803740Y-105041000D01*
X53737557Y-105034481D01*
X53671373Y-105027963D01*
X53501534Y-104976443D01*
X53345009Y-104892778D01*
X53309271Y-104863448D01*
X53207814Y-104780186D01*
X53124552Y-104678729D01*
X53095222Y-104642991D01*
X53011557Y-104486466D01*
X52960037Y-104316627D01*
X52942641Y-104140000D01*
X52960037Y-103963373D01*
X53011557Y-103793534D01*
X53095222Y-103637009D01*
X53124552Y-103601271D01*
X53207814Y-103499814D01*
X53309271Y-103416552D01*
X53345009Y-103387222D01*
X53501534Y-103303557D01*
X53671373Y-103252037D01*
X53737558Y-103245518D01*
X53803740Y-103239000D01*
X53892260Y-103239000D01*
X53958443Y-103245519D01*
X53958443Y-103245519D01*
G37*
G36*
X22462443Y-103245519D02*
G01*
X22528627Y-103252037D01*
X22698466Y-103303557D01*
X22854991Y-103387222D01*
X22890729Y-103416552D01*
X22992186Y-103499814D01*
X23075448Y-103601271D01*
X23104778Y-103637009D01*
X23188443Y-103793534D01*
X23239963Y-103963373D01*
X23257359Y-104140000D01*
X23239963Y-104316627D01*
X23188443Y-104486466D01*
X23104778Y-104642991D01*
X23075448Y-104678729D01*
X22992186Y-104780186D01*
X22890729Y-104863448D01*
X22854991Y-104892778D01*
X22698466Y-104976443D01*
X22528627Y-105027963D01*
X22462442Y-105034482D01*
X22396260Y-105041000D01*
X22307740Y-105041000D01*
X22241557Y-105034481D01*
X22175373Y-105027963D01*
X22005534Y-104976443D01*
X21849009Y-104892778D01*
X21813271Y-104863448D01*
X21711814Y-104780186D01*
X21628552Y-104678729D01*
X21599222Y-104642991D01*
X21515557Y-104486466D01*
X21464037Y-104316627D01*
X21446641Y-104140000D01*
X21464037Y-103963373D01*
X21515557Y-103793534D01*
X21599222Y-103637009D01*
X21628552Y-103601271D01*
X21711814Y-103499814D01*
X21813271Y-103416552D01*
X21849009Y-103387222D01*
X22005534Y-103303557D01*
X22175373Y-103252037D01*
X22241557Y-103245519D01*
X22307740Y-103239000D01*
X22396260Y-103239000D01*
X22462443Y-103245519D01*
X22462443Y-103245519D01*
G37*
G36*
X53958443Y-100705519D02*
G01*
X54024627Y-100712037D01*
X54194466Y-100763557D01*
X54350991Y-100847222D01*
X54386729Y-100876552D01*
X54488186Y-100959814D01*
X54571448Y-101061271D01*
X54600778Y-101097009D01*
X54684443Y-101253534D01*
X54735963Y-101423373D01*
X54753359Y-101600000D01*
X54735963Y-101776627D01*
X54684443Y-101946466D01*
X54600778Y-102102991D01*
X54571448Y-102138729D01*
X54488186Y-102240186D01*
X54386729Y-102323448D01*
X54350991Y-102352778D01*
X54194466Y-102436443D01*
X54024627Y-102487963D01*
X53958442Y-102494482D01*
X53892260Y-102501000D01*
X53803740Y-102501000D01*
X53737558Y-102494482D01*
X53671373Y-102487963D01*
X53501534Y-102436443D01*
X53345009Y-102352778D01*
X53309271Y-102323448D01*
X53207814Y-102240186D01*
X53124552Y-102138729D01*
X53095222Y-102102991D01*
X53011557Y-101946466D01*
X52960037Y-101776627D01*
X52942641Y-101600000D01*
X52960037Y-101423373D01*
X53011557Y-101253534D01*
X53095222Y-101097009D01*
X53124552Y-101061271D01*
X53207814Y-100959814D01*
X53309271Y-100876552D01*
X53345009Y-100847222D01*
X53501534Y-100763557D01*
X53671373Y-100712037D01*
X53737557Y-100705519D01*
X53803740Y-100699000D01*
X53892260Y-100699000D01*
X53958443Y-100705519D01*
X53958443Y-100705519D01*
G37*
G36*
X22462443Y-100705519D02*
G01*
X22528627Y-100712037D01*
X22698466Y-100763557D01*
X22854991Y-100847222D01*
X22890729Y-100876552D01*
X22992186Y-100959814D01*
X23075448Y-101061271D01*
X23104778Y-101097009D01*
X23188443Y-101253534D01*
X23239963Y-101423373D01*
X23257359Y-101600000D01*
X23239963Y-101776627D01*
X23188443Y-101946466D01*
X23104778Y-102102991D01*
X23075448Y-102138729D01*
X22992186Y-102240186D01*
X22890729Y-102323448D01*
X22854991Y-102352778D01*
X22698466Y-102436443D01*
X22528627Y-102487963D01*
X22462442Y-102494482D01*
X22396260Y-102501000D01*
X22307740Y-102501000D01*
X22241558Y-102494482D01*
X22175373Y-102487963D01*
X22005534Y-102436443D01*
X21849009Y-102352778D01*
X21813271Y-102323448D01*
X21711814Y-102240186D01*
X21628552Y-102138729D01*
X21599222Y-102102991D01*
X21515557Y-101946466D01*
X21464037Y-101776627D01*
X21446641Y-101600000D01*
X21464037Y-101423373D01*
X21515557Y-101253534D01*
X21599222Y-101097009D01*
X21628552Y-101061271D01*
X21711814Y-100959814D01*
X21813271Y-100876552D01*
X21849009Y-100847222D01*
X22005534Y-100763557D01*
X22175373Y-100712037D01*
X22241557Y-100705519D01*
X22307740Y-100699000D01*
X22396260Y-100699000D01*
X22462443Y-100705519D01*
X22462443Y-100705519D01*
G37*
G36*
X22462443Y-98165519D02*
G01*
X22528627Y-98172037D01*
X22698466Y-98223557D01*
X22854991Y-98307222D01*
X22890729Y-98336552D01*
X22992186Y-98419814D01*
X23075448Y-98521271D01*
X23104778Y-98557009D01*
X23188443Y-98713534D01*
X23239963Y-98883373D01*
X23257359Y-99060000D01*
X23239963Y-99236627D01*
X23188443Y-99406466D01*
X23104778Y-99562991D01*
X23075448Y-99598729D01*
X22992186Y-99700186D01*
X22890729Y-99783448D01*
X22854991Y-99812778D01*
X22698466Y-99896443D01*
X22528627Y-99947963D01*
X22462443Y-99954481D01*
X22396260Y-99961000D01*
X22307740Y-99961000D01*
X22241557Y-99954481D01*
X22175373Y-99947963D01*
X22005534Y-99896443D01*
X21849009Y-99812778D01*
X21813271Y-99783448D01*
X21711814Y-99700186D01*
X21628552Y-99598729D01*
X21599222Y-99562991D01*
X21515557Y-99406466D01*
X21464037Y-99236627D01*
X21446641Y-99060000D01*
X21464037Y-98883373D01*
X21515557Y-98713534D01*
X21599222Y-98557009D01*
X21628552Y-98521271D01*
X21711814Y-98419814D01*
X21813271Y-98336552D01*
X21849009Y-98307222D01*
X22005534Y-98223557D01*
X22175373Y-98172037D01*
X22241557Y-98165519D01*
X22307740Y-98159000D01*
X22396260Y-98159000D01*
X22462443Y-98165519D01*
X22462443Y-98165519D01*
G37*
G36*
X53958443Y-98165519D02*
G01*
X54024627Y-98172037D01*
X54194466Y-98223557D01*
X54350991Y-98307222D01*
X54386729Y-98336552D01*
X54488186Y-98419814D01*
X54571448Y-98521271D01*
X54600778Y-98557009D01*
X54684443Y-98713534D01*
X54735963Y-98883373D01*
X54753359Y-99060000D01*
X54735963Y-99236627D01*
X54684443Y-99406466D01*
X54600778Y-99562991D01*
X54571448Y-99598729D01*
X54488186Y-99700186D01*
X54386729Y-99783448D01*
X54350991Y-99812778D01*
X54194466Y-99896443D01*
X54024627Y-99947963D01*
X53958443Y-99954481D01*
X53892260Y-99961000D01*
X53803740Y-99961000D01*
X53737557Y-99954481D01*
X53671373Y-99947963D01*
X53501534Y-99896443D01*
X53345009Y-99812778D01*
X53309271Y-99783448D01*
X53207814Y-99700186D01*
X53124552Y-99598729D01*
X53095222Y-99562991D01*
X53011557Y-99406466D01*
X52960037Y-99236627D01*
X52942641Y-99060000D01*
X52960037Y-98883373D01*
X53011557Y-98713534D01*
X53095222Y-98557009D01*
X53124552Y-98521271D01*
X53207814Y-98419814D01*
X53309271Y-98336552D01*
X53345009Y-98307222D01*
X53501534Y-98223557D01*
X53671373Y-98172037D01*
X53737557Y-98165519D01*
X53803740Y-98159000D01*
X53892260Y-98159000D01*
X53958443Y-98165519D01*
X53958443Y-98165519D01*
G37*
G36*
X22462442Y-95625518D02*
G01*
X22528627Y-95632037D01*
X22698466Y-95683557D01*
X22854991Y-95767222D01*
X22890729Y-95796552D01*
X22992186Y-95879814D01*
X23075448Y-95981271D01*
X23104778Y-96017009D01*
X23188443Y-96173534D01*
X23239963Y-96343373D01*
X23257359Y-96520000D01*
X23239963Y-96696627D01*
X23188443Y-96866466D01*
X23104778Y-97022991D01*
X23075448Y-97058729D01*
X22992186Y-97160186D01*
X22890729Y-97243448D01*
X22854991Y-97272778D01*
X22698466Y-97356443D01*
X22528627Y-97407963D01*
X22462442Y-97414482D01*
X22396260Y-97421000D01*
X22307740Y-97421000D01*
X22241558Y-97414482D01*
X22175373Y-97407963D01*
X22005534Y-97356443D01*
X21849009Y-97272778D01*
X21813271Y-97243448D01*
X21711814Y-97160186D01*
X21628552Y-97058729D01*
X21599222Y-97022991D01*
X21515557Y-96866466D01*
X21464037Y-96696627D01*
X21446641Y-96520000D01*
X21464037Y-96343373D01*
X21515557Y-96173534D01*
X21599222Y-96017009D01*
X21628552Y-95981271D01*
X21711814Y-95879814D01*
X21813271Y-95796552D01*
X21849009Y-95767222D01*
X22005534Y-95683557D01*
X22175373Y-95632037D01*
X22241558Y-95625518D01*
X22307740Y-95619000D01*
X22396260Y-95619000D01*
X22462442Y-95625518D01*
X22462442Y-95625518D01*
G37*
G36*
X53958442Y-95625518D02*
G01*
X54024627Y-95632037D01*
X54194466Y-95683557D01*
X54350991Y-95767222D01*
X54386729Y-95796552D01*
X54488186Y-95879814D01*
X54571448Y-95981271D01*
X54600778Y-96017009D01*
X54684443Y-96173534D01*
X54735963Y-96343373D01*
X54753359Y-96520000D01*
X54735963Y-96696627D01*
X54684443Y-96866466D01*
X54600778Y-97022991D01*
X54571448Y-97058729D01*
X54488186Y-97160186D01*
X54386729Y-97243448D01*
X54350991Y-97272778D01*
X54194466Y-97356443D01*
X54024627Y-97407963D01*
X53958442Y-97414482D01*
X53892260Y-97421000D01*
X53803740Y-97421000D01*
X53737558Y-97414482D01*
X53671373Y-97407963D01*
X53501534Y-97356443D01*
X53345009Y-97272778D01*
X53309271Y-97243448D01*
X53207814Y-97160186D01*
X53124552Y-97058729D01*
X53095222Y-97022991D01*
X53011557Y-96866466D01*
X52960037Y-96696627D01*
X52942641Y-96520000D01*
X52960037Y-96343373D01*
X53011557Y-96173534D01*
X53095222Y-96017009D01*
X53124552Y-95981271D01*
X53207814Y-95879814D01*
X53309271Y-95796552D01*
X53345009Y-95767222D01*
X53501534Y-95683557D01*
X53671373Y-95632037D01*
X53737558Y-95625518D01*
X53803740Y-95619000D01*
X53892260Y-95619000D01*
X53958442Y-95625518D01*
X53958442Y-95625518D01*
G37*
G36*
X22462443Y-93085519D02*
G01*
X22528627Y-93092037D01*
X22698466Y-93143557D01*
X22854991Y-93227222D01*
X22890729Y-93256552D01*
X22992186Y-93339814D01*
X23075448Y-93441271D01*
X23104778Y-93477009D01*
X23188443Y-93633534D01*
X23239963Y-93803373D01*
X23257359Y-93980000D01*
X23239963Y-94156627D01*
X23188443Y-94326466D01*
X23104778Y-94482991D01*
X23075448Y-94518729D01*
X22992186Y-94620186D01*
X22890729Y-94703448D01*
X22854991Y-94732778D01*
X22698466Y-94816443D01*
X22528627Y-94867963D01*
X22462443Y-94874481D01*
X22396260Y-94881000D01*
X22307740Y-94881000D01*
X22241557Y-94874481D01*
X22175373Y-94867963D01*
X22005534Y-94816443D01*
X21849009Y-94732778D01*
X21813271Y-94703448D01*
X21711814Y-94620186D01*
X21628552Y-94518729D01*
X21599222Y-94482991D01*
X21515557Y-94326466D01*
X21464037Y-94156627D01*
X21446641Y-93980000D01*
X21464037Y-93803373D01*
X21515557Y-93633534D01*
X21599222Y-93477009D01*
X21628552Y-93441271D01*
X21711814Y-93339814D01*
X21813271Y-93256552D01*
X21849009Y-93227222D01*
X22005534Y-93143557D01*
X22175373Y-93092037D01*
X22241557Y-93085519D01*
X22307740Y-93079000D01*
X22396260Y-93079000D01*
X22462443Y-93085519D01*
X22462443Y-93085519D01*
G37*
G36*
X53958443Y-93085519D02*
G01*
X54024627Y-93092037D01*
X54194466Y-93143557D01*
X54350991Y-93227222D01*
X54386729Y-93256552D01*
X54488186Y-93339814D01*
X54571448Y-93441271D01*
X54600778Y-93477009D01*
X54684443Y-93633534D01*
X54735963Y-93803373D01*
X54753359Y-93980000D01*
X54735963Y-94156627D01*
X54684443Y-94326466D01*
X54600778Y-94482991D01*
X54571448Y-94518729D01*
X54488186Y-94620186D01*
X54386729Y-94703448D01*
X54350991Y-94732778D01*
X54194466Y-94816443D01*
X54024627Y-94867963D01*
X53958443Y-94874481D01*
X53892260Y-94881000D01*
X53803740Y-94881000D01*
X53737557Y-94874481D01*
X53671373Y-94867963D01*
X53501534Y-94816443D01*
X53345009Y-94732778D01*
X53309271Y-94703448D01*
X53207814Y-94620186D01*
X53124552Y-94518729D01*
X53095222Y-94482991D01*
X53011557Y-94326466D01*
X52960037Y-94156627D01*
X52942641Y-93980000D01*
X52960037Y-93803373D01*
X53011557Y-93633534D01*
X53095222Y-93477009D01*
X53124552Y-93441271D01*
X53207814Y-93339814D01*
X53309271Y-93256552D01*
X53345009Y-93227222D01*
X53501534Y-93143557D01*
X53671373Y-93092037D01*
X53737557Y-93085519D01*
X53803740Y-93079000D01*
X53892260Y-93079000D01*
X53958443Y-93085519D01*
X53958443Y-93085519D01*
G37*
G36*
X53958443Y-90545519D02*
G01*
X54024627Y-90552037D01*
X54194466Y-90603557D01*
X54350991Y-90687222D01*
X54386729Y-90716552D01*
X54488186Y-90799814D01*
X54571448Y-90901271D01*
X54600778Y-90937009D01*
X54684443Y-91093534D01*
X54735963Y-91263373D01*
X54753359Y-91440000D01*
X54735963Y-91616627D01*
X54684443Y-91786466D01*
X54600778Y-91942991D01*
X54571448Y-91978729D01*
X54488186Y-92080186D01*
X54386729Y-92163448D01*
X54350991Y-92192778D01*
X54194466Y-92276443D01*
X54024627Y-92327963D01*
X53958443Y-92334481D01*
X53892260Y-92341000D01*
X53803740Y-92341000D01*
X53737557Y-92334481D01*
X53671373Y-92327963D01*
X53501534Y-92276443D01*
X53345009Y-92192778D01*
X53309271Y-92163448D01*
X53207814Y-92080186D01*
X53124552Y-91978729D01*
X53095222Y-91942991D01*
X53011557Y-91786466D01*
X52960037Y-91616627D01*
X52942641Y-91440000D01*
X52960037Y-91263373D01*
X53011557Y-91093534D01*
X53095222Y-90937009D01*
X53124552Y-90901271D01*
X53207814Y-90799814D01*
X53309271Y-90716552D01*
X53345009Y-90687222D01*
X53501534Y-90603557D01*
X53671373Y-90552037D01*
X53737557Y-90545519D01*
X53803740Y-90539000D01*
X53892260Y-90539000D01*
X53958443Y-90545519D01*
X53958443Y-90545519D01*
G37*
G36*
X22462443Y-90545519D02*
G01*
X22528627Y-90552037D01*
X22698466Y-90603557D01*
X22854991Y-90687222D01*
X22890729Y-90716552D01*
X22992186Y-90799814D01*
X23075448Y-90901271D01*
X23104778Y-90937009D01*
X23188443Y-91093534D01*
X23239963Y-91263373D01*
X23257359Y-91440000D01*
X23239963Y-91616627D01*
X23188443Y-91786466D01*
X23104778Y-91942991D01*
X23075448Y-91978729D01*
X22992186Y-92080186D01*
X22890729Y-92163448D01*
X22854991Y-92192778D01*
X22698466Y-92276443D01*
X22528627Y-92327963D01*
X22462443Y-92334481D01*
X22396260Y-92341000D01*
X22307740Y-92341000D01*
X22241557Y-92334481D01*
X22175373Y-92327963D01*
X22005534Y-92276443D01*
X21849009Y-92192778D01*
X21813271Y-92163448D01*
X21711814Y-92080186D01*
X21628552Y-91978729D01*
X21599222Y-91942991D01*
X21515557Y-91786466D01*
X21464037Y-91616627D01*
X21446641Y-91440000D01*
X21464037Y-91263373D01*
X21515557Y-91093534D01*
X21599222Y-90937009D01*
X21628552Y-90901271D01*
X21711814Y-90799814D01*
X21813271Y-90716552D01*
X21849009Y-90687222D01*
X22005534Y-90603557D01*
X22175373Y-90552037D01*
X22241557Y-90545519D01*
X22307740Y-90539000D01*
X22396260Y-90539000D01*
X22462443Y-90545519D01*
X22462443Y-90545519D01*
G37*
G36*
X39451000Y-91999000D02*
G01*
X38249000Y-91999000D01*
X38249000Y-90373000D01*
X39451000Y-90373000D01*
X39451000Y-91999000D01*
X39451000Y-91999000D01*
G37*
G36*
X43951000Y-91999000D02*
G01*
X42749000Y-91999000D01*
X42749000Y-90373000D01*
X43951000Y-90373000D01*
X43951000Y-91999000D01*
X43951000Y-91999000D01*
G37*
G36*
X42451000Y-91999000D02*
G01*
X41249000Y-91999000D01*
X41249000Y-90373000D01*
X42451000Y-90373000D01*
X42451000Y-91999000D01*
X42451000Y-91999000D01*
G37*
G36*
X40951000Y-91999000D02*
G01*
X39749000Y-91999000D01*
X39749000Y-90373000D01*
X40951000Y-90373000D01*
X40951000Y-91999000D01*
X40951000Y-91999000D01*
G37*
G36*
X36451000Y-91999000D02*
G01*
X35249000Y-91999000D01*
X35249000Y-90373000D01*
X36451000Y-90373000D01*
X36451000Y-91999000D01*
X36451000Y-91999000D01*
G37*
G36*
X34951000Y-91999000D02*
G01*
X33749000Y-91999000D01*
X33749000Y-90373000D01*
X34951000Y-90373000D01*
X34951000Y-91999000D01*
X34951000Y-91999000D01*
G37*
G36*
X33451000Y-91999000D02*
G01*
X32249000Y-91999000D01*
X32249000Y-90373000D01*
X33451000Y-90373000D01*
X33451000Y-91999000D01*
X33451000Y-91999000D01*
G37*
G36*
X37951000Y-91999000D02*
G01*
X36749000Y-91999000D01*
X36749000Y-90373000D01*
X37951000Y-90373000D01*
X37951000Y-91999000D01*
X37951000Y-91999000D01*
G37*
G36*
X22462443Y-88005519D02*
G01*
X22528627Y-88012037D01*
X22698466Y-88063557D01*
X22854991Y-88147222D01*
X22890729Y-88176552D01*
X22992186Y-88259814D01*
X23075448Y-88361271D01*
X23104778Y-88397009D01*
X23188443Y-88553534D01*
X23239963Y-88723373D01*
X23257359Y-88900000D01*
X23239963Y-89076627D01*
X23188443Y-89246466D01*
X23104778Y-89402991D01*
X23075448Y-89438729D01*
X22992186Y-89540186D01*
X22890729Y-89623448D01*
X22854991Y-89652778D01*
X22698466Y-89736443D01*
X22528627Y-89787963D01*
X22462443Y-89794481D01*
X22396260Y-89801000D01*
X22307740Y-89801000D01*
X22241557Y-89794481D01*
X22175373Y-89787963D01*
X22005534Y-89736443D01*
X21849009Y-89652778D01*
X21813271Y-89623448D01*
X21711814Y-89540186D01*
X21628552Y-89438729D01*
X21599222Y-89402991D01*
X21515557Y-89246466D01*
X21464037Y-89076627D01*
X21446641Y-88900000D01*
X21464037Y-88723373D01*
X21515557Y-88553534D01*
X21599222Y-88397009D01*
X21628552Y-88361271D01*
X21711814Y-88259814D01*
X21813271Y-88176552D01*
X21849009Y-88147222D01*
X22005534Y-88063557D01*
X22175373Y-88012037D01*
X22241557Y-88005519D01*
X22307740Y-87999000D01*
X22396260Y-87999000D01*
X22462443Y-88005519D01*
X22462443Y-88005519D01*
G37*
G36*
X53958443Y-88005519D02*
G01*
X54024627Y-88012037D01*
X54194466Y-88063557D01*
X54350991Y-88147222D01*
X54386729Y-88176552D01*
X54488186Y-88259814D01*
X54571448Y-88361271D01*
X54600778Y-88397009D01*
X54684443Y-88553534D01*
X54735963Y-88723373D01*
X54753359Y-88900000D01*
X54735963Y-89076627D01*
X54684443Y-89246466D01*
X54600778Y-89402991D01*
X54571448Y-89438729D01*
X54488186Y-89540186D01*
X54386729Y-89623448D01*
X54350991Y-89652778D01*
X54194466Y-89736443D01*
X54024627Y-89787963D01*
X53958443Y-89794481D01*
X53892260Y-89801000D01*
X53803740Y-89801000D01*
X53737557Y-89794481D01*
X53671373Y-89787963D01*
X53501534Y-89736443D01*
X53345009Y-89652778D01*
X53309271Y-89623448D01*
X53207814Y-89540186D01*
X53124552Y-89438729D01*
X53095222Y-89402991D01*
X53011557Y-89246466D01*
X52960037Y-89076627D01*
X52942641Y-88900000D01*
X52960037Y-88723373D01*
X53011557Y-88553534D01*
X53095222Y-88397009D01*
X53124552Y-88361271D01*
X53207814Y-88259814D01*
X53309271Y-88176552D01*
X53345009Y-88147222D01*
X53501534Y-88063557D01*
X53671373Y-88012037D01*
X53737557Y-88005519D01*
X53803740Y-87999000D01*
X53892260Y-87999000D01*
X53958443Y-88005519D01*
X53958443Y-88005519D01*
G37*
G36*
X32182000Y-89721000D02*
G01*
X30556000Y-89721000D01*
X30556000Y-88519000D01*
X32182000Y-88519000D01*
X32182000Y-89721000D01*
X32182000Y-89721000D01*
G37*
G36*
X45644000Y-89721000D02*
G01*
X44018000Y-89721000D01*
X44018000Y-88519000D01*
X45644000Y-88519000D01*
X45644000Y-89721000D01*
X45644000Y-89721000D01*
G37*
G36*
X45644000Y-88221000D02*
G01*
X44018000Y-88221000D01*
X44018000Y-87019000D01*
X45644000Y-87019000D01*
X45644000Y-88221000D01*
X45644000Y-88221000D01*
G37*
G36*
X32182000Y-88221000D02*
G01*
X30556000Y-88221000D01*
X30556000Y-87019000D01*
X32182000Y-87019000D01*
X32182000Y-88221000D01*
X32182000Y-88221000D01*
G37*
G36*
X53958442Y-85465518D02*
G01*
X54024627Y-85472037D01*
X54194466Y-85523557D01*
X54350991Y-85607222D01*
X54386729Y-85636552D01*
X54488186Y-85719814D01*
X54571448Y-85821271D01*
X54600778Y-85857009D01*
X54684443Y-86013534D01*
X54735963Y-86183373D01*
X54753359Y-86360000D01*
X54735963Y-86536627D01*
X54684443Y-86706466D01*
X54600778Y-86862991D01*
X54571448Y-86898729D01*
X54488186Y-87000186D01*
X54386729Y-87083448D01*
X54350991Y-87112778D01*
X54194466Y-87196443D01*
X54024627Y-87247963D01*
X53958442Y-87254482D01*
X53892260Y-87261000D01*
X53803740Y-87261000D01*
X53737558Y-87254482D01*
X53671373Y-87247963D01*
X53501534Y-87196443D01*
X53345009Y-87112778D01*
X53309271Y-87083448D01*
X53207814Y-87000186D01*
X53124552Y-86898729D01*
X53095222Y-86862991D01*
X53011557Y-86706466D01*
X52960037Y-86536627D01*
X52942641Y-86360000D01*
X52960037Y-86183373D01*
X53011557Y-86013534D01*
X53095222Y-85857009D01*
X53124552Y-85821271D01*
X53207814Y-85719814D01*
X53309271Y-85636552D01*
X53345009Y-85607222D01*
X53501534Y-85523557D01*
X53671373Y-85472037D01*
X53737558Y-85465518D01*
X53803740Y-85459000D01*
X53892260Y-85459000D01*
X53958442Y-85465518D01*
X53958442Y-85465518D01*
G37*
G36*
X22462442Y-85465518D02*
G01*
X22528627Y-85472037D01*
X22698466Y-85523557D01*
X22854991Y-85607222D01*
X22890729Y-85636552D01*
X22992186Y-85719814D01*
X23075448Y-85821271D01*
X23104778Y-85857009D01*
X23188443Y-86013534D01*
X23239963Y-86183373D01*
X23257359Y-86360000D01*
X23239963Y-86536627D01*
X23188443Y-86706466D01*
X23104778Y-86862991D01*
X23075448Y-86898729D01*
X22992186Y-87000186D01*
X22890729Y-87083448D01*
X22854991Y-87112778D01*
X22698466Y-87196443D01*
X22528627Y-87247963D01*
X22462442Y-87254482D01*
X22396260Y-87261000D01*
X22307740Y-87261000D01*
X22241558Y-87254482D01*
X22175373Y-87247963D01*
X22005534Y-87196443D01*
X21849009Y-87112778D01*
X21813271Y-87083448D01*
X21711814Y-87000186D01*
X21628552Y-86898729D01*
X21599222Y-86862991D01*
X21515557Y-86706466D01*
X21464037Y-86536627D01*
X21446641Y-86360000D01*
X21464037Y-86183373D01*
X21515557Y-86013534D01*
X21599222Y-85857009D01*
X21628552Y-85821271D01*
X21711814Y-85719814D01*
X21813271Y-85636552D01*
X21849009Y-85607222D01*
X22005534Y-85523557D01*
X22175373Y-85472037D01*
X22241558Y-85465518D01*
X22307740Y-85459000D01*
X22396260Y-85459000D01*
X22462442Y-85465518D01*
X22462442Y-85465518D01*
G37*
G36*
X45644000Y-86721000D02*
G01*
X44018000Y-86721000D01*
X44018000Y-85519000D01*
X45644000Y-85519000D01*
X45644000Y-86721000D01*
X45644000Y-86721000D01*
G37*
G36*
X32182000Y-86721000D02*
G01*
X30556000Y-86721000D01*
X30556000Y-85519000D01*
X32182000Y-85519000D01*
X32182000Y-86721000D01*
X32182000Y-86721000D01*
G37*
G36*
X32182000Y-85221000D02*
G01*
X30556000Y-85221000D01*
X30556000Y-84019000D01*
X32182000Y-84019000D01*
X32182000Y-85221000D01*
X32182000Y-85221000D01*
G37*
G36*
X45644000Y-85221000D02*
G01*
X44018000Y-85221000D01*
X44018000Y-84019000D01*
X45644000Y-84019000D01*
X45644000Y-85221000D01*
X45644000Y-85221000D01*
G37*
G36*
X53958443Y-82925519D02*
G01*
X54024627Y-82932037D01*
X54194466Y-82983557D01*
X54350991Y-83067222D01*
X54386729Y-83096552D01*
X54488186Y-83179814D01*
X54571448Y-83281271D01*
X54600778Y-83317009D01*
X54684443Y-83473534D01*
X54735963Y-83643373D01*
X54753359Y-83820000D01*
X54735963Y-83996627D01*
X54684443Y-84166466D01*
X54600778Y-84322991D01*
X54571448Y-84358729D01*
X54488186Y-84460186D01*
X54386729Y-84543448D01*
X54350991Y-84572778D01*
X54194466Y-84656443D01*
X54024627Y-84707963D01*
X53958443Y-84714481D01*
X53892260Y-84721000D01*
X53803740Y-84721000D01*
X53737557Y-84714481D01*
X53671373Y-84707963D01*
X53501534Y-84656443D01*
X53345009Y-84572778D01*
X53309271Y-84543448D01*
X53207814Y-84460186D01*
X53124552Y-84358729D01*
X53095222Y-84322991D01*
X53011557Y-84166466D01*
X52960037Y-83996627D01*
X52942641Y-83820000D01*
X52960037Y-83643373D01*
X53011557Y-83473534D01*
X53095222Y-83317009D01*
X53124552Y-83281271D01*
X53207814Y-83179814D01*
X53309271Y-83096552D01*
X53345009Y-83067222D01*
X53501534Y-82983557D01*
X53671373Y-82932037D01*
X53737557Y-82925519D01*
X53803740Y-82919000D01*
X53892260Y-82919000D01*
X53958443Y-82925519D01*
X53958443Y-82925519D01*
G37*
G36*
X22462443Y-82925519D02*
G01*
X22528627Y-82932037D01*
X22698466Y-82983557D01*
X22854991Y-83067222D01*
X22890729Y-83096552D01*
X22992186Y-83179814D01*
X23075448Y-83281271D01*
X23104778Y-83317009D01*
X23188443Y-83473534D01*
X23239963Y-83643373D01*
X23257359Y-83820000D01*
X23239963Y-83996627D01*
X23188443Y-84166466D01*
X23104778Y-84322991D01*
X23075448Y-84358729D01*
X22992186Y-84460186D01*
X22890729Y-84543448D01*
X22854991Y-84572778D01*
X22698466Y-84656443D01*
X22528627Y-84707963D01*
X22462443Y-84714481D01*
X22396260Y-84721000D01*
X22307740Y-84721000D01*
X22241557Y-84714481D01*
X22175373Y-84707963D01*
X22005534Y-84656443D01*
X21849009Y-84572778D01*
X21813271Y-84543448D01*
X21711814Y-84460186D01*
X21628552Y-84358729D01*
X21599222Y-84322991D01*
X21515557Y-84166466D01*
X21464037Y-83996627D01*
X21446641Y-83820000D01*
X21464037Y-83643373D01*
X21515557Y-83473534D01*
X21599222Y-83317009D01*
X21628552Y-83281271D01*
X21711814Y-83179814D01*
X21813271Y-83096552D01*
X21849009Y-83067222D01*
X22005534Y-82983557D01*
X22175373Y-82932037D01*
X22241557Y-82925519D01*
X22307740Y-82919000D01*
X22396260Y-82919000D01*
X22462443Y-82925519D01*
X22462443Y-82925519D01*
G37*
G36*
X32182000Y-83721000D02*
G01*
X30556000Y-83721000D01*
X30556000Y-82519000D01*
X32182000Y-82519000D01*
X32182000Y-83721000D01*
X32182000Y-83721000D01*
G37*
G36*
X45644000Y-83721000D02*
G01*
X44018000Y-83721000D01*
X44018000Y-82519000D01*
X45644000Y-82519000D01*
X45644000Y-83721000D01*
X45644000Y-83721000D01*
G37*
G36*
X32182000Y-82221000D02*
G01*
X30556000Y-82221000D01*
X30556000Y-81019000D01*
X32182000Y-81019000D01*
X32182000Y-82221000D01*
X32182000Y-82221000D01*
G37*
G36*
X45644000Y-82221000D02*
G01*
X44018000Y-82221000D01*
X44018000Y-81019000D01*
X45644000Y-81019000D01*
X45644000Y-82221000D01*
X45644000Y-82221000D01*
G37*
G36*
X22462442Y-80385518D02*
G01*
X22528627Y-80392037D01*
X22698466Y-80443557D01*
X22854991Y-80527222D01*
X22890729Y-80556552D01*
X22992186Y-80639814D01*
X23075448Y-80741271D01*
X23104778Y-80777009D01*
X23188443Y-80933534D01*
X23239963Y-81103373D01*
X23257359Y-81280000D01*
X23239963Y-81456627D01*
X23188443Y-81626466D01*
X23104778Y-81782991D01*
X23075448Y-81818729D01*
X22992186Y-81920186D01*
X22890729Y-82003448D01*
X22854991Y-82032778D01*
X22698466Y-82116443D01*
X22528627Y-82167963D01*
X22462443Y-82174481D01*
X22396260Y-82181000D01*
X22307740Y-82181000D01*
X22241557Y-82174481D01*
X22175373Y-82167963D01*
X22005534Y-82116443D01*
X21849009Y-82032778D01*
X21813271Y-82003448D01*
X21711814Y-81920186D01*
X21628552Y-81818729D01*
X21599222Y-81782991D01*
X21515557Y-81626466D01*
X21464037Y-81456627D01*
X21446641Y-81280000D01*
X21464037Y-81103373D01*
X21515557Y-80933534D01*
X21599222Y-80777009D01*
X21628552Y-80741271D01*
X21711814Y-80639814D01*
X21813271Y-80556552D01*
X21849009Y-80527222D01*
X22005534Y-80443557D01*
X22175373Y-80392037D01*
X22241558Y-80385518D01*
X22307740Y-80379000D01*
X22396260Y-80379000D01*
X22462442Y-80385518D01*
X22462442Y-80385518D01*
G37*
G36*
X53958442Y-80385518D02*
G01*
X54024627Y-80392037D01*
X54194466Y-80443557D01*
X54350991Y-80527222D01*
X54386729Y-80556552D01*
X54488186Y-80639814D01*
X54571448Y-80741271D01*
X54600778Y-80777009D01*
X54684443Y-80933534D01*
X54735963Y-81103373D01*
X54753359Y-81280000D01*
X54735963Y-81456627D01*
X54684443Y-81626466D01*
X54600778Y-81782991D01*
X54571448Y-81818729D01*
X54488186Y-81920186D01*
X54386729Y-82003448D01*
X54350991Y-82032778D01*
X54194466Y-82116443D01*
X54024627Y-82167963D01*
X53958443Y-82174481D01*
X53892260Y-82181000D01*
X53803740Y-82181000D01*
X53737557Y-82174481D01*
X53671373Y-82167963D01*
X53501534Y-82116443D01*
X53345009Y-82032778D01*
X53309271Y-82003448D01*
X53207814Y-81920186D01*
X53124552Y-81818729D01*
X53095222Y-81782991D01*
X53011557Y-81626466D01*
X52960037Y-81456627D01*
X52942641Y-81280000D01*
X52960037Y-81103373D01*
X53011557Y-80933534D01*
X53095222Y-80777009D01*
X53124552Y-80741271D01*
X53207814Y-80639814D01*
X53309271Y-80556552D01*
X53345009Y-80527222D01*
X53501534Y-80443557D01*
X53671373Y-80392037D01*
X53737558Y-80385518D01*
X53803740Y-80379000D01*
X53892260Y-80379000D01*
X53958442Y-80385518D01*
X53958442Y-80385518D01*
G37*
G36*
X32182000Y-80721000D02*
G01*
X30556000Y-80721000D01*
X30556000Y-79519000D01*
X32182000Y-79519000D01*
X32182000Y-80721000D01*
X32182000Y-80721000D01*
G37*
G36*
X45644000Y-80721000D02*
G01*
X44018000Y-80721000D01*
X44018000Y-79519000D01*
X45644000Y-79519000D01*
X45644000Y-80721000D01*
X45644000Y-80721000D01*
G37*
G36*
X53958443Y-77845519D02*
G01*
X54024627Y-77852037D01*
X54194466Y-77903557D01*
X54350991Y-77987222D01*
X54386729Y-78016552D01*
X54488186Y-78099814D01*
X54571448Y-78201271D01*
X54600778Y-78237009D01*
X54684443Y-78393534D01*
X54735963Y-78563373D01*
X54753359Y-78740000D01*
X54735963Y-78916627D01*
X54684443Y-79086466D01*
X54600778Y-79242991D01*
X54571448Y-79278729D01*
X54488186Y-79380186D01*
X54386729Y-79463448D01*
X54350991Y-79492778D01*
X54194466Y-79576443D01*
X54024627Y-79627963D01*
X53958442Y-79634482D01*
X53892260Y-79641000D01*
X53803740Y-79641000D01*
X53737558Y-79634482D01*
X53671373Y-79627963D01*
X53501534Y-79576443D01*
X53345009Y-79492778D01*
X53309271Y-79463448D01*
X53207814Y-79380186D01*
X53124552Y-79278729D01*
X53095222Y-79242991D01*
X53011557Y-79086466D01*
X52960037Y-78916627D01*
X52942641Y-78740000D01*
X52960037Y-78563373D01*
X53011557Y-78393534D01*
X53095222Y-78237009D01*
X53124552Y-78201271D01*
X53207814Y-78099814D01*
X53309271Y-78016552D01*
X53345009Y-77987222D01*
X53501534Y-77903557D01*
X53671373Y-77852037D01*
X53737557Y-77845519D01*
X53803740Y-77839000D01*
X53892260Y-77839000D01*
X53958443Y-77845519D01*
X53958443Y-77845519D01*
G37*
G36*
X22462443Y-77845519D02*
G01*
X22528627Y-77852037D01*
X22698466Y-77903557D01*
X22854991Y-77987222D01*
X22890729Y-78016552D01*
X22992186Y-78099814D01*
X23075448Y-78201271D01*
X23104778Y-78237009D01*
X23188443Y-78393534D01*
X23239963Y-78563373D01*
X23257359Y-78740000D01*
X23239963Y-78916627D01*
X23188443Y-79086466D01*
X23104778Y-79242991D01*
X23075448Y-79278729D01*
X22992186Y-79380186D01*
X22890729Y-79463448D01*
X22854991Y-79492778D01*
X22698466Y-79576443D01*
X22528627Y-79627963D01*
X22462442Y-79634482D01*
X22396260Y-79641000D01*
X22307740Y-79641000D01*
X22241558Y-79634482D01*
X22175373Y-79627963D01*
X22005534Y-79576443D01*
X21849009Y-79492778D01*
X21813271Y-79463448D01*
X21711814Y-79380186D01*
X21628552Y-79278729D01*
X21599222Y-79242991D01*
X21515557Y-79086466D01*
X21464037Y-78916627D01*
X21446641Y-78740000D01*
X21464037Y-78563373D01*
X21515557Y-78393534D01*
X21599222Y-78237009D01*
X21628552Y-78201271D01*
X21711814Y-78099814D01*
X21813271Y-78016552D01*
X21849009Y-77987222D01*
X22005534Y-77903557D01*
X22175373Y-77852037D01*
X22241557Y-77845519D01*
X22307740Y-77839000D01*
X22396260Y-77839000D01*
X22462443Y-77845519D01*
X22462443Y-77845519D01*
G37*
G36*
X45644000Y-79221000D02*
G01*
X44018000Y-79221000D01*
X44018000Y-78019000D01*
X45644000Y-78019000D01*
X45644000Y-79221000D01*
X45644000Y-79221000D01*
G37*
G36*
X32182000Y-79221000D02*
G01*
X30556000Y-79221000D01*
X30556000Y-78019000D01*
X32182000Y-78019000D01*
X32182000Y-79221000D01*
X32182000Y-79221000D01*
G37*
G36*
X32182000Y-77721000D02*
G01*
X30556000Y-77721000D01*
X30556000Y-76519000D01*
X32182000Y-76519000D01*
X32182000Y-77721000D01*
X32182000Y-77721000D01*
G37*
G36*
X45644000Y-77721000D02*
G01*
X44018000Y-77721000D01*
X44018000Y-76519000D01*
X45644000Y-76519000D01*
X45644000Y-77721000D01*
X45644000Y-77721000D01*
G37*
G36*
X53958442Y-75305518D02*
G01*
X54024627Y-75312037D01*
X54194466Y-75363557D01*
X54350991Y-75447222D01*
X54386729Y-75476552D01*
X54488186Y-75559814D01*
X54571448Y-75661271D01*
X54600778Y-75697009D01*
X54684443Y-75853534D01*
X54735963Y-76023373D01*
X54753359Y-76200000D01*
X54735963Y-76376627D01*
X54684443Y-76546466D01*
X54600778Y-76702991D01*
X54571448Y-76738729D01*
X54488186Y-76840186D01*
X54386729Y-76923448D01*
X54350991Y-76952778D01*
X54194466Y-77036443D01*
X54024627Y-77087963D01*
X53958442Y-77094482D01*
X53892260Y-77101000D01*
X53803740Y-77101000D01*
X53737558Y-77094482D01*
X53671373Y-77087963D01*
X53501534Y-77036443D01*
X53345009Y-76952778D01*
X53309271Y-76923448D01*
X53207814Y-76840186D01*
X53124552Y-76738729D01*
X53095222Y-76702991D01*
X53011557Y-76546466D01*
X52960037Y-76376627D01*
X52942641Y-76200000D01*
X52960037Y-76023373D01*
X53011557Y-75853534D01*
X53095222Y-75697009D01*
X53124552Y-75661271D01*
X53207814Y-75559814D01*
X53309271Y-75476552D01*
X53345009Y-75447222D01*
X53501534Y-75363557D01*
X53671373Y-75312037D01*
X53737558Y-75305518D01*
X53803740Y-75299000D01*
X53892260Y-75299000D01*
X53958442Y-75305518D01*
X53958442Y-75305518D01*
G37*
G36*
X22462442Y-75305518D02*
G01*
X22528627Y-75312037D01*
X22698466Y-75363557D01*
X22854991Y-75447222D01*
X22890729Y-75476552D01*
X22992186Y-75559814D01*
X23075448Y-75661271D01*
X23104778Y-75697009D01*
X23188443Y-75853534D01*
X23239963Y-76023373D01*
X23257359Y-76200000D01*
X23239963Y-76376627D01*
X23188443Y-76546466D01*
X23104778Y-76702991D01*
X23075448Y-76738729D01*
X22992186Y-76840186D01*
X22890729Y-76923448D01*
X22854991Y-76952778D01*
X22698466Y-77036443D01*
X22528627Y-77087963D01*
X22462442Y-77094482D01*
X22396260Y-77101000D01*
X22307740Y-77101000D01*
X22241558Y-77094482D01*
X22175373Y-77087963D01*
X22005534Y-77036443D01*
X21849009Y-76952778D01*
X21813271Y-76923448D01*
X21711814Y-76840186D01*
X21628552Y-76738729D01*
X21599222Y-76702991D01*
X21515557Y-76546466D01*
X21464037Y-76376627D01*
X21446641Y-76200000D01*
X21464037Y-76023373D01*
X21515557Y-75853534D01*
X21599222Y-75697009D01*
X21628552Y-75661271D01*
X21711814Y-75559814D01*
X21813271Y-75476552D01*
X21849009Y-75447222D01*
X22005534Y-75363557D01*
X22175373Y-75312037D01*
X22241558Y-75305518D01*
X22307740Y-75299000D01*
X22396260Y-75299000D01*
X22462442Y-75305518D01*
X22462442Y-75305518D01*
G37*
G36*
X45644000Y-76221000D02*
G01*
X44018000Y-76221000D01*
X44018000Y-75019000D01*
X45644000Y-75019000D01*
X45644000Y-76221000D01*
X45644000Y-76221000D01*
G37*
G36*
X32182000Y-76221000D02*
G01*
X30556000Y-76221000D01*
X30556000Y-75019000D01*
X32182000Y-75019000D01*
X32182000Y-76221000D01*
X32182000Y-76221000D01*
G37*
G36*
X45644000Y-74721000D02*
G01*
X44018000Y-74721000D01*
X44018000Y-73519000D01*
X45644000Y-73519000D01*
X45644000Y-74721000D01*
X45644000Y-74721000D01*
G37*
G36*
X32182000Y-74721000D02*
G01*
X30556000Y-74721000D01*
X30556000Y-73519000D01*
X32182000Y-73519000D01*
X32182000Y-74721000D01*
X32182000Y-74721000D01*
G37*
G36*
X53958442Y-72765518D02*
G01*
X54024627Y-72772037D01*
X54194466Y-72823557D01*
X54350991Y-72907222D01*
X54386729Y-72936552D01*
X54488186Y-73019814D01*
X54571448Y-73121271D01*
X54600778Y-73157009D01*
X54684443Y-73313534D01*
X54735963Y-73483373D01*
X54753359Y-73660000D01*
X54735963Y-73836627D01*
X54684443Y-74006466D01*
X54600778Y-74162991D01*
X54571448Y-74198729D01*
X54488186Y-74300186D01*
X54386729Y-74383448D01*
X54350991Y-74412778D01*
X54194466Y-74496443D01*
X54024627Y-74547963D01*
X53958442Y-74554482D01*
X53892260Y-74561000D01*
X53803740Y-74561000D01*
X53737558Y-74554482D01*
X53671373Y-74547963D01*
X53501534Y-74496443D01*
X53345009Y-74412778D01*
X53309271Y-74383448D01*
X53207814Y-74300186D01*
X53124552Y-74198729D01*
X53095222Y-74162991D01*
X53011557Y-74006466D01*
X52960037Y-73836627D01*
X52942641Y-73660000D01*
X52960037Y-73483373D01*
X53011557Y-73313534D01*
X53095222Y-73157009D01*
X53124552Y-73121271D01*
X53207814Y-73019814D01*
X53309271Y-72936552D01*
X53345009Y-72907222D01*
X53501534Y-72823557D01*
X53671373Y-72772037D01*
X53737558Y-72765518D01*
X53803740Y-72759000D01*
X53892260Y-72759000D01*
X53958442Y-72765518D01*
X53958442Y-72765518D01*
G37*
G36*
X22462442Y-72765518D02*
G01*
X22528627Y-72772037D01*
X22698466Y-72823557D01*
X22854991Y-72907222D01*
X22890729Y-72936552D01*
X22992186Y-73019814D01*
X23075448Y-73121271D01*
X23104778Y-73157009D01*
X23188443Y-73313534D01*
X23239963Y-73483373D01*
X23257359Y-73660000D01*
X23239963Y-73836627D01*
X23188443Y-74006466D01*
X23104778Y-74162991D01*
X23075448Y-74198729D01*
X22992186Y-74300186D01*
X22890729Y-74383448D01*
X22854991Y-74412778D01*
X22698466Y-74496443D01*
X22528627Y-74547963D01*
X22462442Y-74554482D01*
X22396260Y-74561000D01*
X22307740Y-74561000D01*
X22241558Y-74554482D01*
X22175373Y-74547963D01*
X22005534Y-74496443D01*
X21849009Y-74412778D01*
X21813271Y-74383448D01*
X21711814Y-74300186D01*
X21628552Y-74198729D01*
X21599222Y-74162991D01*
X21515557Y-74006466D01*
X21464037Y-73836627D01*
X21446641Y-73660000D01*
X21464037Y-73483373D01*
X21515557Y-73313534D01*
X21599222Y-73157009D01*
X21628552Y-73121271D01*
X21711814Y-73019814D01*
X21813271Y-72936552D01*
X21849009Y-72907222D01*
X22005534Y-72823557D01*
X22175373Y-72772037D01*
X22241558Y-72765518D01*
X22307740Y-72759000D01*
X22396260Y-72759000D01*
X22462442Y-72765518D01*
X22462442Y-72765518D01*
G37*
G36*
X32182000Y-73221000D02*
G01*
X30556000Y-73221000D01*
X30556000Y-72019000D01*
X32182000Y-72019000D01*
X32182000Y-73221000D01*
X32182000Y-73221000D01*
G37*
G36*
X45644000Y-73221000D02*
G01*
X44018000Y-73221000D01*
X44018000Y-72019000D01*
X45644000Y-72019000D01*
X45644000Y-73221000D01*
X45644000Y-73221000D01*
G37*
G36*
X22462442Y-70225518D02*
G01*
X22528627Y-70232037D01*
X22698466Y-70283557D01*
X22854991Y-70367222D01*
X22890729Y-70396552D01*
X22992186Y-70479814D01*
X23075448Y-70581271D01*
X23104778Y-70617009D01*
X23188443Y-70773534D01*
X23239963Y-70943373D01*
X23257359Y-71120000D01*
X23239963Y-71296627D01*
X23188443Y-71466466D01*
X23104778Y-71622991D01*
X23075448Y-71658729D01*
X22992186Y-71760186D01*
X22890729Y-71843448D01*
X22854991Y-71872778D01*
X22698466Y-71956443D01*
X22528627Y-72007963D01*
X22462443Y-72014481D01*
X22396260Y-72021000D01*
X22307740Y-72021000D01*
X22241557Y-72014481D01*
X22175373Y-72007963D01*
X22005534Y-71956443D01*
X21849009Y-71872778D01*
X21813271Y-71843448D01*
X21711814Y-71760186D01*
X21628552Y-71658729D01*
X21599222Y-71622991D01*
X21515557Y-71466466D01*
X21464037Y-71296627D01*
X21446641Y-71120000D01*
X21464037Y-70943373D01*
X21515557Y-70773534D01*
X21599222Y-70617009D01*
X21628552Y-70581271D01*
X21711814Y-70479814D01*
X21813271Y-70396552D01*
X21849009Y-70367222D01*
X22005534Y-70283557D01*
X22175373Y-70232037D01*
X22241558Y-70225518D01*
X22307740Y-70219000D01*
X22396260Y-70219000D01*
X22462442Y-70225518D01*
X22462442Y-70225518D01*
G37*
G36*
X53958442Y-70225518D02*
G01*
X54024627Y-70232037D01*
X54194466Y-70283557D01*
X54350991Y-70367222D01*
X54386729Y-70396552D01*
X54488186Y-70479814D01*
X54571448Y-70581271D01*
X54600778Y-70617009D01*
X54684443Y-70773534D01*
X54735963Y-70943373D01*
X54753359Y-71120000D01*
X54735963Y-71296627D01*
X54684443Y-71466466D01*
X54600778Y-71622991D01*
X54571448Y-71658729D01*
X54488186Y-71760186D01*
X54386729Y-71843448D01*
X54350991Y-71872778D01*
X54194466Y-71956443D01*
X54024627Y-72007963D01*
X53958443Y-72014481D01*
X53892260Y-72021000D01*
X53803740Y-72021000D01*
X53737557Y-72014481D01*
X53671373Y-72007963D01*
X53501534Y-71956443D01*
X53345009Y-71872778D01*
X53309271Y-71843448D01*
X53207814Y-71760186D01*
X53124552Y-71658729D01*
X53095222Y-71622991D01*
X53011557Y-71466466D01*
X52960037Y-71296627D01*
X52942641Y-71120000D01*
X52960037Y-70943373D01*
X53011557Y-70773534D01*
X53095222Y-70617009D01*
X53124552Y-70581271D01*
X53207814Y-70479814D01*
X53309271Y-70396552D01*
X53345009Y-70367222D01*
X53501534Y-70283557D01*
X53671373Y-70232037D01*
X53737558Y-70225518D01*
X53803740Y-70219000D01*
X53892260Y-70219000D01*
X53958442Y-70225518D01*
X53958442Y-70225518D01*
G37*
G36*
X32182000Y-71721000D02*
G01*
X30556000Y-71721000D01*
X30556000Y-70519000D01*
X32182000Y-70519000D01*
X32182000Y-71721000D01*
X32182000Y-71721000D01*
G37*
G36*
X45644000Y-71721000D02*
G01*
X44018000Y-71721000D01*
X44018000Y-70519000D01*
X45644000Y-70519000D01*
X45644000Y-71721000D01*
X45644000Y-71721000D01*
G37*
G36*
X22462443Y-67685519D02*
G01*
X22528627Y-67692037D01*
X22698466Y-67743557D01*
X22854991Y-67827222D01*
X22890729Y-67856552D01*
X22992186Y-67939814D01*
X23075448Y-68041271D01*
X23104778Y-68077009D01*
X23188443Y-68233534D01*
X23239963Y-68403373D01*
X23257359Y-68580000D01*
X23239963Y-68756627D01*
X23188443Y-68926466D01*
X23104778Y-69082991D01*
X23075448Y-69118729D01*
X22992186Y-69220186D01*
X22890729Y-69303448D01*
X22854991Y-69332778D01*
X22698466Y-69416443D01*
X22528627Y-69467963D01*
X22462442Y-69474482D01*
X22396260Y-69481000D01*
X22307740Y-69481000D01*
X22241558Y-69474482D01*
X22175373Y-69467963D01*
X22005534Y-69416443D01*
X21849009Y-69332778D01*
X21813271Y-69303448D01*
X21711814Y-69220186D01*
X21628552Y-69118729D01*
X21599222Y-69082991D01*
X21515557Y-68926466D01*
X21464037Y-68756627D01*
X21446641Y-68580000D01*
X21464037Y-68403373D01*
X21515557Y-68233534D01*
X21599222Y-68077009D01*
X21628552Y-68041271D01*
X21711814Y-67939814D01*
X21813271Y-67856552D01*
X21849009Y-67827222D01*
X22005534Y-67743557D01*
X22175373Y-67692037D01*
X22241557Y-67685519D01*
X22307740Y-67679000D01*
X22396260Y-67679000D01*
X22462443Y-67685519D01*
X22462443Y-67685519D01*
G37*
G36*
X53958443Y-67685519D02*
G01*
X54024627Y-67692037D01*
X54194466Y-67743557D01*
X54350991Y-67827222D01*
X54386729Y-67856552D01*
X54488186Y-67939814D01*
X54571448Y-68041271D01*
X54600778Y-68077009D01*
X54684443Y-68233534D01*
X54735963Y-68403373D01*
X54753359Y-68580000D01*
X54735963Y-68756627D01*
X54684443Y-68926466D01*
X54600778Y-69082991D01*
X54571448Y-69118729D01*
X54488186Y-69220186D01*
X54386729Y-69303448D01*
X54350991Y-69332778D01*
X54194466Y-69416443D01*
X54024627Y-69467963D01*
X53958442Y-69474482D01*
X53892260Y-69481000D01*
X53803740Y-69481000D01*
X53737558Y-69474482D01*
X53671373Y-69467963D01*
X53501534Y-69416443D01*
X53345009Y-69332778D01*
X53309271Y-69303448D01*
X53207814Y-69220186D01*
X53124552Y-69118729D01*
X53095222Y-69082991D01*
X53011557Y-68926466D01*
X52960037Y-68756627D01*
X52942641Y-68580000D01*
X52960037Y-68403373D01*
X53011557Y-68233534D01*
X53095222Y-68077009D01*
X53124552Y-68041271D01*
X53207814Y-67939814D01*
X53309271Y-67856552D01*
X53345009Y-67827222D01*
X53501534Y-67743557D01*
X53671373Y-67692037D01*
X53737557Y-67685519D01*
X53803740Y-67679000D01*
X53892260Y-67679000D01*
X53958443Y-67685519D01*
X53958443Y-67685519D01*
G37*
G36*
X23253000Y-66941000D02*
G01*
X21451000Y-66941000D01*
X21451000Y-65139000D01*
X23253000Y-65139000D01*
X23253000Y-66941000D01*
X23253000Y-66941000D01*
G37*
G36*
X54749000Y-66941000D02*
G01*
X52947000Y-66941000D01*
X52947000Y-65139000D01*
X54749000Y-65139000D01*
X54749000Y-66941000D01*
X54749000Y-66941000D01*
G37*
M02*
