G04 #@! TF.GenerationSoftware,KiCad,Pcbnew,5.1.0*
G04 #@! TF.CreationDate,2019-03-28T19:40:46+01:00*
G04 #@! TF.ProjectId,hc05-bb,68633035-2d62-4622-9e6b-696361645f70,rev?*
G04 #@! TF.SameCoordinates,Original*
G04 #@! TF.FileFunction,Copper,L1,Top*
G04 #@! TF.FilePolarity,Positive*
%FSLAX46Y46*%
G04 Gerber Fmt 4.6, Leading zero omitted, Abs format (unit mm)*
G04 Created by KiCad (PCBNEW 5.1.0) date 2019-03-28 19:40:46*
%MOMM*%
%LPD*%
G04 APERTURE LIST*
%ADD10O,1.700000X1.700000*%
%ADD11R,1.700000X1.700000*%
%ADD12R,1.100000X1.524000*%
%ADD13R,1.524000X1.100000*%
%ADD14C,0.250000*%
%ADD15C,0.254000*%
G04 APERTURE END LIST*
D10*
X53848000Y-106680000D03*
X53848000Y-104140000D03*
X53848000Y-101600000D03*
X53848000Y-99060000D03*
X53848000Y-96520000D03*
X53848000Y-93980000D03*
X53848000Y-91440000D03*
X53848000Y-88900000D03*
X53848000Y-86360000D03*
X53848000Y-83820000D03*
X53848000Y-81280000D03*
X53848000Y-78740000D03*
X53848000Y-76200000D03*
X53848000Y-73660000D03*
X53848000Y-71120000D03*
X53848000Y-68580000D03*
D11*
X53848000Y-66040000D03*
D10*
X22352000Y-106680000D03*
X22352000Y-104140000D03*
X22352000Y-101600000D03*
X22352000Y-99060000D03*
X22352000Y-96520000D03*
X22352000Y-93980000D03*
X22352000Y-91440000D03*
X22352000Y-88900000D03*
X22352000Y-86360000D03*
X22352000Y-83820000D03*
X22352000Y-81280000D03*
X22352000Y-78740000D03*
X22352000Y-76200000D03*
X22352000Y-73660000D03*
X22352000Y-71120000D03*
X22352000Y-68580000D03*
D11*
X22352000Y-66040000D03*
D12*
X43350000Y-91186000D03*
X41850000Y-91186000D03*
X40350000Y-91186000D03*
X38850000Y-91186000D03*
X37350000Y-91186000D03*
X35850000Y-91186000D03*
X34350000Y-91186000D03*
X32850000Y-91186000D03*
D13*
X44831000Y-77120000D03*
X44831000Y-84620000D03*
X44831000Y-83120000D03*
X44831000Y-75620000D03*
X44831000Y-80120000D03*
X44831000Y-81620000D03*
X44831000Y-72620000D03*
X44831000Y-74120000D03*
X44831000Y-71120000D03*
X44831000Y-78620000D03*
X44831000Y-89120000D03*
X44831000Y-86120000D03*
X44831000Y-87620000D03*
X31369000Y-89120000D03*
X31369000Y-86120000D03*
X31369000Y-87620000D03*
X31369000Y-83120000D03*
X31369000Y-84620000D03*
X31369000Y-80120000D03*
X31369000Y-81620000D03*
X31369000Y-77120000D03*
X31369000Y-78620000D03*
X31369000Y-74120000D03*
X31369000Y-75620000D03*
X31369000Y-72620000D03*
X31369000Y-71120000D03*
D14*
X22860000Y-78740000D02*
X30988000Y-78740000D01*
X25831999Y-100660001D02*
X34544000Y-91948000D01*
X22860000Y-104140000D02*
X24384000Y-104140000D01*
X24384000Y-104140000D02*
X36068000Y-92456000D01*
X36068000Y-92456000D02*
X36068000Y-91440000D01*
X48158400Y-71221600D02*
X53340000Y-66040000D01*
X44831000Y-71221600D02*
X48158400Y-71221600D01*
X49198400Y-72721600D02*
X53340000Y-68580000D01*
X44831000Y-72721600D02*
X49198400Y-72721600D01*
X50238400Y-74221600D02*
X53340000Y-71120000D01*
X44831000Y-74221600D02*
X50238400Y-74221600D01*
X51278400Y-75721600D02*
X53340000Y-73660000D01*
X44831000Y-75721600D02*
X51278400Y-75721600D01*
X52318400Y-77221600D02*
X53340000Y-76200000D01*
X44831000Y-77221600D02*
X52318400Y-77221600D01*
X53321600Y-78721600D02*
X53340000Y-78740000D01*
X44831000Y-78721600D02*
X53321600Y-78721600D01*
X52281600Y-80221600D02*
X53340000Y-81280000D01*
X44831000Y-80221600D02*
X52281600Y-80221600D01*
X51241600Y-81721600D02*
X53340000Y-83820000D01*
X44831000Y-81721600D02*
X51241600Y-81721600D01*
X50201600Y-83221600D02*
X53340000Y-86360000D01*
X44831000Y-83221600D02*
X50201600Y-83221600D01*
X49161600Y-84721600D02*
X53340000Y-88900000D01*
X44831000Y-84721600D02*
X49161600Y-84721600D01*
X48121600Y-86221600D02*
X53340000Y-91440000D01*
X44831000Y-86221600D02*
X48121600Y-86221600D01*
X47081600Y-87721600D02*
X53340000Y-93980000D01*
X44831000Y-87721600D02*
X47081600Y-87721600D01*
X46041600Y-89221600D02*
X53340000Y-96520000D01*
X44831000Y-89221600D02*
X46041600Y-89221600D01*
X52010640Y-101600000D02*
X53340000Y-101600000D01*
X51150400Y-101600000D02*
X52010640Y-101600000D01*
X41850000Y-92299600D02*
X51150400Y-101600000D01*
X41850000Y-91287600D02*
X41850000Y-92299600D01*
X52990400Y-104140000D02*
X53340000Y-104140000D01*
X40350000Y-91287600D02*
X40350000Y-91499600D01*
X53340000Y-105989600D02*
X53340000Y-106680000D01*
X38850000Y-91287600D02*
X38850000Y-91499600D01*
X40506400Y-92456000D02*
X40506400Y-92830400D01*
X51816000Y-104140000D02*
X53340000Y-104140000D01*
X40506400Y-92830400D02*
X51816000Y-104140000D01*
X40506400Y-92456000D02*
X40506400Y-92081600D01*
X40506400Y-92081600D02*
X40640000Y-91948000D01*
X37592000Y-92964000D02*
X37592000Y-91440000D01*
X24815999Y-105740001D02*
X37592000Y-92964000D01*
D15*
X25831999Y-100660001D02*
X24892000Y-101600000D01*
X24892000Y-101600000D02*
X22860000Y-101600000D01*
X24815999Y-105740001D02*
X23876000Y-106680000D01*
X23876000Y-106680000D02*
X22860000Y-106680000D01*
X52578000Y-106680000D02*
X53340000Y-106680000D01*
X38850000Y-91287600D02*
X38850000Y-92952000D01*
X38850000Y-92952000D02*
X52578000Y-106680000D01*
X23881600Y-77221600D02*
X22860000Y-76200000D01*
X31369000Y-77221600D02*
X23881600Y-77221600D01*
X24921600Y-75721600D02*
X22860000Y-73660000D01*
X31369000Y-75721600D02*
X24921600Y-75721600D01*
X25961600Y-74221600D02*
X22860000Y-71120000D01*
X31369000Y-74221600D02*
X25961600Y-74221600D01*
X27001600Y-72721600D02*
X22860000Y-68580000D01*
X31369000Y-72721600D02*
X27001600Y-72721600D01*
X28041600Y-71221600D02*
X22860000Y-66040000D01*
X31369000Y-71221600D02*
X28041600Y-71221600D01*
X23918400Y-80221600D02*
X22860000Y-81280000D01*
X31369000Y-80221600D02*
X23918400Y-80221600D01*
X24958400Y-81721600D02*
X22860000Y-83820000D01*
X31369000Y-81721600D02*
X24958400Y-81721600D01*
X25998400Y-83221600D02*
X22860000Y-86360000D01*
X31369000Y-83221600D02*
X25998400Y-83221600D01*
X27038400Y-84721600D02*
X22860000Y-88900000D01*
X31369000Y-84721600D02*
X27038400Y-84721600D01*
X28078400Y-86221600D02*
X22860000Y-91440000D01*
X31369000Y-86221600D02*
X28078400Y-86221600D01*
X29118400Y-87721600D02*
X22860000Y-93980000D01*
X31369000Y-87721600D02*
X29118400Y-87721600D01*
X30158400Y-89221600D02*
X22860000Y-96520000D01*
X31369000Y-89221600D02*
X30158400Y-89221600D01*
X30632400Y-91287600D02*
X22860000Y-99060000D01*
X32850000Y-91287600D02*
X30632400Y-91287600D01*
X45567600Y-91287600D02*
X53340000Y-99060000D01*
X43350000Y-91287600D02*
X45567600Y-91287600D01*
X22352000Y-96520000D02*
X21149919Y-96520000D01*
X22352000Y-96520000D02*
X22352000Y-95377000D01*
X22352000Y-96520000D02*
X23554081Y-96520000D01*
X22352000Y-96520000D02*
X22352000Y-97663000D01*
X53848000Y-99060000D02*
X53848000Y-97917000D01*
X53848000Y-99060000D02*
X54991000Y-99060000D01*
X53848000Y-99060000D02*
X53848000Y-100203000D01*
X53848000Y-99060000D02*
X52705000Y-99060000D01*
X53848000Y-96520000D02*
X53848000Y-97663000D01*
X53848000Y-96520000D02*
X54991000Y-96520000D01*
X53848000Y-96520000D02*
X52705000Y-96520000D01*
X53848000Y-96520000D02*
X53848000Y-95377000D01*
G36*
X30353000Y-70364047D02*
G01*
X30333794Y-70387450D01*
X30303430Y-70444257D01*
X30284732Y-70505897D01*
X30278418Y-70570000D01*
X30278418Y-70767600D01*
X28229653Y-70767600D01*
X23530582Y-66068530D01*
X23530582Y-65190000D01*
X23524268Y-65125897D01*
X23505570Y-65064257D01*
X23475206Y-65007450D01*
X23434343Y-64957657D01*
X23384550Y-64916794D01*
X23327743Y-64886430D01*
X23266103Y-64867732D01*
X23202000Y-64861418D01*
X21502000Y-64861418D01*
X21437897Y-64867732D01*
X21376257Y-64886430D01*
X21319450Y-64916794D01*
X21269657Y-64957657D01*
X21228794Y-65007450D01*
X21198430Y-65064257D01*
X21179732Y-65125897D01*
X21173418Y-65190000D01*
X21173418Y-66890000D01*
X21179732Y-66954103D01*
X21198430Y-67015743D01*
X21228794Y-67072550D01*
X21269657Y-67122343D01*
X21319450Y-67163206D01*
X21376257Y-67193570D01*
X21437897Y-67212268D01*
X21502000Y-67218582D01*
X23202000Y-67218582D01*
X23266103Y-67212268D01*
X23327743Y-67193570D01*
X23356270Y-67178322D01*
X27704810Y-71526863D01*
X27719021Y-71544179D01*
X27788151Y-71600913D01*
X27863549Y-71641214D01*
X27867021Y-71643070D01*
X27952600Y-71669030D01*
X27961021Y-71669859D01*
X28019305Y-71675600D01*
X28019312Y-71675600D01*
X28041600Y-71677795D01*
X28063888Y-71675600D01*
X30278970Y-71675600D01*
X30284732Y-71734103D01*
X30303430Y-71795743D01*
X30333794Y-71852550D01*
X30348114Y-71870000D01*
X30333794Y-71887450D01*
X30303430Y-71944257D01*
X30284732Y-72005897D01*
X30278418Y-72070000D01*
X30278418Y-72267600D01*
X27189653Y-72267600D01*
X23531767Y-68609715D01*
X23534694Y-68580000D01*
X23511969Y-68349268D01*
X23444667Y-68127403D01*
X23335374Y-67922930D01*
X23188291Y-67743709D01*
X23009070Y-67596626D01*
X22804597Y-67487333D01*
X22582732Y-67420031D01*
X22409812Y-67403000D01*
X22294188Y-67403000D01*
X22121268Y-67420031D01*
X21899403Y-67487333D01*
X21694930Y-67596626D01*
X21515709Y-67743709D01*
X21368626Y-67922930D01*
X21259333Y-68127403D01*
X21192031Y-68349268D01*
X21169306Y-68580000D01*
X21192031Y-68810732D01*
X21259333Y-69032597D01*
X21368626Y-69237070D01*
X21515709Y-69416291D01*
X21694930Y-69563374D01*
X21899403Y-69672667D01*
X22121268Y-69739969D01*
X22294188Y-69757000D01*
X22409812Y-69757000D01*
X22582732Y-69739969D01*
X22804597Y-69672667D01*
X23009070Y-69563374D01*
X23114663Y-69476716D01*
X26664810Y-73026863D01*
X26679021Y-73044179D01*
X26748151Y-73100913D01*
X26823549Y-73141214D01*
X26827021Y-73143070D01*
X26912600Y-73169030D01*
X26921021Y-73169859D01*
X26979305Y-73175600D01*
X26979312Y-73175600D01*
X27001600Y-73177795D01*
X27023888Y-73175600D01*
X30278970Y-73175600D01*
X30284732Y-73234103D01*
X30303430Y-73295743D01*
X30333794Y-73352550D01*
X30348114Y-73370000D01*
X30333794Y-73387450D01*
X30303430Y-73444257D01*
X30284732Y-73505897D01*
X30278418Y-73570000D01*
X30278418Y-73767600D01*
X26149653Y-73767600D01*
X23531767Y-71149715D01*
X23534694Y-71120000D01*
X23511969Y-70889268D01*
X23444667Y-70667403D01*
X23335374Y-70462930D01*
X23188291Y-70283709D01*
X23009070Y-70136626D01*
X22804597Y-70027333D01*
X22582732Y-69960031D01*
X22409812Y-69943000D01*
X22294188Y-69943000D01*
X22121268Y-69960031D01*
X21899403Y-70027333D01*
X21694930Y-70136626D01*
X21515709Y-70283709D01*
X21368626Y-70462930D01*
X21259333Y-70667403D01*
X21192031Y-70889268D01*
X21169306Y-71120000D01*
X21192031Y-71350732D01*
X21259333Y-71572597D01*
X21368626Y-71777070D01*
X21515709Y-71956291D01*
X21694930Y-72103374D01*
X21899403Y-72212667D01*
X22121268Y-72279969D01*
X22294188Y-72297000D01*
X22409812Y-72297000D01*
X22582732Y-72279969D01*
X22804597Y-72212667D01*
X23009070Y-72103374D01*
X23114663Y-72016716D01*
X25624810Y-74526863D01*
X25639021Y-74544179D01*
X25708151Y-74600913D01*
X25783549Y-74641214D01*
X25787021Y-74643070D01*
X25872600Y-74669030D01*
X25881021Y-74669859D01*
X25939305Y-74675600D01*
X25939312Y-74675600D01*
X25961600Y-74677795D01*
X25983888Y-74675600D01*
X30278970Y-74675600D01*
X30284732Y-74734103D01*
X30303430Y-74795743D01*
X30333794Y-74852550D01*
X30348114Y-74870000D01*
X30333794Y-74887450D01*
X30303430Y-74944257D01*
X30284732Y-75005897D01*
X30278418Y-75070000D01*
X30278418Y-75267600D01*
X25109653Y-75267600D01*
X23531767Y-73689715D01*
X23534694Y-73660000D01*
X23511969Y-73429268D01*
X23444667Y-73207403D01*
X23335374Y-73002930D01*
X23188291Y-72823709D01*
X23009070Y-72676626D01*
X22804597Y-72567333D01*
X22582732Y-72500031D01*
X22409812Y-72483000D01*
X22294188Y-72483000D01*
X22121268Y-72500031D01*
X21899403Y-72567333D01*
X21694930Y-72676626D01*
X21515709Y-72823709D01*
X21368626Y-73002930D01*
X21259333Y-73207403D01*
X21192031Y-73429268D01*
X21169306Y-73660000D01*
X21192031Y-73890732D01*
X21259333Y-74112597D01*
X21368626Y-74317070D01*
X21515709Y-74496291D01*
X21694930Y-74643374D01*
X21899403Y-74752667D01*
X22121268Y-74819969D01*
X22294188Y-74837000D01*
X22409812Y-74837000D01*
X22582732Y-74819969D01*
X22804597Y-74752667D01*
X23009070Y-74643374D01*
X23114663Y-74556716D01*
X24584810Y-76026863D01*
X24599021Y-76044179D01*
X24668151Y-76100913D01*
X24743549Y-76141214D01*
X24747021Y-76143070D01*
X24832600Y-76169030D01*
X24841021Y-76169859D01*
X24899305Y-76175600D01*
X24899312Y-76175600D01*
X24921600Y-76177795D01*
X24943888Y-76175600D01*
X30278970Y-76175600D01*
X30284732Y-76234103D01*
X30303430Y-76295743D01*
X30333794Y-76352550D01*
X30348114Y-76370000D01*
X30333794Y-76387450D01*
X30303430Y-76444257D01*
X30284732Y-76505897D01*
X30278418Y-76570000D01*
X30278418Y-76767600D01*
X24069653Y-76767600D01*
X23531767Y-76229715D01*
X23534694Y-76200000D01*
X23511969Y-75969268D01*
X23444667Y-75747403D01*
X23335374Y-75542930D01*
X23188291Y-75363709D01*
X23009070Y-75216626D01*
X22804597Y-75107333D01*
X22582732Y-75040031D01*
X22409812Y-75023000D01*
X22294188Y-75023000D01*
X22121268Y-75040031D01*
X21899403Y-75107333D01*
X21694930Y-75216626D01*
X21515709Y-75363709D01*
X21368626Y-75542930D01*
X21259333Y-75747403D01*
X21192031Y-75969268D01*
X21169306Y-76200000D01*
X21192031Y-76430732D01*
X21259333Y-76652597D01*
X21368626Y-76857070D01*
X21515709Y-77036291D01*
X21694930Y-77183374D01*
X21899403Y-77292667D01*
X22121268Y-77359969D01*
X22294188Y-77377000D01*
X22409812Y-77377000D01*
X22582732Y-77359969D01*
X22804597Y-77292667D01*
X23009070Y-77183374D01*
X23114663Y-77096716D01*
X23544810Y-77526863D01*
X23559021Y-77544179D01*
X23628151Y-77600913D01*
X23707021Y-77643070D01*
X23792601Y-77669030D01*
X23859305Y-77675600D01*
X23859312Y-77675600D01*
X23881600Y-77677795D01*
X23903888Y-77675600D01*
X30278970Y-77675600D01*
X30284732Y-77734103D01*
X30303430Y-77795743D01*
X30333794Y-77852550D01*
X30348114Y-77870000D01*
X30333794Y-77887450D01*
X30303430Y-77944257D01*
X30284732Y-78005897D01*
X30278418Y-78070000D01*
X30278418Y-78288000D01*
X23444848Y-78288000D01*
X23444667Y-78287403D01*
X23335374Y-78082930D01*
X23188291Y-77903709D01*
X23009070Y-77756626D01*
X22804597Y-77647333D01*
X22582732Y-77580031D01*
X22409812Y-77563000D01*
X22294188Y-77563000D01*
X22121268Y-77580031D01*
X21899403Y-77647333D01*
X21694930Y-77756626D01*
X21515709Y-77903709D01*
X21368626Y-78082930D01*
X21259333Y-78287403D01*
X21192031Y-78509268D01*
X21169306Y-78740000D01*
X21192031Y-78970732D01*
X21259333Y-79192597D01*
X21368626Y-79397070D01*
X21515709Y-79576291D01*
X21694930Y-79723374D01*
X21899403Y-79832667D01*
X22121268Y-79899969D01*
X22294188Y-79917000D01*
X22409812Y-79917000D01*
X22582732Y-79899969D01*
X22804597Y-79832667D01*
X23009070Y-79723374D01*
X23188291Y-79576291D01*
X23335374Y-79397070D01*
X23444667Y-79192597D01*
X23444848Y-79192000D01*
X30280585Y-79192000D01*
X30284732Y-79234103D01*
X30303430Y-79295743D01*
X30333794Y-79352550D01*
X30348114Y-79370000D01*
X30333794Y-79387450D01*
X30303430Y-79444257D01*
X30284732Y-79505897D01*
X30278418Y-79570000D01*
X30278418Y-79767600D01*
X23940688Y-79767600D01*
X23918400Y-79765405D01*
X23896112Y-79767600D01*
X23896105Y-79767600D01*
X23837821Y-79773341D01*
X23829400Y-79774170D01*
X23743821Y-79800130D01*
X23664951Y-79842287D01*
X23595821Y-79899021D01*
X23581610Y-79916337D01*
X23114663Y-80383284D01*
X23009070Y-80296626D01*
X22804597Y-80187333D01*
X22582732Y-80120031D01*
X22409812Y-80103000D01*
X22294188Y-80103000D01*
X22121268Y-80120031D01*
X21899403Y-80187333D01*
X21694930Y-80296626D01*
X21515709Y-80443709D01*
X21368626Y-80622930D01*
X21259333Y-80827403D01*
X21192031Y-81049268D01*
X21169306Y-81280000D01*
X21192031Y-81510732D01*
X21259333Y-81732597D01*
X21368626Y-81937070D01*
X21515709Y-82116291D01*
X21694930Y-82263374D01*
X21899403Y-82372667D01*
X22121268Y-82439969D01*
X22294188Y-82457000D01*
X22409812Y-82457000D01*
X22582732Y-82439969D01*
X22804597Y-82372667D01*
X23009070Y-82263374D01*
X23188291Y-82116291D01*
X23335374Y-81937070D01*
X23444667Y-81732597D01*
X23511969Y-81510732D01*
X23534694Y-81280000D01*
X23531767Y-81250285D01*
X24106453Y-80675600D01*
X30278970Y-80675600D01*
X30284732Y-80734103D01*
X30303430Y-80795743D01*
X30333794Y-80852550D01*
X30348114Y-80870000D01*
X30333794Y-80887450D01*
X30303430Y-80944257D01*
X30284732Y-81005897D01*
X30278418Y-81070000D01*
X30278418Y-81267600D01*
X24980688Y-81267600D01*
X24958400Y-81265405D01*
X24936112Y-81267600D01*
X24936105Y-81267600D01*
X24877821Y-81273341D01*
X24869400Y-81274170D01*
X24783821Y-81300130D01*
X24704951Y-81342287D01*
X24635821Y-81399021D01*
X24621610Y-81416337D01*
X23114663Y-82923284D01*
X23009070Y-82836626D01*
X22804597Y-82727333D01*
X22582732Y-82660031D01*
X22409812Y-82643000D01*
X22294188Y-82643000D01*
X22121268Y-82660031D01*
X21899403Y-82727333D01*
X21694930Y-82836626D01*
X21515709Y-82983709D01*
X21368626Y-83162930D01*
X21259333Y-83367403D01*
X21192031Y-83589268D01*
X21169306Y-83820000D01*
X21192031Y-84050732D01*
X21259333Y-84272597D01*
X21368626Y-84477070D01*
X21515709Y-84656291D01*
X21694930Y-84803374D01*
X21899403Y-84912667D01*
X22121268Y-84979969D01*
X22294188Y-84997000D01*
X22409812Y-84997000D01*
X22582732Y-84979969D01*
X22804597Y-84912667D01*
X23009070Y-84803374D01*
X23188291Y-84656291D01*
X23335374Y-84477070D01*
X23444667Y-84272597D01*
X23511969Y-84050732D01*
X23534694Y-83820000D01*
X23531767Y-83790285D01*
X25146453Y-82175600D01*
X30278970Y-82175600D01*
X30284732Y-82234103D01*
X30303430Y-82295743D01*
X30333794Y-82352550D01*
X30348114Y-82370000D01*
X30333794Y-82387450D01*
X30303430Y-82444257D01*
X30284732Y-82505897D01*
X30278418Y-82570000D01*
X30278418Y-82767600D01*
X26020688Y-82767600D01*
X25998400Y-82765405D01*
X25976112Y-82767600D01*
X25976105Y-82767600D01*
X25917821Y-82773341D01*
X25909400Y-82774170D01*
X25823821Y-82800130D01*
X25744951Y-82842287D01*
X25675821Y-82899021D01*
X25661610Y-82916337D01*
X23114663Y-85463284D01*
X23009070Y-85376626D01*
X22804597Y-85267333D01*
X22582732Y-85200031D01*
X22409812Y-85183000D01*
X22294188Y-85183000D01*
X22121268Y-85200031D01*
X21899403Y-85267333D01*
X21694930Y-85376626D01*
X21515709Y-85523709D01*
X21368626Y-85702930D01*
X21259333Y-85907403D01*
X21192031Y-86129268D01*
X21169306Y-86360000D01*
X21192031Y-86590732D01*
X21259333Y-86812597D01*
X21368626Y-87017070D01*
X21515709Y-87196291D01*
X21694930Y-87343374D01*
X21899403Y-87452667D01*
X22121268Y-87519969D01*
X22294188Y-87537000D01*
X22409812Y-87537000D01*
X22582732Y-87519969D01*
X22804597Y-87452667D01*
X23009070Y-87343374D01*
X23188291Y-87196291D01*
X23335374Y-87017070D01*
X23444667Y-86812597D01*
X23511969Y-86590732D01*
X23534694Y-86360000D01*
X23531767Y-86330285D01*
X26186453Y-83675600D01*
X30278970Y-83675600D01*
X30284732Y-83734103D01*
X30303430Y-83795743D01*
X30333794Y-83852550D01*
X30348114Y-83870000D01*
X30333794Y-83887450D01*
X30303430Y-83944257D01*
X30284732Y-84005897D01*
X30278418Y-84070000D01*
X30278418Y-84267600D01*
X27060688Y-84267600D01*
X27038400Y-84265405D01*
X27016112Y-84267600D01*
X27016105Y-84267600D01*
X26957821Y-84273341D01*
X26949400Y-84274170D01*
X26863821Y-84300130D01*
X26784951Y-84342287D01*
X26715821Y-84399021D01*
X26701610Y-84416337D01*
X23114663Y-88003284D01*
X23009070Y-87916626D01*
X22804597Y-87807333D01*
X22582732Y-87740031D01*
X22409812Y-87723000D01*
X22294188Y-87723000D01*
X22121268Y-87740031D01*
X21899403Y-87807333D01*
X21694930Y-87916626D01*
X21515709Y-88063709D01*
X21368626Y-88242930D01*
X21259333Y-88447403D01*
X21192031Y-88669268D01*
X21169306Y-88900000D01*
X21192031Y-89130732D01*
X21259333Y-89352597D01*
X21368626Y-89557070D01*
X21515709Y-89736291D01*
X21694930Y-89883374D01*
X21899403Y-89992667D01*
X22121268Y-90059969D01*
X22294188Y-90077000D01*
X22409812Y-90077000D01*
X22582732Y-90059969D01*
X22804597Y-89992667D01*
X23009070Y-89883374D01*
X23188291Y-89736291D01*
X23335374Y-89557070D01*
X23444667Y-89352597D01*
X23511969Y-89130732D01*
X23534694Y-88900000D01*
X23531767Y-88870285D01*
X27226453Y-85175600D01*
X30278970Y-85175600D01*
X30284732Y-85234103D01*
X30303430Y-85295743D01*
X30333794Y-85352550D01*
X30348114Y-85370000D01*
X30333794Y-85387450D01*
X30303430Y-85444257D01*
X30284732Y-85505897D01*
X30278418Y-85570000D01*
X30278418Y-85767600D01*
X28100687Y-85767600D01*
X28078399Y-85765405D01*
X28056111Y-85767600D01*
X28056105Y-85767600D01*
X27998701Y-85773254D01*
X27989400Y-85774170D01*
X27903821Y-85800130D01*
X27824951Y-85842287D01*
X27755821Y-85899021D01*
X27741610Y-85916337D01*
X23114663Y-90543284D01*
X23009070Y-90456626D01*
X22804597Y-90347333D01*
X22582732Y-90280031D01*
X22409812Y-90263000D01*
X22294188Y-90263000D01*
X22121268Y-90280031D01*
X21899403Y-90347333D01*
X21694930Y-90456626D01*
X21515709Y-90603709D01*
X21368626Y-90782930D01*
X21259333Y-90987403D01*
X21192031Y-91209268D01*
X21169306Y-91440000D01*
X21192031Y-91670732D01*
X21259333Y-91892597D01*
X21368626Y-92097070D01*
X21515709Y-92276291D01*
X21694930Y-92423374D01*
X21899403Y-92532667D01*
X22121268Y-92599969D01*
X22294188Y-92617000D01*
X22409812Y-92617000D01*
X22582732Y-92599969D01*
X22804597Y-92532667D01*
X23009070Y-92423374D01*
X23188291Y-92276291D01*
X23335374Y-92097070D01*
X23444667Y-91892597D01*
X23511969Y-91670732D01*
X23534694Y-91440000D01*
X23531767Y-91410285D01*
X28266453Y-86675600D01*
X30278970Y-86675600D01*
X30284732Y-86734103D01*
X30303430Y-86795743D01*
X30333794Y-86852550D01*
X30348114Y-86870000D01*
X30333794Y-86887450D01*
X30303430Y-86944257D01*
X30284732Y-87005897D01*
X30278418Y-87070000D01*
X30278418Y-87267600D01*
X29140687Y-87267600D01*
X29118399Y-87265405D01*
X29096111Y-87267600D01*
X29096105Y-87267600D01*
X29038701Y-87273254D01*
X29029400Y-87274170D01*
X28943821Y-87300130D01*
X28864951Y-87342287D01*
X28795821Y-87399021D01*
X28781610Y-87416337D01*
X23114663Y-93083284D01*
X23009070Y-92996626D01*
X22804597Y-92887333D01*
X22582732Y-92820031D01*
X22409812Y-92803000D01*
X22294188Y-92803000D01*
X22121268Y-92820031D01*
X21899403Y-92887333D01*
X21694930Y-92996626D01*
X21515709Y-93143709D01*
X21368626Y-93322930D01*
X21259333Y-93527403D01*
X21192031Y-93749268D01*
X21169306Y-93980000D01*
X21192031Y-94210732D01*
X21259333Y-94432597D01*
X21368626Y-94637070D01*
X21515709Y-94816291D01*
X21694930Y-94963374D01*
X21899403Y-95072667D01*
X22121268Y-95139969D01*
X22294188Y-95157000D01*
X22409812Y-95157000D01*
X22582732Y-95139969D01*
X22804597Y-95072667D01*
X23009070Y-94963374D01*
X23188291Y-94816291D01*
X23335374Y-94637070D01*
X23444667Y-94432597D01*
X23511969Y-94210732D01*
X23534694Y-93980000D01*
X23531767Y-93950285D01*
X29306453Y-88175600D01*
X30278970Y-88175600D01*
X30284732Y-88234103D01*
X30303430Y-88295743D01*
X30333794Y-88352550D01*
X30348114Y-88370000D01*
X30333794Y-88387450D01*
X30303430Y-88444257D01*
X30284732Y-88505897D01*
X30278418Y-88570000D01*
X30278418Y-88767600D01*
X30180687Y-88767600D01*
X30158399Y-88765405D01*
X30136111Y-88767600D01*
X30136105Y-88767600D01*
X30078701Y-88773254D01*
X30069400Y-88774170D01*
X29983821Y-88800130D01*
X29904951Y-88842287D01*
X29835821Y-88899021D01*
X29821610Y-88916337D01*
X23114663Y-95623284D01*
X23009070Y-95536626D01*
X22804597Y-95427333D01*
X22582732Y-95360031D01*
X22409812Y-95343000D01*
X22294188Y-95343000D01*
X22121268Y-95360031D01*
X21899403Y-95427333D01*
X21694930Y-95536626D01*
X21515709Y-95683709D01*
X21368626Y-95862930D01*
X21259333Y-96067403D01*
X21192031Y-96289268D01*
X21169306Y-96520000D01*
X21192031Y-96750732D01*
X21259333Y-96972597D01*
X21368626Y-97177070D01*
X21515709Y-97356291D01*
X21694930Y-97503374D01*
X21899403Y-97612667D01*
X22121268Y-97679969D01*
X22294188Y-97697000D01*
X22409812Y-97697000D01*
X22582732Y-97679969D01*
X22804597Y-97612667D01*
X23009070Y-97503374D01*
X23188291Y-97356291D01*
X23335374Y-97177070D01*
X23444667Y-96972597D01*
X23511969Y-96750732D01*
X23534694Y-96520000D01*
X23531767Y-96490285D01*
X30285481Y-89736572D01*
X30303430Y-89795743D01*
X30333794Y-89852550D01*
X30374657Y-89902343D01*
X30424450Y-89943206D01*
X30481257Y-89973570D01*
X30542897Y-89992268D01*
X30607000Y-89998582D01*
X32131000Y-89998582D01*
X32195103Y-89992268D01*
X32256743Y-89973570D01*
X32313550Y-89943206D01*
X32363343Y-89902343D01*
X32404206Y-89852550D01*
X32434570Y-89795743D01*
X32453268Y-89734103D01*
X32459582Y-89670000D01*
X32459582Y-88570000D01*
X32453268Y-88505897D01*
X32434570Y-88444257D01*
X32404206Y-88387450D01*
X32389886Y-88370000D01*
X32404206Y-88352550D01*
X32434570Y-88295743D01*
X32453268Y-88234103D01*
X32459582Y-88170000D01*
X32459582Y-87070000D01*
X32453268Y-87005897D01*
X32434570Y-86944257D01*
X32404206Y-86887450D01*
X32389886Y-86870000D01*
X32404206Y-86852550D01*
X32434570Y-86795743D01*
X32453268Y-86734103D01*
X32459582Y-86670000D01*
X32459582Y-85570000D01*
X32453268Y-85505897D01*
X32434570Y-85444257D01*
X32404206Y-85387450D01*
X32389886Y-85370000D01*
X32404206Y-85352550D01*
X32434570Y-85295743D01*
X32453268Y-85234103D01*
X32459582Y-85170000D01*
X32459582Y-84070000D01*
X32453268Y-84005897D01*
X32434570Y-83944257D01*
X32404206Y-83887450D01*
X32389886Y-83870000D01*
X32404206Y-83852550D01*
X32434570Y-83795743D01*
X32453268Y-83734103D01*
X32459582Y-83670000D01*
X32459582Y-82570000D01*
X32453268Y-82505897D01*
X32434570Y-82444257D01*
X32404206Y-82387450D01*
X32389886Y-82370000D01*
X32404206Y-82352550D01*
X32434570Y-82295743D01*
X32453268Y-82234103D01*
X32459582Y-82170000D01*
X32459582Y-81070000D01*
X32453268Y-81005897D01*
X32434570Y-80944257D01*
X32404206Y-80887450D01*
X32389886Y-80870000D01*
X32404206Y-80852550D01*
X32434570Y-80795743D01*
X32453268Y-80734103D01*
X32459582Y-80670000D01*
X32459582Y-79570000D01*
X32453268Y-79505897D01*
X32434570Y-79444257D01*
X32404206Y-79387450D01*
X32389886Y-79370000D01*
X32404206Y-79352550D01*
X32434570Y-79295743D01*
X32453268Y-79234103D01*
X32459582Y-79170000D01*
X32459582Y-78070000D01*
X32453268Y-78005897D01*
X32434570Y-77944257D01*
X32404206Y-77887450D01*
X32389886Y-77870000D01*
X32404206Y-77852550D01*
X32434570Y-77795743D01*
X32453268Y-77734103D01*
X32459582Y-77670000D01*
X32459582Y-76570000D01*
X32453268Y-76505897D01*
X32434570Y-76444257D01*
X32404206Y-76387450D01*
X32389886Y-76370000D01*
X32404206Y-76352550D01*
X32434570Y-76295743D01*
X32453268Y-76234103D01*
X32459582Y-76170000D01*
X32459582Y-75070000D01*
X32453268Y-75005897D01*
X32434570Y-74944257D01*
X32404206Y-74887450D01*
X32389886Y-74870000D01*
X32404206Y-74852550D01*
X32434570Y-74795743D01*
X32453268Y-74734103D01*
X32459582Y-74670000D01*
X32459582Y-73570000D01*
X32453268Y-73505897D01*
X32434570Y-73444257D01*
X32404206Y-73387450D01*
X32389886Y-73370000D01*
X32404206Y-73352550D01*
X32434570Y-73295743D01*
X32453268Y-73234103D01*
X32459582Y-73170000D01*
X32459582Y-72070000D01*
X32453268Y-72005897D01*
X32434570Y-71944257D01*
X32404206Y-71887450D01*
X32389886Y-71870000D01*
X32404206Y-71852550D01*
X32434570Y-71795743D01*
X32453268Y-71734103D01*
X32459582Y-71670000D01*
X32459582Y-70739000D01*
X43740418Y-70739000D01*
X43740418Y-71670000D01*
X43746732Y-71734103D01*
X43765430Y-71795743D01*
X43795794Y-71852550D01*
X43810114Y-71870000D01*
X43795794Y-71887450D01*
X43765430Y-71944257D01*
X43746732Y-72005897D01*
X43740418Y-72070000D01*
X43740418Y-73170000D01*
X43746732Y-73234103D01*
X43765430Y-73295743D01*
X43795794Y-73352550D01*
X43810114Y-73370000D01*
X43795794Y-73387450D01*
X43765430Y-73444257D01*
X43746732Y-73505897D01*
X43740418Y-73570000D01*
X43740418Y-74670000D01*
X43746732Y-74734103D01*
X43765430Y-74795743D01*
X43795794Y-74852550D01*
X43810114Y-74870000D01*
X43795794Y-74887450D01*
X43765430Y-74944257D01*
X43746732Y-75005897D01*
X43740418Y-75070000D01*
X43740418Y-76170000D01*
X43746732Y-76234103D01*
X43765430Y-76295743D01*
X43795794Y-76352550D01*
X43810114Y-76370000D01*
X43795794Y-76387450D01*
X43765430Y-76444257D01*
X43746732Y-76505897D01*
X43740418Y-76570000D01*
X43740418Y-77670000D01*
X43746732Y-77734103D01*
X43765430Y-77795743D01*
X43795794Y-77852550D01*
X43810114Y-77870000D01*
X43795794Y-77887450D01*
X43765430Y-77944257D01*
X43746732Y-78005897D01*
X43740418Y-78070000D01*
X43740418Y-79170000D01*
X43746732Y-79234103D01*
X43765430Y-79295743D01*
X43795794Y-79352550D01*
X43810114Y-79370000D01*
X43795794Y-79387450D01*
X43765430Y-79444257D01*
X43746732Y-79505897D01*
X43740418Y-79570000D01*
X43740418Y-80670000D01*
X43746732Y-80734103D01*
X43765430Y-80795743D01*
X43795794Y-80852550D01*
X43810114Y-80870000D01*
X43795794Y-80887450D01*
X43765430Y-80944257D01*
X43746732Y-81005897D01*
X43740418Y-81070000D01*
X43740418Y-82170000D01*
X43746732Y-82234103D01*
X43765430Y-82295743D01*
X43795794Y-82352550D01*
X43810114Y-82370000D01*
X43795794Y-82387450D01*
X43765430Y-82444257D01*
X43746732Y-82505897D01*
X43740418Y-82570000D01*
X43740418Y-83670000D01*
X43746732Y-83734103D01*
X43765430Y-83795743D01*
X43795794Y-83852550D01*
X43810114Y-83870000D01*
X43795794Y-83887450D01*
X43765430Y-83944257D01*
X43746732Y-84005897D01*
X43740418Y-84070000D01*
X43740418Y-85170000D01*
X43746732Y-85234103D01*
X43765430Y-85295743D01*
X43795794Y-85352550D01*
X43810114Y-85370000D01*
X43795794Y-85387450D01*
X43765430Y-85444257D01*
X43746732Y-85505897D01*
X43740418Y-85570000D01*
X43740418Y-86670000D01*
X43746732Y-86734103D01*
X43765430Y-86795743D01*
X43795794Y-86852550D01*
X43810114Y-86870000D01*
X43795794Y-86887450D01*
X43765430Y-86944257D01*
X43746732Y-87005897D01*
X43740418Y-87070000D01*
X43740418Y-88170000D01*
X43746732Y-88234103D01*
X43765430Y-88295743D01*
X43795794Y-88352550D01*
X43810114Y-88370000D01*
X43795794Y-88387450D01*
X43765430Y-88444257D01*
X43746732Y-88505897D01*
X43740418Y-88570000D01*
X43740418Y-89670000D01*
X43746732Y-89734103D01*
X43765430Y-89795743D01*
X43795794Y-89852550D01*
X43836657Y-89902343D01*
X43886450Y-89943206D01*
X43943257Y-89973570D01*
X44004897Y-89992268D01*
X44069000Y-89998582D01*
X45593000Y-89998582D01*
X45657103Y-89992268D01*
X45718743Y-89973570D01*
X45775550Y-89943206D01*
X45825343Y-89902343D01*
X45866206Y-89852550D01*
X45896570Y-89795743D01*
X45915178Y-89734401D01*
X52668486Y-96487711D01*
X52665306Y-96520000D01*
X52688031Y-96750732D01*
X52755333Y-96972597D01*
X52864626Y-97177070D01*
X53011709Y-97356291D01*
X53190930Y-97503374D01*
X53395403Y-97612667D01*
X53617268Y-97679969D01*
X53790188Y-97697000D01*
X53905812Y-97697000D01*
X54078732Y-97679969D01*
X54300597Y-97612667D01*
X54505070Y-97503374D01*
X54684291Y-97356291D01*
X54831374Y-97177070D01*
X54940667Y-96972597D01*
X55007969Y-96750732D01*
X55030694Y-96520000D01*
X55007969Y-96289268D01*
X54940667Y-96067403D01*
X54831374Y-95862930D01*
X54684291Y-95683709D01*
X54505070Y-95536626D01*
X54300597Y-95427333D01*
X54078732Y-95360031D01*
X53905812Y-95343000D01*
X53790188Y-95343000D01*
X53617268Y-95360031D01*
X53395403Y-95427333D01*
X53190930Y-95536626D01*
X53083784Y-95624559D01*
X46376923Y-88917700D01*
X46362759Y-88900441D01*
X46293933Y-88843957D01*
X46215410Y-88801986D01*
X46130207Y-88776140D01*
X46063805Y-88769600D01*
X46041600Y-88767413D01*
X46019395Y-88769600D01*
X45921582Y-88769600D01*
X45921582Y-88570000D01*
X45915268Y-88505897D01*
X45896570Y-88444257D01*
X45866206Y-88387450D01*
X45851886Y-88370000D01*
X45866206Y-88352550D01*
X45896570Y-88295743D01*
X45915268Y-88234103D01*
X45921227Y-88173600D01*
X46894377Y-88173600D01*
X52668486Y-93947711D01*
X52665306Y-93980000D01*
X52688031Y-94210732D01*
X52755333Y-94432597D01*
X52864626Y-94637070D01*
X53011709Y-94816291D01*
X53190930Y-94963374D01*
X53395403Y-95072667D01*
X53617268Y-95139969D01*
X53790188Y-95157000D01*
X53905812Y-95157000D01*
X54078732Y-95139969D01*
X54300597Y-95072667D01*
X54505070Y-94963374D01*
X54684291Y-94816291D01*
X54831374Y-94637070D01*
X54940667Y-94432597D01*
X55007969Y-94210732D01*
X55030694Y-93980000D01*
X55007969Y-93749268D01*
X54940667Y-93527403D01*
X54831374Y-93322930D01*
X54684291Y-93143709D01*
X54505070Y-92996626D01*
X54300597Y-92887333D01*
X54078732Y-92820031D01*
X53905812Y-92803000D01*
X53790188Y-92803000D01*
X53617268Y-92820031D01*
X53395403Y-92887333D01*
X53190930Y-92996626D01*
X53083784Y-93084559D01*
X47416923Y-87417700D01*
X47402759Y-87400441D01*
X47333933Y-87343957D01*
X47255410Y-87301986D01*
X47170207Y-87276140D01*
X47103805Y-87269600D01*
X47081600Y-87267413D01*
X47059395Y-87269600D01*
X45921582Y-87269600D01*
X45921582Y-87070000D01*
X45915268Y-87005897D01*
X45896570Y-86944257D01*
X45866206Y-86887450D01*
X45851886Y-86870000D01*
X45866206Y-86852550D01*
X45896570Y-86795743D01*
X45915268Y-86734103D01*
X45921227Y-86673600D01*
X47934377Y-86673600D01*
X52668486Y-91407710D01*
X52665306Y-91440000D01*
X52688031Y-91670732D01*
X52755333Y-91892597D01*
X52864626Y-92097070D01*
X53011709Y-92276291D01*
X53190930Y-92423374D01*
X53395403Y-92532667D01*
X53617268Y-92599969D01*
X53790188Y-92617000D01*
X53905812Y-92617000D01*
X54078732Y-92599969D01*
X54300597Y-92532667D01*
X54505070Y-92423374D01*
X54684291Y-92276291D01*
X54831374Y-92097070D01*
X54940667Y-91892597D01*
X55007969Y-91670732D01*
X55030694Y-91440000D01*
X55007969Y-91209268D01*
X54940667Y-90987403D01*
X54831374Y-90782930D01*
X54684291Y-90603709D01*
X54505070Y-90456626D01*
X54300597Y-90347333D01*
X54078732Y-90280031D01*
X53905812Y-90263000D01*
X53790188Y-90263000D01*
X53617268Y-90280031D01*
X53395403Y-90347333D01*
X53190930Y-90456626D01*
X53083783Y-90544559D01*
X48456923Y-85917700D01*
X48442759Y-85900441D01*
X48373933Y-85843957D01*
X48295410Y-85801986D01*
X48210207Y-85776140D01*
X48143805Y-85769600D01*
X48121600Y-85767413D01*
X48099395Y-85769600D01*
X45921582Y-85769600D01*
X45921582Y-85570000D01*
X45915268Y-85505897D01*
X45896570Y-85444257D01*
X45866206Y-85387450D01*
X45851886Y-85370000D01*
X45866206Y-85352550D01*
X45896570Y-85295743D01*
X45915268Y-85234103D01*
X45921227Y-85173600D01*
X48974377Y-85173600D01*
X52668486Y-88867710D01*
X52665306Y-88900000D01*
X52688031Y-89130732D01*
X52755333Y-89352597D01*
X52864626Y-89557070D01*
X53011709Y-89736291D01*
X53190930Y-89883374D01*
X53395403Y-89992667D01*
X53617268Y-90059969D01*
X53790188Y-90077000D01*
X53905812Y-90077000D01*
X54078732Y-90059969D01*
X54300597Y-89992667D01*
X54505070Y-89883374D01*
X54684291Y-89736291D01*
X54831374Y-89557070D01*
X54940667Y-89352597D01*
X55007969Y-89130732D01*
X55030694Y-88900000D01*
X55007969Y-88669268D01*
X54940667Y-88447403D01*
X54831374Y-88242930D01*
X54684291Y-88063709D01*
X54505070Y-87916626D01*
X54300597Y-87807333D01*
X54078732Y-87740031D01*
X53905812Y-87723000D01*
X53790188Y-87723000D01*
X53617268Y-87740031D01*
X53395403Y-87807333D01*
X53190930Y-87916626D01*
X53083783Y-88004559D01*
X49496923Y-84417700D01*
X49482759Y-84400441D01*
X49413933Y-84343957D01*
X49335410Y-84301986D01*
X49250207Y-84276140D01*
X49183805Y-84269600D01*
X49161600Y-84267413D01*
X49139395Y-84269600D01*
X45921582Y-84269600D01*
X45921582Y-84070000D01*
X45915268Y-84005897D01*
X45896570Y-83944257D01*
X45866206Y-83887450D01*
X45851886Y-83870000D01*
X45866206Y-83852550D01*
X45896570Y-83795743D01*
X45915268Y-83734103D01*
X45921227Y-83673600D01*
X50014377Y-83673600D01*
X52668486Y-86327710D01*
X52665306Y-86360000D01*
X52688031Y-86590732D01*
X52755333Y-86812597D01*
X52864626Y-87017070D01*
X53011709Y-87196291D01*
X53190930Y-87343374D01*
X53395403Y-87452667D01*
X53617268Y-87519969D01*
X53790188Y-87537000D01*
X53905812Y-87537000D01*
X54078732Y-87519969D01*
X54300597Y-87452667D01*
X54505070Y-87343374D01*
X54684291Y-87196291D01*
X54831374Y-87017070D01*
X54940667Y-86812597D01*
X55007969Y-86590732D01*
X55030694Y-86360000D01*
X55007969Y-86129268D01*
X54940667Y-85907403D01*
X54831374Y-85702930D01*
X54684291Y-85523709D01*
X54505070Y-85376626D01*
X54300597Y-85267333D01*
X54078732Y-85200031D01*
X53905812Y-85183000D01*
X53790188Y-85183000D01*
X53617268Y-85200031D01*
X53395403Y-85267333D01*
X53190930Y-85376626D01*
X53083783Y-85464559D01*
X50536923Y-82917700D01*
X50522759Y-82900441D01*
X50453933Y-82843957D01*
X50375410Y-82801986D01*
X50290207Y-82776140D01*
X50223805Y-82769600D01*
X50201600Y-82767413D01*
X50179395Y-82769600D01*
X45921582Y-82769600D01*
X45921582Y-82570000D01*
X45915268Y-82505897D01*
X45896570Y-82444257D01*
X45866206Y-82387450D01*
X45851886Y-82370000D01*
X45866206Y-82352550D01*
X45896570Y-82295743D01*
X45915268Y-82234103D01*
X45921227Y-82173600D01*
X51054377Y-82173600D01*
X52668486Y-83787710D01*
X52665306Y-83820000D01*
X52688031Y-84050732D01*
X52755333Y-84272597D01*
X52864626Y-84477070D01*
X53011709Y-84656291D01*
X53190930Y-84803374D01*
X53395403Y-84912667D01*
X53617268Y-84979969D01*
X53790188Y-84997000D01*
X53905812Y-84997000D01*
X54078732Y-84979969D01*
X54300597Y-84912667D01*
X54505070Y-84803374D01*
X54684291Y-84656291D01*
X54831374Y-84477070D01*
X54940667Y-84272597D01*
X55007969Y-84050732D01*
X55030694Y-83820000D01*
X55007969Y-83589268D01*
X54940667Y-83367403D01*
X54831374Y-83162930D01*
X54684291Y-82983709D01*
X54505070Y-82836626D01*
X54300597Y-82727333D01*
X54078732Y-82660031D01*
X53905812Y-82643000D01*
X53790188Y-82643000D01*
X53617268Y-82660031D01*
X53395403Y-82727333D01*
X53190930Y-82836626D01*
X53083783Y-82924559D01*
X51576923Y-81417700D01*
X51562759Y-81400441D01*
X51493933Y-81343957D01*
X51415410Y-81301986D01*
X51330207Y-81276140D01*
X51263805Y-81269600D01*
X51241600Y-81267413D01*
X51219395Y-81269600D01*
X45921582Y-81269600D01*
X45921582Y-81070000D01*
X45915268Y-81005897D01*
X45896570Y-80944257D01*
X45866206Y-80887450D01*
X45851886Y-80870000D01*
X45866206Y-80852550D01*
X45896570Y-80795743D01*
X45915268Y-80734103D01*
X45921227Y-80673600D01*
X52094377Y-80673600D01*
X52668486Y-81247710D01*
X52665306Y-81280000D01*
X52688031Y-81510732D01*
X52755333Y-81732597D01*
X52864626Y-81937070D01*
X53011709Y-82116291D01*
X53190930Y-82263374D01*
X53395403Y-82372667D01*
X53617268Y-82439969D01*
X53790188Y-82457000D01*
X53905812Y-82457000D01*
X54078732Y-82439969D01*
X54300597Y-82372667D01*
X54505070Y-82263374D01*
X54684291Y-82116291D01*
X54831374Y-81937070D01*
X54940667Y-81732597D01*
X55007969Y-81510732D01*
X55030694Y-81280000D01*
X55007969Y-81049268D01*
X54940667Y-80827403D01*
X54831374Y-80622930D01*
X54684291Y-80443709D01*
X54505070Y-80296626D01*
X54300597Y-80187333D01*
X54078732Y-80120031D01*
X53905812Y-80103000D01*
X53790188Y-80103000D01*
X53617268Y-80120031D01*
X53395403Y-80187333D01*
X53190930Y-80296626D01*
X53083783Y-80384559D01*
X52616923Y-79917700D01*
X52602759Y-79900441D01*
X52533933Y-79843957D01*
X52455410Y-79801986D01*
X52370207Y-79776140D01*
X52303805Y-79769600D01*
X52281600Y-79767413D01*
X52259395Y-79769600D01*
X45921582Y-79769600D01*
X45921582Y-79570000D01*
X45915268Y-79505897D01*
X45896570Y-79444257D01*
X45866206Y-79387450D01*
X45851886Y-79370000D01*
X45866206Y-79352550D01*
X45896570Y-79295743D01*
X45915268Y-79234103D01*
X45921227Y-79173600D01*
X52749570Y-79173600D01*
X52755333Y-79192597D01*
X52864626Y-79397070D01*
X53011709Y-79576291D01*
X53190930Y-79723374D01*
X53395403Y-79832667D01*
X53617268Y-79899969D01*
X53790188Y-79917000D01*
X53905812Y-79917000D01*
X54078732Y-79899969D01*
X54300597Y-79832667D01*
X54505070Y-79723374D01*
X54684291Y-79576291D01*
X54831374Y-79397070D01*
X54940667Y-79192597D01*
X55007969Y-78970732D01*
X55030694Y-78740000D01*
X55007969Y-78509268D01*
X54940667Y-78287403D01*
X54831374Y-78082930D01*
X54684291Y-77903709D01*
X54505070Y-77756626D01*
X54300597Y-77647333D01*
X54078732Y-77580031D01*
X53905812Y-77563000D01*
X53790188Y-77563000D01*
X53617268Y-77580031D01*
X53395403Y-77647333D01*
X53190930Y-77756626D01*
X53011709Y-77903709D01*
X52864626Y-78082930D01*
X52764849Y-78269600D01*
X45921582Y-78269600D01*
X45921582Y-78070000D01*
X45915268Y-78005897D01*
X45896570Y-77944257D01*
X45866206Y-77887450D01*
X45851886Y-77870000D01*
X45866206Y-77852550D01*
X45896570Y-77795743D01*
X45915268Y-77734103D01*
X45921227Y-77673600D01*
X52296195Y-77673600D01*
X52318400Y-77675787D01*
X52340605Y-77673600D01*
X52407007Y-77667060D01*
X52492210Y-77641214D01*
X52570733Y-77599243D01*
X52639559Y-77542759D01*
X52653723Y-77525500D01*
X53083783Y-77095441D01*
X53190930Y-77183374D01*
X53395403Y-77292667D01*
X53617268Y-77359969D01*
X53790188Y-77377000D01*
X53905812Y-77377000D01*
X54078732Y-77359969D01*
X54300597Y-77292667D01*
X54505070Y-77183374D01*
X54684291Y-77036291D01*
X54831374Y-76857070D01*
X54940667Y-76652597D01*
X55007969Y-76430732D01*
X55030694Y-76200000D01*
X55007969Y-75969268D01*
X54940667Y-75747403D01*
X54831374Y-75542930D01*
X54684291Y-75363709D01*
X54505070Y-75216626D01*
X54300597Y-75107333D01*
X54078732Y-75040031D01*
X53905812Y-75023000D01*
X53790188Y-75023000D01*
X53617268Y-75040031D01*
X53395403Y-75107333D01*
X53190930Y-75216626D01*
X53011709Y-75363709D01*
X52864626Y-75542930D01*
X52755333Y-75747403D01*
X52688031Y-75969268D01*
X52665306Y-76200000D01*
X52668486Y-76232290D01*
X52131177Y-76769600D01*
X45921582Y-76769600D01*
X45921582Y-76570000D01*
X45915268Y-76505897D01*
X45896570Y-76444257D01*
X45866206Y-76387450D01*
X45851886Y-76370000D01*
X45866206Y-76352550D01*
X45896570Y-76295743D01*
X45915268Y-76234103D01*
X45921227Y-76173600D01*
X51256195Y-76173600D01*
X51278400Y-76175787D01*
X51300605Y-76173600D01*
X51367007Y-76167060D01*
X51452210Y-76141214D01*
X51530733Y-76099243D01*
X51599559Y-76042759D01*
X51613723Y-76025500D01*
X53083783Y-74555441D01*
X53190930Y-74643374D01*
X53395403Y-74752667D01*
X53617268Y-74819969D01*
X53790188Y-74837000D01*
X53905812Y-74837000D01*
X54078732Y-74819969D01*
X54300597Y-74752667D01*
X54505070Y-74643374D01*
X54684291Y-74496291D01*
X54831374Y-74317070D01*
X54940667Y-74112597D01*
X55007969Y-73890732D01*
X55030694Y-73660000D01*
X55007969Y-73429268D01*
X54940667Y-73207403D01*
X54831374Y-73002930D01*
X54684291Y-72823709D01*
X54505070Y-72676626D01*
X54300597Y-72567333D01*
X54078732Y-72500031D01*
X53905812Y-72483000D01*
X53790188Y-72483000D01*
X53617268Y-72500031D01*
X53395403Y-72567333D01*
X53190930Y-72676626D01*
X53011709Y-72823709D01*
X52864626Y-73002930D01*
X52755333Y-73207403D01*
X52688031Y-73429268D01*
X52665306Y-73660000D01*
X52668486Y-73692290D01*
X51091177Y-75269600D01*
X45921582Y-75269600D01*
X45921582Y-75070000D01*
X45915268Y-75005897D01*
X45896570Y-74944257D01*
X45866206Y-74887450D01*
X45851886Y-74870000D01*
X45866206Y-74852550D01*
X45896570Y-74795743D01*
X45915268Y-74734103D01*
X45921227Y-74673600D01*
X50216195Y-74673600D01*
X50238400Y-74675787D01*
X50260605Y-74673600D01*
X50327007Y-74667060D01*
X50412210Y-74641214D01*
X50490733Y-74599243D01*
X50559559Y-74542759D01*
X50573723Y-74525500D01*
X53083783Y-72015441D01*
X53190930Y-72103374D01*
X53395403Y-72212667D01*
X53617268Y-72279969D01*
X53790188Y-72297000D01*
X53905812Y-72297000D01*
X54078732Y-72279969D01*
X54300597Y-72212667D01*
X54505070Y-72103374D01*
X54684291Y-71956291D01*
X54831374Y-71777070D01*
X54940667Y-71572597D01*
X55007969Y-71350732D01*
X55030694Y-71120000D01*
X55007969Y-70889268D01*
X54940667Y-70667403D01*
X54831374Y-70462930D01*
X54684291Y-70283709D01*
X54505070Y-70136626D01*
X54300597Y-70027333D01*
X54078732Y-69960031D01*
X53905812Y-69943000D01*
X53790188Y-69943000D01*
X53617268Y-69960031D01*
X53395403Y-70027333D01*
X53190930Y-70136626D01*
X53011709Y-70283709D01*
X52864626Y-70462930D01*
X52755333Y-70667403D01*
X52688031Y-70889268D01*
X52665306Y-71120000D01*
X52668486Y-71152290D01*
X50051177Y-73769600D01*
X45921582Y-73769600D01*
X45921582Y-73570000D01*
X45915268Y-73505897D01*
X45896570Y-73444257D01*
X45866206Y-73387450D01*
X45851886Y-73370000D01*
X45866206Y-73352550D01*
X45896570Y-73295743D01*
X45915268Y-73234103D01*
X45921227Y-73173600D01*
X49176195Y-73173600D01*
X49198400Y-73175787D01*
X49220605Y-73173600D01*
X49287007Y-73167060D01*
X49372210Y-73141214D01*
X49450733Y-73099243D01*
X49519559Y-73042759D01*
X49533723Y-73025500D01*
X53083783Y-69475441D01*
X53190930Y-69563374D01*
X53395403Y-69672667D01*
X53617268Y-69739969D01*
X53790188Y-69757000D01*
X53905812Y-69757000D01*
X54078732Y-69739969D01*
X54300597Y-69672667D01*
X54505070Y-69563374D01*
X54684291Y-69416291D01*
X54831374Y-69237070D01*
X54940667Y-69032597D01*
X55007969Y-68810732D01*
X55030694Y-68580000D01*
X55007969Y-68349268D01*
X54940667Y-68127403D01*
X54831374Y-67922930D01*
X54684291Y-67743709D01*
X54505070Y-67596626D01*
X54300597Y-67487333D01*
X54078732Y-67420031D01*
X53905812Y-67403000D01*
X53790188Y-67403000D01*
X53617268Y-67420031D01*
X53395403Y-67487333D01*
X53190930Y-67596626D01*
X53011709Y-67743709D01*
X52864626Y-67922930D01*
X52755333Y-68127403D01*
X52688031Y-68349268D01*
X52665306Y-68580000D01*
X52668486Y-68612290D01*
X49011177Y-72269600D01*
X45921582Y-72269600D01*
X45921582Y-72070000D01*
X45915268Y-72005897D01*
X45896570Y-71944257D01*
X45866206Y-71887450D01*
X45851886Y-71870000D01*
X45866206Y-71852550D01*
X45896570Y-71795743D01*
X45915268Y-71734103D01*
X45921227Y-71673600D01*
X48136195Y-71673600D01*
X48158400Y-71675787D01*
X48180605Y-71673600D01*
X48247007Y-71667060D01*
X48332210Y-71641214D01*
X48410733Y-71599243D01*
X48479559Y-71542759D01*
X48493723Y-71525500D01*
X52841887Y-67177337D01*
X52872257Y-67193570D01*
X52933897Y-67212268D01*
X52998000Y-67218582D01*
X54698000Y-67218582D01*
X54762103Y-67212268D01*
X54823743Y-67193570D01*
X54880550Y-67163206D01*
X54930343Y-67122343D01*
X54971206Y-67072550D01*
X55001570Y-67015743D01*
X55020268Y-66954103D01*
X55026582Y-66890000D01*
X55026582Y-65190000D01*
X55020268Y-65125897D01*
X55001570Y-65064257D01*
X54971206Y-65007450D01*
X54930343Y-64957657D01*
X54880550Y-64916794D01*
X54823743Y-64886430D01*
X54762103Y-64867732D01*
X54698000Y-64861418D01*
X52998000Y-64861418D01*
X52933897Y-64867732D01*
X52872257Y-64886430D01*
X52815450Y-64916794D01*
X52765657Y-64957657D01*
X52724794Y-65007450D01*
X52694430Y-65064257D01*
X52675732Y-65125897D01*
X52669418Y-65190000D01*
X52669418Y-66071358D01*
X47971177Y-70769600D01*
X45921582Y-70769600D01*
X45921582Y-70570000D01*
X45915268Y-70505897D01*
X45896570Y-70444257D01*
X45866206Y-70387450D01*
X45847000Y-70364047D01*
X45847000Y-64395000D01*
X55493001Y-64395000D01*
X55493000Y-108833000D01*
X20707000Y-108833000D01*
X20707000Y-99060000D01*
X21169306Y-99060000D01*
X21192031Y-99290732D01*
X21259333Y-99512597D01*
X21368626Y-99717070D01*
X21515709Y-99896291D01*
X21694930Y-100043374D01*
X21899403Y-100152667D01*
X22121268Y-100219969D01*
X22294188Y-100237000D01*
X22409812Y-100237000D01*
X22582732Y-100219969D01*
X22804597Y-100152667D01*
X23009070Y-100043374D01*
X23188291Y-99896291D01*
X23335374Y-99717070D01*
X23444667Y-99512597D01*
X23511969Y-99290732D01*
X23534694Y-99060000D01*
X23531767Y-99030285D01*
X30820453Y-91741600D01*
X31971418Y-91741600D01*
X31971418Y-91948000D01*
X31977732Y-92012103D01*
X31996430Y-92073743D01*
X32026794Y-92130550D01*
X32067657Y-92180343D01*
X32117450Y-92221206D01*
X32174257Y-92251570D01*
X32235897Y-92270268D01*
X32300000Y-92276582D01*
X33400000Y-92276582D01*
X33464103Y-92270268D01*
X33525743Y-92251570D01*
X33582550Y-92221206D01*
X33600000Y-92206886D01*
X33617450Y-92221206D01*
X33626652Y-92226124D01*
X25542519Y-100310258D01*
X25526737Y-100323210D01*
X24703948Y-101146000D01*
X23443917Y-101146000D01*
X23335374Y-100942930D01*
X23188291Y-100763709D01*
X23009070Y-100616626D01*
X22804597Y-100507333D01*
X22582732Y-100440031D01*
X22409812Y-100423000D01*
X22294188Y-100423000D01*
X22121268Y-100440031D01*
X21899403Y-100507333D01*
X21694930Y-100616626D01*
X21515709Y-100763709D01*
X21368626Y-100942930D01*
X21259333Y-101147403D01*
X21192031Y-101369268D01*
X21169306Y-101600000D01*
X21192031Y-101830732D01*
X21259333Y-102052597D01*
X21368626Y-102257070D01*
X21515709Y-102436291D01*
X21694930Y-102583374D01*
X21899403Y-102692667D01*
X22121268Y-102759969D01*
X22294188Y-102777000D01*
X22409812Y-102777000D01*
X22582732Y-102759969D01*
X22804597Y-102692667D01*
X23009070Y-102583374D01*
X23188291Y-102436291D01*
X23335374Y-102257070D01*
X23443917Y-102054000D01*
X24869712Y-102054000D01*
X24892000Y-102056195D01*
X24914288Y-102054000D01*
X24914295Y-102054000D01*
X24980999Y-102047430D01*
X25066579Y-102021470D01*
X25145449Y-101979313D01*
X25214579Y-101922579D01*
X25228794Y-101905258D01*
X26168790Y-100965263D01*
X26181742Y-100949481D01*
X34854642Y-92276582D01*
X34900000Y-92276582D01*
X34964103Y-92270268D01*
X35025743Y-92251570D01*
X35082550Y-92221206D01*
X35100000Y-92206886D01*
X35117450Y-92221206D01*
X35174257Y-92251570D01*
X35235897Y-92270268D01*
X35300000Y-92276582D01*
X35608193Y-92276582D01*
X24196777Y-103688000D01*
X23444848Y-103688000D01*
X23444667Y-103687403D01*
X23335374Y-103482930D01*
X23188291Y-103303709D01*
X23009070Y-103156626D01*
X22804597Y-103047333D01*
X22582732Y-102980031D01*
X22409812Y-102963000D01*
X22294188Y-102963000D01*
X22121268Y-102980031D01*
X21899403Y-103047333D01*
X21694930Y-103156626D01*
X21515709Y-103303709D01*
X21368626Y-103482930D01*
X21259333Y-103687403D01*
X21192031Y-103909268D01*
X21169306Y-104140000D01*
X21192031Y-104370732D01*
X21259333Y-104592597D01*
X21368626Y-104797070D01*
X21515709Y-104976291D01*
X21694930Y-105123374D01*
X21899403Y-105232667D01*
X22121268Y-105299969D01*
X22294188Y-105317000D01*
X22409812Y-105317000D01*
X22582732Y-105299969D01*
X22804597Y-105232667D01*
X23009070Y-105123374D01*
X23188291Y-104976291D01*
X23335374Y-104797070D01*
X23444667Y-104592597D01*
X23444848Y-104592000D01*
X24361795Y-104592000D01*
X24384000Y-104594187D01*
X24406205Y-104592000D01*
X24472607Y-104585460D01*
X24557810Y-104559614D01*
X24636333Y-104517643D01*
X24705159Y-104461159D01*
X24719323Y-104443900D01*
X36371912Y-92791313D01*
X36389159Y-92777159D01*
X36445643Y-92708333D01*
X36487614Y-92629810D01*
X36513460Y-92544607D01*
X36514636Y-92532667D01*
X36522187Y-92456001D01*
X36520000Y-92433795D01*
X36520000Y-92253312D01*
X36525743Y-92251570D01*
X36582550Y-92221206D01*
X36600000Y-92206886D01*
X36617450Y-92221206D01*
X36674257Y-92251570D01*
X36735897Y-92270268D01*
X36800000Y-92276582D01*
X37140000Y-92276582D01*
X37140000Y-92776776D01*
X24526519Y-105390258D01*
X24510737Y-105403210D01*
X23687948Y-106226000D01*
X23443917Y-106226000D01*
X23335374Y-106022930D01*
X23188291Y-105843709D01*
X23009070Y-105696626D01*
X22804597Y-105587333D01*
X22582732Y-105520031D01*
X22409812Y-105503000D01*
X22294188Y-105503000D01*
X22121268Y-105520031D01*
X21899403Y-105587333D01*
X21694930Y-105696626D01*
X21515709Y-105843709D01*
X21368626Y-106022930D01*
X21259333Y-106227403D01*
X21192031Y-106449268D01*
X21169306Y-106680000D01*
X21192031Y-106910732D01*
X21259333Y-107132597D01*
X21368626Y-107337070D01*
X21515709Y-107516291D01*
X21694930Y-107663374D01*
X21899403Y-107772667D01*
X22121268Y-107839969D01*
X22294188Y-107857000D01*
X22409812Y-107857000D01*
X22582732Y-107839969D01*
X22804597Y-107772667D01*
X23009070Y-107663374D01*
X23188291Y-107516291D01*
X23335374Y-107337070D01*
X23443917Y-107134000D01*
X23853712Y-107134000D01*
X23876000Y-107136195D01*
X23898288Y-107134000D01*
X23898295Y-107134000D01*
X23964999Y-107127430D01*
X24050579Y-107101470D01*
X24129449Y-107059313D01*
X24198579Y-107002579D01*
X24212794Y-106985258D01*
X25152790Y-106045263D01*
X25165742Y-106029481D01*
X37895906Y-93299318D01*
X37913159Y-93285159D01*
X37969643Y-93216333D01*
X38011614Y-93137810D01*
X38015021Y-93126578D01*
X38037460Y-93052608D01*
X38046187Y-92964000D01*
X38044000Y-92941795D01*
X38044000Y-92241811D01*
X38082550Y-92221206D01*
X38100000Y-92206886D01*
X38117450Y-92221206D01*
X38174257Y-92251570D01*
X38235897Y-92270268D01*
X38300000Y-92276582D01*
X38396001Y-92276582D01*
X38396001Y-92929702D01*
X38393805Y-92952000D01*
X38402570Y-93040999D01*
X38428530Y-93126578D01*
X38434534Y-93137810D01*
X38470688Y-93205449D01*
X38527422Y-93274579D01*
X38544738Y-93288790D01*
X52241210Y-106985263D01*
X52255421Y-107002579D01*
X52324551Y-107059313D01*
X52399949Y-107099614D01*
X52403421Y-107101470D01*
X52489000Y-107127430D01*
X52497421Y-107128259D01*
X52555705Y-107134000D01*
X52555712Y-107134000D01*
X52578000Y-107136195D01*
X52600288Y-107134000D01*
X52756083Y-107134000D01*
X52864626Y-107337070D01*
X53011709Y-107516291D01*
X53190930Y-107663374D01*
X53395403Y-107772667D01*
X53617268Y-107839969D01*
X53790188Y-107857000D01*
X53905812Y-107857000D01*
X54078732Y-107839969D01*
X54300597Y-107772667D01*
X54505070Y-107663374D01*
X54684291Y-107516291D01*
X54831374Y-107337070D01*
X54940667Y-107132597D01*
X55007969Y-106910732D01*
X55030694Y-106680000D01*
X55007969Y-106449268D01*
X54940667Y-106227403D01*
X54831374Y-106022930D01*
X54684291Y-105843709D01*
X54505070Y-105696626D01*
X54300597Y-105587333D01*
X54078732Y-105520031D01*
X53905812Y-105503000D01*
X53790188Y-105503000D01*
X53617268Y-105520031D01*
X53483199Y-105560700D01*
X53428606Y-105544140D01*
X53340000Y-105535413D01*
X53251393Y-105544140D01*
X53166190Y-105569986D01*
X53087667Y-105611957D01*
X53018841Y-105668441D01*
X52962357Y-105737268D01*
X52920386Y-105815791D01*
X52894540Y-105900994D01*
X52888000Y-105967396D01*
X52888000Y-105994449D01*
X52864626Y-106022930D01*
X52759556Y-106219503D01*
X39304000Y-92763948D01*
X39304000Y-92276582D01*
X39400000Y-92276582D01*
X39464103Y-92270268D01*
X39525743Y-92251570D01*
X39582550Y-92221206D01*
X39600000Y-92206886D01*
X39617450Y-92221206D01*
X39674257Y-92251570D01*
X39735897Y-92270268D01*
X39800000Y-92276582D01*
X40054400Y-92276582D01*
X40054400Y-92808195D01*
X40052213Y-92830400D01*
X40060940Y-92919007D01*
X40086786Y-93004209D01*
X40086787Y-93004210D01*
X40128758Y-93082733D01*
X40185242Y-93151559D01*
X40202496Y-93165719D01*
X51480681Y-104443905D01*
X51494841Y-104461159D01*
X51563667Y-104517643D01*
X51642190Y-104559614D01*
X51727392Y-104585460D01*
X51816000Y-104594187D01*
X51838205Y-104592000D01*
X52755152Y-104592000D01*
X52755333Y-104592597D01*
X52864626Y-104797070D01*
X53011709Y-104976291D01*
X53190930Y-105123374D01*
X53395403Y-105232667D01*
X53617268Y-105299969D01*
X53790188Y-105317000D01*
X53905812Y-105317000D01*
X54078732Y-105299969D01*
X54300597Y-105232667D01*
X54505070Y-105123374D01*
X54684291Y-104976291D01*
X54831374Y-104797070D01*
X54940667Y-104592597D01*
X55007969Y-104370732D01*
X55030694Y-104140000D01*
X55007969Y-103909268D01*
X54940667Y-103687403D01*
X54831374Y-103482930D01*
X54684291Y-103303709D01*
X54505070Y-103156626D01*
X54300597Y-103047333D01*
X54078732Y-102980031D01*
X53905812Y-102963000D01*
X53790188Y-102963000D01*
X53617268Y-102980031D01*
X53395403Y-103047333D01*
X53190930Y-103156626D01*
X53011709Y-103303709D01*
X52864626Y-103482930D01*
X52755333Y-103687403D01*
X52755152Y-103688000D01*
X52003224Y-103688000D01*
X40958400Y-92643177D01*
X40958400Y-92270830D01*
X40964103Y-92270268D01*
X41025743Y-92251570D01*
X41082550Y-92221206D01*
X41100000Y-92206886D01*
X41117450Y-92221206D01*
X41174257Y-92251570D01*
X41235897Y-92270268D01*
X41300000Y-92276582D01*
X41398001Y-92276582D01*
X41398001Y-92277385D01*
X41395813Y-92299600D01*
X41404540Y-92388207D01*
X41430386Y-92473409D01*
X41454509Y-92518540D01*
X41472358Y-92551933D01*
X41528842Y-92620759D01*
X41546096Y-92634919D01*
X50815081Y-101903905D01*
X50829241Y-101921159D01*
X50898067Y-101977643D01*
X50976590Y-102019614D01*
X51061792Y-102045460D01*
X51150400Y-102054187D01*
X51172605Y-102052000D01*
X52755152Y-102052000D01*
X52755333Y-102052597D01*
X52864626Y-102257070D01*
X53011709Y-102436291D01*
X53190930Y-102583374D01*
X53395403Y-102692667D01*
X53617268Y-102759969D01*
X53790188Y-102777000D01*
X53905812Y-102777000D01*
X54078732Y-102759969D01*
X54300597Y-102692667D01*
X54505070Y-102583374D01*
X54684291Y-102436291D01*
X54831374Y-102257070D01*
X54940667Y-102052597D01*
X55007969Y-101830732D01*
X55030694Y-101600000D01*
X55007969Y-101369268D01*
X54940667Y-101147403D01*
X54831374Y-100942930D01*
X54684291Y-100763709D01*
X54505070Y-100616626D01*
X54300597Y-100507333D01*
X54078732Y-100440031D01*
X53905812Y-100423000D01*
X53790188Y-100423000D01*
X53617268Y-100440031D01*
X53395403Y-100507333D01*
X53190930Y-100616626D01*
X53011709Y-100763709D01*
X52864626Y-100942930D01*
X52755333Y-101147403D01*
X52755152Y-101148000D01*
X51337624Y-101148000D01*
X42460269Y-92270646D01*
X42464103Y-92270268D01*
X42525743Y-92251570D01*
X42582550Y-92221206D01*
X42600000Y-92206886D01*
X42617450Y-92221206D01*
X42674257Y-92251570D01*
X42735897Y-92270268D01*
X42800000Y-92276582D01*
X43900000Y-92276582D01*
X43964103Y-92270268D01*
X44025743Y-92251570D01*
X44082550Y-92221206D01*
X44132343Y-92180343D01*
X44173206Y-92130550D01*
X44203570Y-92073743D01*
X44222268Y-92012103D01*
X44228582Y-91948000D01*
X44228582Y-91741600D01*
X45379548Y-91741600D01*
X52668233Y-99030286D01*
X52665306Y-99060000D01*
X52688031Y-99290732D01*
X52755333Y-99512597D01*
X52864626Y-99717070D01*
X53011709Y-99896291D01*
X53190930Y-100043374D01*
X53395403Y-100152667D01*
X53617268Y-100219969D01*
X53790188Y-100237000D01*
X53905812Y-100237000D01*
X54078732Y-100219969D01*
X54300597Y-100152667D01*
X54505070Y-100043374D01*
X54684291Y-99896291D01*
X54831374Y-99717070D01*
X54940667Y-99512597D01*
X55007969Y-99290732D01*
X55030694Y-99060000D01*
X55007969Y-98829268D01*
X54940667Y-98607403D01*
X54831374Y-98402930D01*
X54684291Y-98223709D01*
X54505070Y-98076626D01*
X54300597Y-97967333D01*
X54078732Y-97900031D01*
X53905812Y-97883000D01*
X53790188Y-97883000D01*
X53617268Y-97900031D01*
X53395403Y-97967333D01*
X53190930Y-98076626D01*
X53085337Y-98163284D01*
X45904395Y-90982343D01*
X45890179Y-90965021D01*
X45821049Y-90908287D01*
X45742179Y-90866130D01*
X45656599Y-90840170D01*
X45589895Y-90833600D01*
X45589888Y-90833600D01*
X45567600Y-90831405D01*
X45545312Y-90833600D01*
X44228582Y-90833600D01*
X44228582Y-90424000D01*
X44222268Y-90359897D01*
X44203570Y-90298257D01*
X44173206Y-90241450D01*
X44132343Y-90191657D01*
X44082550Y-90150794D01*
X44025743Y-90120430D01*
X43964103Y-90101732D01*
X43900000Y-90095418D01*
X42800000Y-90095418D01*
X42735897Y-90101732D01*
X42674257Y-90120430D01*
X42617450Y-90150794D01*
X42600000Y-90165114D01*
X42582550Y-90150794D01*
X42525743Y-90120430D01*
X42464103Y-90101732D01*
X42400000Y-90095418D01*
X41300000Y-90095418D01*
X41235897Y-90101732D01*
X41174257Y-90120430D01*
X41117450Y-90150794D01*
X41100000Y-90165114D01*
X41082550Y-90150794D01*
X41025743Y-90120430D01*
X40964103Y-90101732D01*
X40900000Y-90095418D01*
X39800000Y-90095418D01*
X39735897Y-90101732D01*
X39674257Y-90120430D01*
X39617450Y-90150794D01*
X39600000Y-90165114D01*
X39582550Y-90150794D01*
X39525743Y-90120430D01*
X39464103Y-90101732D01*
X39400000Y-90095418D01*
X38300000Y-90095418D01*
X38235897Y-90101732D01*
X38174257Y-90120430D01*
X38117450Y-90150794D01*
X38100000Y-90165114D01*
X38082550Y-90150794D01*
X38025743Y-90120430D01*
X37964103Y-90101732D01*
X37900000Y-90095418D01*
X36800000Y-90095418D01*
X36735897Y-90101732D01*
X36674257Y-90120430D01*
X36617450Y-90150794D01*
X36600000Y-90165114D01*
X36582550Y-90150794D01*
X36525743Y-90120430D01*
X36464103Y-90101732D01*
X36400000Y-90095418D01*
X35300000Y-90095418D01*
X35235897Y-90101732D01*
X35174257Y-90120430D01*
X35117450Y-90150794D01*
X35100000Y-90165114D01*
X35082550Y-90150794D01*
X35025743Y-90120430D01*
X34964103Y-90101732D01*
X34900000Y-90095418D01*
X33800000Y-90095418D01*
X33735897Y-90101732D01*
X33674257Y-90120430D01*
X33617450Y-90150794D01*
X33600000Y-90165114D01*
X33582550Y-90150794D01*
X33525743Y-90120430D01*
X33464103Y-90101732D01*
X33400000Y-90095418D01*
X32300000Y-90095418D01*
X32235897Y-90101732D01*
X32174257Y-90120430D01*
X32117450Y-90150794D01*
X32067657Y-90191657D01*
X32026794Y-90241450D01*
X31996430Y-90298257D01*
X31977732Y-90359897D01*
X31971418Y-90424000D01*
X31971418Y-90833600D01*
X30654684Y-90833600D01*
X30632399Y-90831405D01*
X30610114Y-90833600D01*
X30610105Y-90833600D01*
X30543401Y-90840170D01*
X30457821Y-90866130D01*
X30378951Y-90908287D01*
X30309821Y-90965021D01*
X30295610Y-90982337D01*
X23114664Y-98163284D01*
X23009070Y-98076626D01*
X22804597Y-97967333D01*
X22582732Y-97900031D01*
X22409812Y-97883000D01*
X22294188Y-97883000D01*
X22121268Y-97900031D01*
X21899403Y-97967333D01*
X21694930Y-98076626D01*
X21515709Y-98223709D01*
X21368626Y-98402930D01*
X21259333Y-98607403D01*
X21192031Y-98829268D01*
X21169306Y-99060000D01*
X20707000Y-99060000D01*
X20707000Y-64395000D01*
X30353000Y-64395000D01*
X30353000Y-70364047D01*
X30353000Y-70364047D01*
G37*
X30353000Y-70364047D02*
X30333794Y-70387450D01*
X30303430Y-70444257D01*
X30284732Y-70505897D01*
X30278418Y-70570000D01*
X30278418Y-70767600D01*
X28229653Y-70767600D01*
X23530582Y-66068530D01*
X23530582Y-65190000D01*
X23524268Y-65125897D01*
X23505570Y-65064257D01*
X23475206Y-65007450D01*
X23434343Y-64957657D01*
X23384550Y-64916794D01*
X23327743Y-64886430D01*
X23266103Y-64867732D01*
X23202000Y-64861418D01*
X21502000Y-64861418D01*
X21437897Y-64867732D01*
X21376257Y-64886430D01*
X21319450Y-64916794D01*
X21269657Y-64957657D01*
X21228794Y-65007450D01*
X21198430Y-65064257D01*
X21179732Y-65125897D01*
X21173418Y-65190000D01*
X21173418Y-66890000D01*
X21179732Y-66954103D01*
X21198430Y-67015743D01*
X21228794Y-67072550D01*
X21269657Y-67122343D01*
X21319450Y-67163206D01*
X21376257Y-67193570D01*
X21437897Y-67212268D01*
X21502000Y-67218582D01*
X23202000Y-67218582D01*
X23266103Y-67212268D01*
X23327743Y-67193570D01*
X23356270Y-67178322D01*
X27704810Y-71526863D01*
X27719021Y-71544179D01*
X27788151Y-71600913D01*
X27863549Y-71641214D01*
X27867021Y-71643070D01*
X27952600Y-71669030D01*
X27961021Y-71669859D01*
X28019305Y-71675600D01*
X28019312Y-71675600D01*
X28041600Y-71677795D01*
X28063888Y-71675600D01*
X30278970Y-71675600D01*
X30284732Y-71734103D01*
X30303430Y-71795743D01*
X30333794Y-71852550D01*
X30348114Y-71870000D01*
X30333794Y-71887450D01*
X30303430Y-71944257D01*
X30284732Y-72005897D01*
X30278418Y-72070000D01*
X30278418Y-72267600D01*
X27189653Y-72267600D01*
X23531767Y-68609715D01*
X23534694Y-68580000D01*
X23511969Y-68349268D01*
X23444667Y-68127403D01*
X23335374Y-67922930D01*
X23188291Y-67743709D01*
X23009070Y-67596626D01*
X22804597Y-67487333D01*
X22582732Y-67420031D01*
X22409812Y-67403000D01*
X22294188Y-67403000D01*
X22121268Y-67420031D01*
X21899403Y-67487333D01*
X21694930Y-67596626D01*
X21515709Y-67743709D01*
X21368626Y-67922930D01*
X21259333Y-68127403D01*
X21192031Y-68349268D01*
X21169306Y-68580000D01*
X21192031Y-68810732D01*
X21259333Y-69032597D01*
X21368626Y-69237070D01*
X21515709Y-69416291D01*
X21694930Y-69563374D01*
X21899403Y-69672667D01*
X22121268Y-69739969D01*
X22294188Y-69757000D01*
X22409812Y-69757000D01*
X22582732Y-69739969D01*
X22804597Y-69672667D01*
X23009070Y-69563374D01*
X23114663Y-69476716D01*
X26664810Y-73026863D01*
X26679021Y-73044179D01*
X26748151Y-73100913D01*
X26823549Y-73141214D01*
X26827021Y-73143070D01*
X26912600Y-73169030D01*
X26921021Y-73169859D01*
X26979305Y-73175600D01*
X26979312Y-73175600D01*
X27001600Y-73177795D01*
X27023888Y-73175600D01*
X30278970Y-73175600D01*
X30284732Y-73234103D01*
X30303430Y-73295743D01*
X30333794Y-73352550D01*
X30348114Y-73370000D01*
X30333794Y-73387450D01*
X30303430Y-73444257D01*
X30284732Y-73505897D01*
X30278418Y-73570000D01*
X30278418Y-73767600D01*
X26149653Y-73767600D01*
X23531767Y-71149715D01*
X23534694Y-71120000D01*
X23511969Y-70889268D01*
X23444667Y-70667403D01*
X23335374Y-70462930D01*
X23188291Y-70283709D01*
X23009070Y-70136626D01*
X22804597Y-70027333D01*
X22582732Y-69960031D01*
X22409812Y-69943000D01*
X22294188Y-69943000D01*
X22121268Y-69960031D01*
X21899403Y-70027333D01*
X21694930Y-70136626D01*
X21515709Y-70283709D01*
X21368626Y-70462930D01*
X21259333Y-70667403D01*
X21192031Y-70889268D01*
X21169306Y-71120000D01*
X21192031Y-71350732D01*
X21259333Y-71572597D01*
X21368626Y-71777070D01*
X21515709Y-71956291D01*
X21694930Y-72103374D01*
X21899403Y-72212667D01*
X22121268Y-72279969D01*
X22294188Y-72297000D01*
X22409812Y-72297000D01*
X22582732Y-72279969D01*
X22804597Y-72212667D01*
X23009070Y-72103374D01*
X23114663Y-72016716D01*
X25624810Y-74526863D01*
X25639021Y-74544179D01*
X25708151Y-74600913D01*
X25783549Y-74641214D01*
X25787021Y-74643070D01*
X25872600Y-74669030D01*
X25881021Y-74669859D01*
X25939305Y-74675600D01*
X25939312Y-74675600D01*
X25961600Y-74677795D01*
X25983888Y-74675600D01*
X30278970Y-74675600D01*
X30284732Y-74734103D01*
X30303430Y-74795743D01*
X30333794Y-74852550D01*
X30348114Y-74870000D01*
X30333794Y-74887450D01*
X30303430Y-74944257D01*
X30284732Y-75005897D01*
X30278418Y-75070000D01*
X30278418Y-75267600D01*
X25109653Y-75267600D01*
X23531767Y-73689715D01*
X23534694Y-73660000D01*
X23511969Y-73429268D01*
X23444667Y-73207403D01*
X23335374Y-73002930D01*
X23188291Y-72823709D01*
X23009070Y-72676626D01*
X22804597Y-72567333D01*
X22582732Y-72500031D01*
X22409812Y-72483000D01*
X22294188Y-72483000D01*
X22121268Y-72500031D01*
X21899403Y-72567333D01*
X21694930Y-72676626D01*
X21515709Y-72823709D01*
X21368626Y-73002930D01*
X21259333Y-73207403D01*
X21192031Y-73429268D01*
X21169306Y-73660000D01*
X21192031Y-73890732D01*
X21259333Y-74112597D01*
X21368626Y-74317070D01*
X21515709Y-74496291D01*
X21694930Y-74643374D01*
X21899403Y-74752667D01*
X22121268Y-74819969D01*
X22294188Y-74837000D01*
X22409812Y-74837000D01*
X22582732Y-74819969D01*
X22804597Y-74752667D01*
X23009070Y-74643374D01*
X23114663Y-74556716D01*
X24584810Y-76026863D01*
X24599021Y-76044179D01*
X24668151Y-76100913D01*
X24743549Y-76141214D01*
X24747021Y-76143070D01*
X24832600Y-76169030D01*
X24841021Y-76169859D01*
X24899305Y-76175600D01*
X24899312Y-76175600D01*
X24921600Y-76177795D01*
X24943888Y-76175600D01*
X30278970Y-76175600D01*
X30284732Y-76234103D01*
X30303430Y-76295743D01*
X30333794Y-76352550D01*
X30348114Y-76370000D01*
X30333794Y-76387450D01*
X30303430Y-76444257D01*
X30284732Y-76505897D01*
X30278418Y-76570000D01*
X30278418Y-76767600D01*
X24069653Y-76767600D01*
X23531767Y-76229715D01*
X23534694Y-76200000D01*
X23511969Y-75969268D01*
X23444667Y-75747403D01*
X23335374Y-75542930D01*
X23188291Y-75363709D01*
X23009070Y-75216626D01*
X22804597Y-75107333D01*
X22582732Y-75040031D01*
X22409812Y-75023000D01*
X22294188Y-75023000D01*
X22121268Y-75040031D01*
X21899403Y-75107333D01*
X21694930Y-75216626D01*
X21515709Y-75363709D01*
X21368626Y-75542930D01*
X21259333Y-75747403D01*
X21192031Y-75969268D01*
X21169306Y-76200000D01*
X21192031Y-76430732D01*
X21259333Y-76652597D01*
X21368626Y-76857070D01*
X21515709Y-77036291D01*
X21694930Y-77183374D01*
X21899403Y-77292667D01*
X22121268Y-77359969D01*
X22294188Y-77377000D01*
X22409812Y-77377000D01*
X22582732Y-77359969D01*
X22804597Y-77292667D01*
X23009070Y-77183374D01*
X23114663Y-77096716D01*
X23544810Y-77526863D01*
X23559021Y-77544179D01*
X23628151Y-77600913D01*
X23707021Y-77643070D01*
X23792601Y-77669030D01*
X23859305Y-77675600D01*
X23859312Y-77675600D01*
X23881600Y-77677795D01*
X23903888Y-77675600D01*
X30278970Y-77675600D01*
X30284732Y-77734103D01*
X30303430Y-77795743D01*
X30333794Y-77852550D01*
X30348114Y-77870000D01*
X30333794Y-77887450D01*
X30303430Y-77944257D01*
X30284732Y-78005897D01*
X30278418Y-78070000D01*
X30278418Y-78288000D01*
X23444848Y-78288000D01*
X23444667Y-78287403D01*
X23335374Y-78082930D01*
X23188291Y-77903709D01*
X23009070Y-77756626D01*
X22804597Y-77647333D01*
X22582732Y-77580031D01*
X22409812Y-77563000D01*
X22294188Y-77563000D01*
X22121268Y-77580031D01*
X21899403Y-77647333D01*
X21694930Y-77756626D01*
X21515709Y-77903709D01*
X21368626Y-78082930D01*
X21259333Y-78287403D01*
X21192031Y-78509268D01*
X21169306Y-78740000D01*
X21192031Y-78970732D01*
X21259333Y-79192597D01*
X21368626Y-79397070D01*
X21515709Y-79576291D01*
X21694930Y-79723374D01*
X21899403Y-79832667D01*
X22121268Y-79899969D01*
X22294188Y-79917000D01*
X22409812Y-79917000D01*
X22582732Y-79899969D01*
X22804597Y-79832667D01*
X23009070Y-79723374D01*
X23188291Y-79576291D01*
X23335374Y-79397070D01*
X23444667Y-79192597D01*
X23444848Y-79192000D01*
X30280585Y-79192000D01*
X30284732Y-79234103D01*
X30303430Y-79295743D01*
X30333794Y-79352550D01*
X30348114Y-79370000D01*
X30333794Y-79387450D01*
X30303430Y-79444257D01*
X30284732Y-79505897D01*
X30278418Y-79570000D01*
X30278418Y-79767600D01*
X23940688Y-79767600D01*
X23918400Y-79765405D01*
X23896112Y-79767600D01*
X23896105Y-79767600D01*
X23837821Y-79773341D01*
X23829400Y-79774170D01*
X23743821Y-79800130D01*
X23664951Y-79842287D01*
X23595821Y-79899021D01*
X23581610Y-79916337D01*
X23114663Y-80383284D01*
X23009070Y-80296626D01*
X22804597Y-80187333D01*
X22582732Y-80120031D01*
X22409812Y-80103000D01*
X22294188Y-80103000D01*
X22121268Y-80120031D01*
X21899403Y-80187333D01*
X21694930Y-80296626D01*
X21515709Y-80443709D01*
X21368626Y-80622930D01*
X21259333Y-80827403D01*
X21192031Y-81049268D01*
X21169306Y-81280000D01*
X21192031Y-81510732D01*
X21259333Y-81732597D01*
X21368626Y-81937070D01*
X21515709Y-82116291D01*
X21694930Y-82263374D01*
X21899403Y-82372667D01*
X22121268Y-82439969D01*
X22294188Y-82457000D01*
X22409812Y-82457000D01*
X22582732Y-82439969D01*
X22804597Y-82372667D01*
X23009070Y-82263374D01*
X23188291Y-82116291D01*
X23335374Y-81937070D01*
X23444667Y-81732597D01*
X23511969Y-81510732D01*
X23534694Y-81280000D01*
X23531767Y-81250285D01*
X24106453Y-80675600D01*
X30278970Y-80675600D01*
X30284732Y-80734103D01*
X30303430Y-80795743D01*
X30333794Y-80852550D01*
X30348114Y-80870000D01*
X30333794Y-80887450D01*
X30303430Y-80944257D01*
X30284732Y-81005897D01*
X30278418Y-81070000D01*
X30278418Y-81267600D01*
X24980688Y-81267600D01*
X24958400Y-81265405D01*
X24936112Y-81267600D01*
X24936105Y-81267600D01*
X24877821Y-81273341D01*
X24869400Y-81274170D01*
X24783821Y-81300130D01*
X24704951Y-81342287D01*
X24635821Y-81399021D01*
X24621610Y-81416337D01*
X23114663Y-82923284D01*
X23009070Y-82836626D01*
X22804597Y-82727333D01*
X22582732Y-82660031D01*
X22409812Y-82643000D01*
X22294188Y-82643000D01*
X22121268Y-82660031D01*
X21899403Y-82727333D01*
X21694930Y-82836626D01*
X21515709Y-82983709D01*
X21368626Y-83162930D01*
X21259333Y-83367403D01*
X21192031Y-83589268D01*
X21169306Y-83820000D01*
X21192031Y-84050732D01*
X21259333Y-84272597D01*
X21368626Y-84477070D01*
X21515709Y-84656291D01*
X21694930Y-84803374D01*
X21899403Y-84912667D01*
X22121268Y-84979969D01*
X22294188Y-84997000D01*
X22409812Y-84997000D01*
X22582732Y-84979969D01*
X22804597Y-84912667D01*
X23009070Y-84803374D01*
X23188291Y-84656291D01*
X23335374Y-84477070D01*
X23444667Y-84272597D01*
X23511969Y-84050732D01*
X23534694Y-83820000D01*
X23531767Y-83790285D01*
X25146453Y-82175600D01*
X30278970Y-82175600D01*
X30284732Y-82234103D01*
X30303430Y-82295743D01*
X30333794Y-82352550D01*
X30348114Y-82370000D01*
X30333794Y-82387450D01*
X30303430Y-82444257D01*
X30284732Y-82505897D01*
X30278418Y-82570000D01*
X30278418Y-82767600D01*
X26020688Y-82767600D01*
X25998400Y-82765405D01*
X25976112Y-82767600D01*
X25976105Y-82767600D01*
X25917821Y-82773341D01*
X25909400Y-82774170D01*
X25823821Y-82800130D01*
X25744951Y-82842287D01*
X25675821Y-82899021D01*
X25661610Y-82916337D01*
X23114663Y-85463284D01*
X23009070Y-85376626D01*
X22804597Y-85267333D01*
X22582732Y-85200031D01*
X22409812Y-85183000D01*
X22294188Y-85183000D01*
X22121268Y-85200031D01*
X21899403Y-85267333D01*
X21694930Y-85376626D01*
X21515709Y-85523709D01*
X21368626Y-85702930D01*
X21259333Y-85907403D01*
X21192031Y-86129268D01*
X21169306Y-86360000D01*
X21192031Y-86590732D01*
X21259333Y-86812597D01*
X21368626Y-87017070D01*
X21515709Y-87196291D01*
X21694930Y-87343374D01*
X21899403Y-87452667D01*
X22121268Y-87519969D01*
X22294188Y-87537000D01*
X22409812Y-87537000D01*
X22582732Y-87519969D01*
X22804597Y-87452667D01*
X23009070Y-87343374D01*
X23188291Y-87196291D01*
X23335374Y-87017070D01*
X23444667Y-86812597D01*
X23511969Y-86590732D01*
X23534694Y-86360000D01*
X23531767Y-86330285D01*
X26186453Y-83675600D01*
X30278970Y-83675600D01*
X30284732Y-83734103D01*
X30303430Y-83795743D01*
X30333794Y-83852550D01*
X30348114Y-83870000D01*
X30333794Y-83887450D01*
X30303430Y-83944257D01*
X30284732Y-84005897D01*
X30278418Y-84070000D01*
X30278418Y-84267600D01*
X27060688Y-84267600D01*
X27038400Y-84265405D01*
X27016112Y-84267600D01*
X27016105Y-84267600D01*
X26957821Y-84273341D01*
X26949400Y-84274170D01*
X26863821Y-84300130D01*
X26784951Y-84342287D01*
X26715821Y-84399021D01*
X26701610Y-84416337D01*
X23114663Y-88003284D01*
X23009070Y-87916626D01*
X22804597Y-87807333D01*
X22582732Y-87740031D01*
X22409812Y-87723000D01*
X22294188Y-87723000D01*
X22121268Y-87740031D01*
X21899403Y-87807333D01*
X21694930Y-87916626D01*
X21515709Y-88063709D01*
X21368626Y-88242930D01*
X21259333Y-88447403D01*
X21192031Y-88669268D01*
X21169306Y-88900000D01*
X21192031Y-89130732D01*
X21259333Y-89352597D01*
X21368626Y-89557070D01*
X21515709Y-89736291D01*
X21694930Y-89883374D01*
X21899403Y-89992667D01*
X22121268Y-90059969D01*
X22294188Y-90077000D01*
X22409812Y-90077000D01*
X22582732Y-90059969D01*
X22804597Y-89992667D01*
X23009070Y-89883374D01*
X23188291Y-89736291D01*
X23335374Y-89557070D01*
X23444667Y-89352597D01*
X23511969Y-89130732D01*
X23534694Y-88900000D01*
X23531767Y-88870285D01*
X27226453Y-85175600D01*
X30278970Y-85175600D01*
X30284732Y-85234103D01*
X30303430Y-85295743D01*
X30333794Y-85352550D01*
X30348114Y-85370000D01*
X30333794Y-85387450D01*
X30303430Y-85444257D01*
X30284732Y-85505897D01*
X30278418Y-85570000D01*
X30278418Y-85767600D01*
X28100687Y-85767600D01*
X28078399Y-85765405D01*
X28056111Y-85767600D01*
X28056105Y-85767600D01*
X27998701Y-85773254D01*
X27989400Y-85774170D01*
X27903821Y-85800130D01*
X27824951Y-85842287D01*
X27755821Y-85899021D01*
X27741610Y-85916337D01*
X23114663Y-90543284D01*
X23009070Y-90456626D01*
X22804597Y-90347333D01*
X22582732Y-90280031D01*
X22409812Y-90263000D01*
X22294188Y-90263000D01*
X22121268Y-90280031D01*
X21899403Y-90347333D01*
X21694930Y-90456626D01*
X21515709Y-90603709D01*
X21368626Y-90782930D01*
X21259333Y-90987403D01*
X21192031Y-91209268D01*
X21169306Y-91440000D01*
X21192031Y-91670732D01*
X21259333Y-91892597D01*
X21368626Y-92097070D01*
X21515709Y-92276291D01*
X21694930Y-92423374D01*
X21899403Y-92532667D01*
X22121268Y-92599969D01*
X22294188Y-92617000D01*
X22409812Y-92617000D01*
X22582732Y-92599969D01*
X22804597Y-92532667D01*
X23009070Y-92423374D01*
X23188291Y-92276291D01*
X23335374Y-92097070D01*
X23444667Y-91892597D01*
X23511969Y-91670732D01*
X23534694Y-91440000D01*
X23531767Y-91410285D01*
X28266453Y-86675600D01*
X30278970Y-86675600D01*
X30284732Y-86734103D01*
X30303430Y-86795743D01*
X30333794Y-86852550D01*
X30348114Y-86870000D01*
X30333794Y-86887450D01*
X30303430Y-86944257D01*
X30284732Y-87005897D01*
X30278418Y-87070000D01*
X30278418Y-87267600D01*
X29140687Y-87267600D01*
X29118399Y-87265405D01*
X29096111Y-87267600D01*
X29096105Y-87267600D01*
X29038701Y-87273254D01*
X29029400Y-87274170D01*
X28943821Y-87300130D01*
X28864951Y-87342287D01*
X28795821Y-87399021D01*
X28781610Y-87416337D01*
X23114663Y-93083284D01*
X23009070Y-92996626D01*
X22804597Y-92887333D01*
X22582732Y-92820031D01*
X22409812Y-92803000D01*
X22294188Y-92803000D01*
X22121268Y-92820031D01*
X21899403Y-92887333D01*
X21694930Y-92996626D01*
X21515709Y-93143709D01*
X21368626Y-93322930D01*
X21259333Y-93527403D01*
X21192031Y-93749268D01*
X21169306Y-93980000D01*
X21192031Y-94210732D01*
X21259333Y-94432597D01*
X21368626Y-94637070D01*
X21515709Y-94816291D01*
X21694930Y-94963374D01*
X21899403Y-95072667D01*
X22121268Y-95139969D01*
X22294188Y-95157000D01*
X22409812Y-95157000D01*
X22582732Y-95139969D01*
X22804597Y-95072667D01*
X23009070Y-94963374D01*
X23188291Y-94816291D01*
X23335374Y-94637070D01*
X23444667Y-94432597D01*
X23511969Y-94210732D01*
X23534694Y-93980000D01*
X23531767Y-93950285D01*
X29306453Y-88175600D01*
X30278970Y-88175600D01*
X30284732Y-88234103D01*
X30303430Y-88295743D01*
X30333794Y-88352550D01*
X30348114Y-88370000D01*
X30333794Y-88387450D01*
X30303430Y-88444257D01*
X30284732Y-88505897D01*
X30278418Y-88570000D01*
X30278418Y-88767600D01*
X30180687Y-88767600D01*
X30158399Y-88765405D01*
X30136111Y-88767600D01*
X30136105Y-88767600D01*
X30078701Y-88773254D01*
X30069400Y-88774170D01*
X29983821Y-88800130D01*
X29904951Y-88842287D01*
X29835821Y-88899021D01*
X29821610Y-88916337D01*
X23114663Y-95623284D01*
X23009070Y-95536626D01*
X22804597Y-95427333D01*
X22582732Y-95360031D01*
X22409812Y-95343000D01*
X22294188Y-95343000D01*
X22121268Y-95360031D01*
X21899403Y-95427333D01*
X21694930Y-95536626D01*
X21515709Y-95683709D01*
X21368626Y-95862930D01*
X21259333Y-96067403D01*
X21192031Y-96289268D01*
X21169306Y-96520000D01*
X21192031Y-96750732D01*
X21259333Y-96972597D01*
X21368626Y-97177070D01*
X21515709Y-97356291D01*
X21694930Y-97503374D01*
X21899403Y-97612667D01*
X22121268Y-97679969D01*
X22294188Y-97697000D01*
X22409812Y-97697000D01*
X22582732Y-97679969D01*
X22804597Y-97612667D01*
X23009070Y-97503374D01*
X23188291Y-97356291D01*
X23335374Y-97177070D01*
X23444667Y-96972597D01*
X23511969Y-96750732D01*
X23534694Y-96520000D01*
X23531767Y-96490285D01*
X30285481Y-89736572D01*
X30303430Y-89795743D01*
X30333794Y-89852550D01*
X30374657Y-89902343D01*
X30424450Y-89943206D01*
X30481257Y-89973570D01*
X30542897Y-89992268D01*
X30607000Y-89998582D01*
X32131000Y-89998582D01*
X32195103Y-89992268D01*
X32256743Y-89973570D01*
X32313550Y-89943206D01*
X32363343Y-89902343D01*
X32404206Y-89852550D01*
X32434570Y-89795743D01*
X32453268Y-89734103D01*
X32459582Y-89670000D01*
X32459582Y-88570000D01*
X32453268Y-88505897D01*
X32434570Y-88444257D01*
X32404206Y-88387450D01*
X32389886Y-88370000D01*
X32404206Y-88352550D01*
X32434570Y-88295743D01*
X32453268Y-88234103D01*
X32459582Y-88170000D01*
X32459582Y-87070000D01*
X32453268Y-87005897D01*
X32434570Y-86944257D01*
X32404206Y-86887450D01*
X32389886Y-86870000D01*
X32404206Y-86852550D01*
X32434570Y-86795743D01*
X32453268Y-86734103D01*
X32459582Y-86670000D01*
X32459582Y-85570000D01*
X32453268Y-85505897D01*
X32434570Y-85444257D01*
X32404206Y-85387450D01*
X32389886Y-85370000D01*
X32404206Y-85352550D01*
X32434570Y-85295743D01*
X32453268Y-85234103D01*
X32459582Y-85170000D01*
X32459582Y-84070000D01*
X32453268Y-84005897D01*
X32434570Y-83944257D01*
X32404206Y-83887450D01*
X32389886Y-83870000D01*
X32404206Y-83852550D01*
X32434570Y-83795743D01*
X32453268Y-83734103D01*
X32459582Y-83670000D01*
X32459582Y-82570000D01*
X32453268Y-82505897D01*
X32434570Y-82444257D01*
X32404206Y-82387450D01*
X32389886Y-82370000D01*
X32404206Y-82352550D01*
X32434570Y-82295743D01*
X32453268Y-82234103D01*
X32459582Y-82170000D01*
X32459582Y-81070000D01*
X32453268Y-81005897D01*
X32434570Y-80944257D01*
X32404206Y-80887450D01*
X32389886Y-80870000D01*
X32404206Y-80852550D01*
X32434570Y-80795743D01*
X32453268Y-80734103D01*
X32459582Y-80670000D01*
X32459582Y-79570000D01*
X32453268Y-79505897D01*
X32434570Y-79444257D01*
X32404206Y-79387450D01*
X32389886Y-79370000D01*
X32404206Y-79352550D01*
X32434570Y-79295743D01*
X32453268Y-79234103D01*
X32459582Y-79170000D01*
X32459582Y-78070000D01*
X32453268Y-78005897D01*
X32434570Y-77944257D01*
X32404206Y-77887450D01*
X32389886Y-77870000D01*
X32404206Y-77852550D01*
X32434570Y-77795743D01*
X32453268Y-77734103D01*
X32459582Y-77670000D01*
X32459582Y-76570000D01*
X32453268Y-76505897D01*
X32434570Y-76444257D01*
X32404206Y-76387450D01*
X32389886Y-76370000D01*
X32404206Y-76352550D01*
X32434570Y-76295743D01*
X32453268Y-76234103D01*
X32459582Y-76170000D01*
X32459582Y-75070000D01*
X32453268Y-75005897D01*
X32434570Y-74944257D01*
X32404206Y-74887450D01*
X32389886Y-74870000D01*
X32404206Y-74852550D01*
X32434570Y-74795743D01*
X32453268Y-74734103D01*
X32459582Y-74670000D01*
X32459582Y-73570000D01*
X32453268Y-73505897D01*
X32434570Y-73444257D01*
X32404206Y-73387450D01*
X32389886Y-73370000D01*
X32404206Y-73352550D01*
X32434570Y-73295743D01*
X32453268Y-73234103D01*
X32459582Y-73170000D01*
X32459582Y-72070000D01*
X32453268Y-72005897D01*
X32434570Y-71944257D01*
X32404206Y-71887450D01*
X32389886Y-71870000D01*
X32404206Y-71852550D01*
X32434570Y-71795743D01*
X32453268Y-71734103D01*
X32459582Y-71670000D01*
X32459582Y-70739000D01*
X43740418Y-70739000D01*
X43740418Y-71670000D01*
X43746732Y-71734103D01*
X43765430Y-71795743D01*
X43795794Y-71852550D01*
X43810114Y-71870000D01*
X43795794Y-71887450D01*
X43765430Y-71944257D01*
X43746732Y-72005897D01*
X43740418Y-72070000D01*
X43740418Y-73170000D01*
X43746732Y-73234103D01*
X43765430Y-73295743D01*
X43795794Y-73352550D01*
X43810114Y-73370000D01*
X43795794Y-73387450D01*
X43765430Y-73444257D01*
X43746732Y-73505897D01*
X43740418Y-73570000D01*
X43740418Y-74670000D01*
X43746732Y-74734103D01*
X43765430Y-74795743D01*
X43795794Y-74852550D01*
X43810114Y-74870000D01*
X43795794Y-74887450D01*
X43765430Y-74944257D01*
X43746732Y-75005897D01*
X43740418Y-75070000D01*
X43740418Y-76170000D01*
X43746732Y-76234103D01*
X43765430Y-76295743D01*
X43795794Y-76352550D01*
X43810114Y-76370000D01*
X43795794Y-76387450D01*
X43765430Y-76444257D01*
X43746732Y-76505897D01*
X43740418Y-76570000D01*
X43740418Y-77670000D01*
X43746732Y-77734103D01*
X43765430Y-77795743D01*
X43795794Y-77852550D01*
X43810114Y-77870000D01*
X43795794Y-77887450D01*
X43765430Y-77944257D01*
X43746732Y-78005897D01*
X43740418Y-78070000D01*
X43740418Y-79170000D01*
X43746732Y-79234103D01*
X43765430Y-79295743D01*
X43795794Y-79352550D01*
X43810114Y-79370000D01*
X43795794Y-79387450D01*
X43765430Y-79444257D01*
X43746732Y-79505897D01*
X43740418Y-79570000D01*
X43740418Y-80670000D01*
X43746732Y-80734103D01*
X43765430Y-80795743D01*
X43795794Y-80852550D01*
X43810114Y-80870000D01*
X43795794Y-80887450D01*
X43765430Y-80944257D01*
X43746732Y-81005897D01*
X43740418Y-81070000D01*
X43740418Y-82170000D01*
X43746732Y-82234103D01*
X43765430Y-82295743D01*
X43795794Y-82352550D01*
X43810114Y-82370000D01*
X43795794Y-82387450D01*
X43765430Y-82444257D01*
X43746732Y-82505897D01*
X43740418Y-82570000D01*
X43740418Y-83670000D01*
X43746732Y-83734103D01*
X43765430Y-83795743D01*
X43795794Y-83852550D01*
X43810114Y-83870000D01*
X43795794Y-83887450D01*
X43765430Y-83944257D01*
X43746732Y-84005897D01*
X43740418Y-84070000D01*
X43740418Y-85170000D01*
X43746732Y-85234103D01*
X43765430Y-85295743D01*
X43795794Y-85352550D01*
X43810114Y-85370000D01*
X43795794Y-85387450D01*
X43765430Y-85444257D01*
X43746732Y-85505897D01*
X43740418Y-85570000D01*
X43740418Y-86670000D01*
X43746732Y-86734103D01*
X43765430Y-86795743D01*
X43795794Y-86852550D01*
X43810114Y-86870000D01*
X43795794Y-86887450D01*
X43765430Y-86944257D01*
X43746732Y-87005897D01*
X43740418Y-87070000D01*
X43740418Y-88170000D01*
X43746732Y-88234103D01*
X43765430Y-88295743D01*
X43795794Y-88352550D01*
X43810114Y-88370000D01*
X43795794Y-88387450D01*
X43765430Y-88444257D01*
X43746732Y-88505897D01*
X43740418Y-88570000D01*
X43740418Y-89670000D01*
X43746732Y-89734103D01*
X43765430Y-89795743D01*
X43795794Y-89852550D01*
X43836657Y-89902343D01*
X43886450Y-89943206D01*
X43943257Y-89973570D01*
X44004897Y-89992268D01*
X44069000Y-89998582D01*
X45593000Y-89998582D01*
X45657103Y-89992268D01*
X45718743Y-89973570D01*
X45775550Y-89943206D01*
X45825343Y-89902343D01*
X45866206Y-89852550D01*
X45896570Y-89795743D01*
X45915178Y-89734401D01*
X52668486Y-96487711D01*
X52665306Y-96520000D01*
X52688031Y-96750732D01*
X52755333Y-96972597D01*
X52864626Y-97177070D01*
X53011709Y-97356291D01*
X53190930Y-97503374D01*
X53395403Y-97612667D01*
X53617268Y-97679969D01*
X53790188Y-97697000D01*
X53905812Y-97697000D01*
X54078732Y-97679969D01*
X54300597Y-97612667D01*
X54505070Y-97503374D01*
X54684291Y-97356291D01*
X54831374Y-97177070D01*
X54940667Y-96972597D01*
X55007969Y-96750732D01*
X55030694Y-96520000D01*
X55007969Y-96289268D01*
X54940667Y-96067403D01*
X54831374Y-95862930D01*
X54684291Y-95683709D01*
X54505070Y-95536626D01*
X54300597Y-95427333D01*
X54078732Y-95360031D01*
X53905812Y-95343000D01*
X53790188Y-95343000D01*
X53617268Y-95360031D01*
X53395403Y-95427333D01*
X53190930Y-95536626D01*
X53083784Y-95624559D01*
X46376923Y-88917700D01*
X46362759Y-88900441D01*
X46293933Y-88843957D01*
X46215410Y-88801986D01*
X46130207Y-88776140D01*
X46063805Y-88769600D01*
X46041600Y-88767413D01*
X46019395Y-88769600D01*
X45921582Y-88769600D01*
X45921582Y-88570000D01*
X45915268Y-88505897D01*
X45896570Y-88444257D01*
X45866206Y-88387450D01*
X45851886Y-88370000D01*
X45866206Y-88352550D01*
X45896570Y-88295743D01*
X45915268Y-88234103D01*
X45921227Y-88173600D01*
X46894377Y-88173600D01*
X52668486Y-93947711D01*
X52665306Y-93980000D01*
X52688031Y-94210732D01*
X52755333Y-94432597D01*
X52864626Y-94637070D01*
X53011709Y-94816291D01*
X53190930Y-94963374D01*
X53395403Y-95072667D01*
X53617268Y-95139969D01*
X53790188Y-95157000D01*
X53905812Y-95157000D01*
X54078732Y-95139969D01*
X54300597Y-95072667D01*
X54505070Y-94963374D01*
X54684291Y-94816291D01*
X54831374Y-94637070D01*
X54940667Y-94432597D01*
X55007969Y-94210732D01*
X55030694Y-93980000D01*
X55007969Y-93749268D01*
X54940667Y-93527403D01*
X54831374Y-93322930D01*
X54684291Y-93143709D01*
X54505070Y-92996626D01*
X54300597Y-92887333D01*
X54078732Y-92820031D01*
X53905812Y-92803000D01*
X53790188Y-92803000D01*
X53617268Y-92820031D01*
X53395403Y-92887333D01*
X53190930Y-92996626D01*
X53083784Y-93084559D01*
X47416923Y-87417700D01*
X47402759Y-87400441D01*
X47333933Y-87343957D01*
X47255410Y-87301986D01*
X47170207Y-87276140D01*
X47103805Y-87269600D01*
X47081600Y-87267413D01*
X47059395Y-87269600D01*
X45921582Y-87269600D01*
X45921582Y-87070000D01*
X45915268Y-87005897D01*
X45896570Y-86944257D01*
X45866206Y-86887450D01*
X45851886Y-86870000D01*
X45866206Y-86852550D01*
X45896570Y-86795743D01*
X45915268Y-86734103D01*
X45921227Y-86673600D01*
X47934377Y-86673600D01*
X52668486Y-91407710D01*
X52665306Y-91440000D01*
X52688031Y-91670732D01*
X52755333Y-91892597D01*
X52864626Y-92097070D01*
X53011709Y-92276291D01*
X53190930Y-92423374D01*
X53395403Y-92532667D01*
X53617268Y-92599969D01*
X53790188Y-92617000D01*
X53905812Y-92617000D01*
X54078732Y-92599969D01*
X54300597Y-92532667D01*
X54505070Y-92423374D01*
X54684291Y-92276291D01*
X54831374Y-92097070D01*
X54940667Y-91892597D01*
X55007969Y-91670732D01*
X55030694Y-91440000D01*
X55007969Y-91209268D01*
X54940667Y-90987403D01*
X54831374Y-90782930D01*
X54684291Y-90603709D01*
X54505070Y-90456626D01*
X54300597Y-90347333D01*
X54078732Y-90280031D01*
X53905812Y-90263000D01*
X53790188Y-90263000D01*
X53617268Y-90280031D01*
X53395403Y-90347333D01*
X53190930Y-90456626D01*
X53083783Y-90544559D01*
X48456923Y-85917700D01*
X48442759Y-85900441D01*
X48373933Y-85843957D01*
X48295410Y-85801986D01*
X48210207Y-85776140D01*
X48143805Y-85769600D01*
X48121600Y-85767413D01*
X48099395Y-85769600D01*
X45921582Y-85769600D01*
X45921582Y-85570000D01*
X45915268Y-85505897D01*
X45896570Y-85444257D01*
X45866206Y-85387450D01*
X45851886Y-85370000D01*
X45866206Y-85352550D01*
X45896570Y-85295743D01*
X45915268Y-85234103D01*
X45921227Y-85173600D01*
X48974377Y-85173600D01*
X52668486Y-88867710D01*
X52665306Y-88900000D01*
X52688031Y-89130732D01*
X52755333Y-89352597D01*
X52864626Y-89557070D01*
X53011709Y-89736291D01*
X53190930Y-89883374D01*
X53395403Y-89992667D01*
X53617268Y-90059969D01*
X53790188Y-90077000D01*
X53905812Y-90077000D01*
X54078732Y-90059969D01*
X54300597Y-89992667D01*
X54505070Y-89883374D01*
X54684291Y-89736291D01*
X54831374Y-89557070D01*
X54940667Y-89352597D01*
X55007969Y-89130732D01*
X55030694Y-88900000D01*
X55007969Y-88669268D01*
X54940667Y-88447403D01*
X54831374Y-88242930D01*
X54684291Y-88063709D01*
X54505070Y-87916626D01*
X54300597Y-87807333D01*
X54078732Y-87740031D01*
X53905812Y-87723000D01*
X53790188Y-87723000D01*
X53617268Y-87740031D01*
X53395403Y-87807333D01*
X53190930Y-87916626D01*
X53083783Y-88004559D01*
X49496923Y-84417700D01*
X49482759Y-84400441D01*
X49413933Y-84343957D01*
X49335410Y-84301986D01*
X49250207Y-84276140D01*
X49183805Y-84269600D01*
X49161600Y-84267413D01*
X49139395Y-84269600D01*
X45921582Y-84269600D01*
X45921582Y-84070000D01*
X45915268Y-84005897D01*
X45896570Y-83944257D01*
X45866206Y-83887450D01*
X45851886Y-83870000D01*
X45866206Y-83852550D01*
X45896570Y-83795743D01*
X45915268Y-83734103D01*
X45921227Y-83673600D01*
X50014377Y-83673600D01*
X52668486Y-86327710D01*
X52665306Y-86360000D01*
X52688031Y-86590732D01*
X52755333Y-86812597D01*
X52864626Y-87017070D01*
X53011709Y-87196291D01*
X53190930Y-87343374D01*
X53395403Y-87452667D01*
X53617268Y-87519969D01*
X53790188Y-87537000D01*
X53905812Y-87537000D01*
X54078732Y-87519969D01*
X54300597Y-87452667D01*
X54505070Y-87343374D01*
X54684291Y-87196291D01*
X54831374Y-87017070D01*
X54940667Y-86812597D01*
X55007969Y-86590732D01*
X55030694Y-86360000D01*
X55007969Y-86129268D01*
X54940667Y-85907403D01*
X54831374Y-85702930D01*
X54684291Y-85523709D01*
X54505070Y-85376626D01*
X54300597Y-85267333D01*
X54078732Y-85200031D01*
X53905812Y-85183000D01*
X53790188Y-85183000D01*
X53617268Y-85200031D01*
X53395403Y-85267333D01*
X53190930Y-85376626D01*
X53083783Y-85464559D01*
X50536923Y-82917700D01*
X50522759Y-82900441D01*
X50453933Y-82843957D01*
X50375410Y-82801986D01*
X50290207Y-82776140D01*
X50223805Y-82769600D01*
X50201600Y-82767413D01*
X50179395Y-82769600D01*
X45921582Y-82769600D01*
X45921582Y-82570000D01*
X45915268Y-82505897D01*
X45896570Y-82444257D01*
X45866206Y-82387450D01*
X45851886Y-82370000D01*
X45866206Y-82352550D01*
X45896570Y-82295743D01*
X45915268Y-82234103D01*
X45921227Y-82173600D01*
X51054377Y-82173600D01*
X52668486Y-83787710D01*
X52665306Y-83820000D01*
X52688031Y-84050732D01*
X52755333Y-84272597D01*
X52864626Y-84477070D01*
X53011709Y-84656291D01*
X53190930Y-84803374D01*
X53395403Y-84912667D01*
X53617268Y-84979969D01*
X53790188Y-84997000D01*
X53905812Y-84997000D01*
X54078732Y-84979969D01*
X54300597Y-84912667D01*
X54505070Y-84803374D01*
X54684291Y-84656291D01*
X54831374Y-84477070D01*
X54940667Y-84272597D01*
X55007969Y-84050732D01*
X55030694Y-83820000D01*
X55007969Y-83589268D01*
X54940667Y-83367403D01*
X54831374Y-83162930D01*
X54684291Y-82983709D01*
X54505070Y-82836626D01*
X54300597Y-82727333D01*
X54078732Y-82660031D01*
X53905812Y-82643000D01*
X53790188Y-82643000D01*
X53617268Y-82660031D01*
X53395403Y-82727333D01*
X53190930Y-82836626D01*
X53083783Y-82924559D01*
X51576923Y-81417700D01*
X51562759Y-81400441D01*
X51493933Y-81343957D01*
X51415410Y-81301986D01*
X51330207Y-81276140D01*
X51263805Y-81269600D01*
X51241600Y-81267413D01*
X51219395Y-81269600D01*
X45921582Y-81269600D01*
X45921582Y-81070000D01*
X45915268Y-81005897D01*
X45896570Y-80944257D01*
X45866206Y-80887450D01*
X45851886Y-80870000D01*
X45866206Y-80852550D01*
X45896570Y-80795743D01*
X45915268Y-80734103D01*
X45921227Y-80673600D01*
X52094377Y-80673600D01*
X52668486Y-81247710D01*
X52665306Y-81280000D01*
X52688031Y-81510732D01*
X52755333Y-81732597D01*
X52864626Y-81937070D01*
X53011709Y-82116291D01*
X53190930Y-82263374D01*
X53395403Y-82372667D01*
X53617268Y-82439969D01*
X53790188Y-82457000D01*
X53905812Y-82457000D01*
X54078732Y-82439969D01*
X54300597Y-82372667D01*
X54505070Y-82263374D01*
X54684291Y-82116291D01*
X54831374Y-81937070D01*
X54940667Y-81732597D01*
X55007969Y-81510732D01*
X55030694Y-81280000D01*
X55007969Y-81049268D01*
X54940667Y-80827403D01*
X54831374Y-80622930D01*
X54684291Y-80443709D01*
X54505070Y-80296626D01*
X54300597Y-80187333D01*
X54078732Y-80120031D01*
X53905812Y-80103000D01*
X53790188Y-80103000D01*
X53617268Y-80120031D01*
X53395403Y-80187333D01*
X53190930Y-80296626D01*
X53083783Y-80384559D01*
X52616923Y-79917700D01*
X52602759Y-79900441D01*
X52533933Y-79843957D01*
X52455410Y-79801986D01*
X52370207Y-79776140D01*
X52303805Y-79769600D01*
X52281600Y-79767413D01*
X52259395Y-79769600D01*
X45921582Y-79769600D01*
X45921582Y-79570000D01*
X45915268Y-79505897D01*
X45896570Y-79444257D01*
X45866206Y-79387450D01*
X45851886Y-79370000D01*
X45866206Y-79352550D01*
X45896570Y-79295743D01*
X45915268Y-79234103D01*
X45921227Y-79173600D01*
X52749570Y-79173600D01*
X52755333Y-79192597D01*
X52864626Y-79397070D01*
X53011709Y-79576291D01*
X53190930Y-79723374D01*
X53395403Y-79832667D01*
X53617268Y-79899969D01*
X53790188Y-79917000D01*
X53905812Y-79917000D01*
X54078732Y-79899969D01*
X54300597Y-79832667D01*
X54505070Y-79723374D01*
X54684291Y-79576291D01*
X54831374Y-79397070D01*
X54940667Y-79192597D01*
X55007969Y-78970732D01*
X55030694Y-78740000D01*
X55007969Y-78509268D01*
X54940667Y-78287403D01*
X54831374Y-78082930D01*
X54684291Y-77903709D01*
X54505070Y-77756626D01*
X54300597Y-77647333D01*
X54078732Y-77580031D01*
X53905812Y-77563000D01*
X53790188Y-77563000D01*
X53617268Y-77580031D01*
X53395403Y-77647333D01*
X53190930Y-77756626D01*
X53011709Y-77903709D01*
X52864626Y-78082930D01*
X52764849Y-78269600D01*
X45921582Y-78269600D01*
X45921582Y-78070000D01*
X45915268Y-78005897D01*
X45896570Y-77944257D01*
X45866206Y-77887450D01*
X45851886Y-77870000D01*
X45866206Y-77852550D01*
X45896570Y-77795743D01*
X45915268Y-77734103D01*
X45921227Y-77673600D01*
X52296195Y-77673600D01*
X52318400Y-77675787D01*
X52340605Y-77673600D01*
X52407007Y-77667060D01*
X52492210Y-77641214D01*
X52570733Y-77599243D01*
X52639559Y-77542759D01*
X52653723Y-77525500D01*
X53083783Y-77095441D01*
X53190930Y-77183374D01*
X53395403Y-77292667D01*
X53617268Y-77359969D01*
X53790188Y-77377000D01*
X53905812Y-77377000D01*
X54078732Y-77359969D01*
X54300597Y-77292667D01*
X54505070Y-77183374D01*
X54684291Y-77036291D01*
X54831374Y-76857070D01*
X54940667Y-76652597D01*
X55007969Y-76430732D01*
X55030694Y-76200000D01*
X55007969Y-75969268D01*
X54940667Y-75747403D01*
X54831374Y-75542930D01*
X54684291Y-75363709D01*
X54505070Y-75216626D01*
X54300597Y-75107333D01*
X54078732Y-75040031D01*
X53905812Y-75023000D01*
X53790188Y-75023000D01*
X53617268Y-75040031D01*
X53395403Y-75107333D01*
X53190930Y-75216626D01*
X53011709Y-75363709D01*
X52864626Y-75542930D01*
X52755333Y-75747403D01*
X52688031Y-75969268D01*
X52665306Y-76200000D01*
X52668486Y-76232290D01*
X52131177Y-76769600D01*
X45921582Y-76769600D01*
X45921582Y-76570000D01*
X45915268Y-76505897D01*
X45896570Y-76444257D01*
X45866206Y-76387450D01*
X45851886Y-76370000D01*
X45866206Y-76352550D01*
X45896570Y-76295743D01*
X45915268Y-76234103D01*
X45921227Y-76173600D01*
X51256195Y-76173600D01*
X51278400Y-76175787D01*
X51300605Y-76173600D01*
X51367007Y-76167060D01*
X51452210Y-76141214D01*
X51530733Y-76099243D01*
X51599559Y-76042759D01*
X51613723Y-76025500D01*
X53083783Y-74555441D01*
X53190930Y-74643374D01*
X53395403Y-74752667D01*
X53617268Y-74819969D01*
X53790188Y-74837000D01*
X53905812Y-74837000D01*
X54078732Y-74819969D01*
X54300597Y-74752667D01*
X54505070Y-74643374D01*
X54684291Y-74496291D01*
X54831374Y-74317070D01*
X54940667Y-74112597D01*
X55007969Y-73890732D01*
X55030694Y-73660000D01*
X55007969Y-73429268D01*
X54940667Y-73207403D01*
X54831374Y-73002930D01*
X54684291Y-72823709D01*
X54505070Y-72676626D01*
X54300597Y-72567333D01*
X54078732Y-72500031D01*
X53905812Y-72483000D01*
X53790188Y-72483000D01*
X53617268Y-72500031D01*
X53395403Y-72567333D01*
X53190930Y-72676626D01*
X53011709Y-72823709D01*
X52864626Y-73002930D01*
X52755333Y-73207403D01*
X52688031Y-73429268D01*
X52665306Y-73660000D01*
X52668486Y-73692290D01*
X51091177Y-75269600D01*
X45921582Y-75269600D01*
X45921582Y-75070000D01*
X45915268Y-75005897D01*
X45896570Y-74944257D01*
X45866206Y-74887450D01*
X45851886Y-74870000D01*
X45866206Y-74852550D01*
X45896570Y-74795743D01*
X45915268Y-74734103D01*
X45921227Y-74673600D01*
X50216195Y-74673600D01*
X50238400Y-74675787D01*
X50260605Y-74673600D01*
X50327007Y-74667060D01*
X50412210Y-74641214D01*
X50490733Y-74599243D01*
X50559559Y-74542759D01*
X50573723Y-74525500D01*
X53083783Y-72015441D01*
X53190930Y-72103374D01*
X53395403Y-72212667D01*
X53617268Y-72279969D01*
X53790188Y-72297000D01*
X53905812Y-72297000D01*
X54078732Y-72279969D01*
X54300597Y-72212667D01*
X54505070Y-72103374D01*
X54684291Y-71956291D01*
X54831374Y-71777070D01*
X54940667Y-71572597D01*
X55007969Y-71350732D01*
X55030694Y-71120000D01*
X55007969Y-70889268D01*
X54940667Y-70667403D01*
X54831374Y-70462930D01*
X54684291Y-70283709D01*
X54505070Y-70136626D01*
X54300597Y-70027333D01*
X54078732Y-69960031D01*
X53905812Y-69943000D01*
X53790188Y-69943000D01*
X53617268Y-69960031D01*
X53395403Y-70027333D01*
X53190930Y-70136626D01*
X53011709Y-70283709D01*
X52864626Y-70462930D01*
X52755333Y-70667403D01*
X52688031Y-70889268D01*
X52665306Y-71120000D01*
X52668486Y-71152290D01*
X50051177Y-73769600D01*
X45921582Y-73769600D01*
X45921582Y-73570000D01*
X45915268Y-73505897D01*
X45896570Y-73444257D01*
X45866206Y-73387450D01*
X45851886Y-73370000D01*
X45866206Y-73352550D01*
X45896570Y-73295743D01*
X45915268Y-73234103D01*
X45921227Y-73173600D01*
X49176195Y-73173600D01*
X49198400Y-73175787D01*
X49220605Y-73173600D01*
X49287007Y-73167060D01*
X49372210Y-73141214D01*
X49450733Y-73099243D01*
X49519559Y-73042759D01*
X49533723Y-73025500D01*
X53083783Y-69475441D01*
X53190930Y-69563374D01*
X53395403Y-69672667D01*
X53617268Y-69739969D01*
X53790188Y-69757000D01*
X53905812Y-69757000D01*
X54078732Y-69739969D01*
X54300597Y-69672667D01*
X54505070Y-69563374D01*
X54684291Y-69416291D01*
X54831374Y-69237070D01*
X54940667Y-69032597D01*
X55007969Y-68810732D01*
X55030694Y-68580000D01*
X55007969Y-68349268D01*
X54940667Y-68127403D01*
X54831374Y-67922930D01*
X54684291Y-67743709D01*
X54505070Y-67596626D01*
X54300597Y-67487333D01*
X54078732Y-67420031D01*
X53905812Y-67403000D01*
X53790188Y-67403000D01*
X53617268Y-67420031D01*
X53395403Y-67487333D01*
X53190930Y-67596626D01*
X53011709Y-67743709D01*
X52864626Y-67922930D01*
X52755333Y-68127403D01*
X52688031Y-68349268D01*
X52665306Y-68580000D01*
X52668486Y-68612290D01*
X49011177Y-72269600D01*
X45921582Y-72269600D01*
X45921582Y-72070000D01*
X45915268Y-72005897D01*
X45896570Y-71944257D01*
X45866206Y-71887450D01*
X45851886Y-71870000D01*
X45866206Y-71852550D01*
X45896570Y-71795743D01*
X45915268Y-71734103D01*
X45921227Y-71673600D01*
X48136195Y-71673600D01*
X48158400Y-71675787D01*
X48180605Y-71673600D01*
X48247007Y-71667060D01*
X48332210Y-71641214D01*
X48410733Y-71599243D01*
X48479559Y-71542759D01*
X48493723Y-71525500D01*
X52841887Y-67177337D01*
X52872257Y-67193570D01*
X52933897Y-67212268D01*
X52998000Y-67218582D01*
X54698000Y-67218582D01*
X54762103Y-67212268D01*
X54823743Y-67193570D01*
X54880550Y-67163206D01*
X54930343Y-67122343D01*
X54971206Y-67072550D01*
X55001570Y-67015743D01*
X55020268Y-66954103D01*
X55026582Y-66890000D01*
X55026582Y-65190000D01*
X55020268Y-65125897D01*
X55001570Y-65064257D01*
X54971206Y-65007450D01*
X54930343Y-64957657D01*
X54880550Y-64916794D01*
X54823743Y-64886430D01*
X54762103Y-64867732D01*
X54698000Y-64861418D01*
X52998000Y-64861418D01*
X52933897Y-64867732D01*
X52872257Y-64886430D01*
X52815450Y-64916794D01*
X52765657Y-64957657D01*
X52724794Y-65007450D01*
X52694430Y-65064257D01*
X52675732Y-65125897D01*
X52669418Y-65190000D01*
X52669418Y-66071358D01*
X47971177Y-70769600D01*
X45921582Y-70769600D01*
X45921582Y-70570000D01*
X45915268Y-70505897D01*
X45896570Y-70444257D01*
X45866206Y-70387450D01*
X45847000Y-70364047D01*
X45847000Y-64395000D01*
X55493001Y-64395000D01*
X55493000Y-108833000D01*
X20707000Y-108833000D01*
X20707000Y-99060000D01*
X21169306Y-99060000D01*
X21192031Y-99290732D01*
X21259333Y-99512597D01*
X21368626Y-99717070D01*
X21515709Y-99896291D01*
X21694930Y-100043374D01*
X21899403Y-100152667D01*
X22121268Y-100219969D01*
X22294188Y-100237000D01*
X22409812Y-100237000D01*
X22582732Y-100219969D01*
X22804597Y-100152667D01*
X23009070Y-100043374D01*
X23188291Y-99896291D01*
X23335374Y-99717070D01*
X23444667Y-99512597D01*
X23511969Y-99290732D01*
X23534694Y-99060000D01*
X23531767Y-99030285D01*
X30820453Y-91741600D01*
X31971418Y-91741600D01*
X31971418Y-91948000D01*
X31977732Y-92012103D01*
X31996430Y-92073743D01*
X32026794Y-92130550D01*
X32067657Y-92180343D01*
X32117450Y-92221206D01*
X32174257Y-92251570D01*
X32235897Y-92270268D01*
X32300000Y-92276582D01*
X33400000Y-92276582D01*
X33464103Y-92270268D01*
X33525743Y-92251570D01*
X33582550Y-92221206D01*
X33600000Y-92206886D01*
X33617450Y-92221206D01*
X33626652Y-92226124D01*
X25542519Y-100310258D01*
X25526737Y-100323210D01*
X24703948Y-101146000D01*
X23443917Y-101146000D01*
X23335374Y-100942930D01*
X23188291Y-100763709D01*
X23009070Y-100616626D01*
X22804597Y-100507333D01*
X22582732Y-100440031D01*
X22409812Y-100423000D01*
X22294188Y-100423000D01*
X22121268Y-100440031D01*
X21899403Y-100507333D01*
X21694930Y-100616626D01*
X21515709Y-100763709D01*
X21368626Y-100942930D01*
X21259333Y-101147403D01*
X21192031Y-101369268D01*
X21169306Y-101600000D01*
X21192031Y-101830732D01*
X21259333Y-102052597D01*
X21368626Y-102257070D01*
X21515709Y-102436291D01*
X21694930Y-102583374D01*
X21899403Y-102692667D01*
X22121268Y-102759969D01*
X22294188Y-102777000D01*
X22409812Y-102777000D01*
X22582732Y-102759969D01*
X22804597Y-102692667D01*
X23009070Y-102583374D01*
X23188291Y-102436291D01*
X23335374Y-102257070D01*
X23443917Y-102054000D01*
X24869712Y-102054000D01*
X24892000Y-102056195D01*
X24914288Y-102054000D01*
X24914295Y-102054000D01*
X24980999Y-102047430D01*
X25066579Y-102021470D01*
X25145449Y-101979313D01*
X25214579Y-101922579D01*
X25228794Y-101905258D01*
X26168790Y-100965263D01*
X26181742Y-100949481D01*
X34854642Y-92276582D01*
X34900000Y-92276582D01*
X34964103Y-92270268D01*
X35025743Y-92251570D01*
X35082550Y-92221206D01*
X35100000Y-92206886D01*
X35117450Y-92221206D01*
X35174257Y-92251570D01*
X35235897Y-92270268D01*
X35300000Y-92276582D01*
X35608193Y-92276582D01*
X24196777Y-103688000D01*
X23444848Y-103688000D01*
X23444667Y-103687403D01*
X23335374Y-103482930D01*
X23188291Y-103303709D01*
X23009070Y-103156626D01*
X22804597Y-103047333D01*
X22582732Y-102980031D01*
X22409812Y-102963000D01*
X22294188Y-102963000D01*
X22121268Y-102980031D01*
X21899403Y-103047333D01*
X21694930Y-103156626D01*
X21515709Y-103303709D01*
X21368626Y-103482930D01*
X21259333Y-103687403D01*
X21192031Y-103909268D01*
X21169306Y-104140000D01*
X21192031Y-104370732D01*
X21259333Y-104592597D01*
X21368626Y-104797070D01*
X21515709Y-104976291D01*
X21694930Y-105123374D01*
X21899403Y-105232667D01*
X22121268Y-105299969D01*
X22294188Y-105317000D01*
X22409812Y-105317000D01*
X22582732Y-105299969D01*
X22804597Y-105232667D01*
X23009070Y-105123374D01*
X23188291Y-104976291D01*
X23335374Y-104797070D01*
X23444667Y-104592597D01*
X23444848Y-104592000D01*
X24361795Y-104592000D01*
X24384000Y-104594187D01*
X24406205Y-104592000D01*
X24472607Y-104585460D01*
X24557810Y-104559614D01*
X24636333Y-104517643D01*
X24705159Y-104461159D01*
X24719323Y-104443900D01*
X36371912Y-92791313D01*
X36389159Y-92777159D01*
X36445643Y-92708333D01*
X36487614Y-92629810D01*
X36513460Y-92544607D01*
X36514636Y-92532667D01*
X36522187Y-92456001D01*
X36520000Y-92433795D01*
X36520000Y-92253312D01*
X36525743Y-92251570D01*
X36582550Y-92221206D01*
X36600000Y-92206886D01*
X36617450Y-92221206D01*
X36674257Y-92251570D01*
X36735897Y-92270268D01*
X36800000Y-92276582D01*
X37140000Y-92276582D01*
X37140000Y-92776776D01*
X24526519Y-105390258D01*
X24510737Y-105403210D01*
X23687948Y-106226000D01*
X23443917Y-106226000D01*
X23335374Y-106022930D01*
X23188291Y-105843709D01*
X23009070Y-105696626D01*
X22804597Y-105587333D01*
X22582732Y-105520031D01*
X22409812Y-105503000D01*
X22294188Y-105503000D01*
X22121268Y-105520031D01*
X21899403Y-105587333D01*
X21694930Y-105696626D01*
X21515709Y-105843709D01*
X21368626Y-106022930D01*
X21259333Y-106227403D01*
X21192031Y-106449268D01*
X21169306Y-106680000D01*
X21192031Y-106910732D01*
X21259333Y-107132597D01*
X21368626Y-107337070D01*
X21515709Y-107516291D01*
X21694930Y-107663374D01*
X21899403Y-107772667D01*
X22121268Y-107839969D01*
X22294188Y-107857000D01*
X22409812Y-107857000D01*
X22582732Y-107839969D01*
X22804597Y-107772667D01*
X23009070Y-107663374D01*
X23188291Y-107516291D01*
X23335374Y-107337070D01*
X23443917Y-107134000D01*
X23853712Y-107134000D01*
X23876000Y-107136195D01*
X23898288Y-107134000D01*
X23898295Y-107134000D01*
X23964999Y-107127430D01*
X24050579Y-107101470D01*
X24129449Y-107059313D01*
X24198579Y-107002579D01*
X24212794Y-106985258D01*
X25152790Y-106045263D01*
X25165742Y-106029481D01*
X37895906Y-93299318D01*
X37913159Y-93285159D01*
X37969643Y-93216333D01*
X38011614Y-93137810D01*
X38015021Y-93126578D01*
X38037460Y-93052608D01*
X38046187Y-92964000D01*
X38044000Y-92941795D01*
X38044000Y-92241811D01*
X38082550Y-92221206D01*
X38100000Y-92206886D01*
X38117450Y-92221206D01*
X38174257Y-92251570D01*
X38235897Y-92270268D01*
X38300000Y-92276582D01*
X38396001Y-92276582D01*
X38396001Y-92929702D01*
X38393805Y-92952000D01*
X38402570Y-93040999D01*
X38428530Y-93126578D01*
X38434534Y-93137810D01*
X38470688Y-93205449D01*
X38527422Y-93274579D01*
X38544738Y-93288790D01*
X52241210Y-106985263D01*
X52255421Y-107002579D01*
X52324551Y-107059313D01*
X52399949Y-107099614D01*
X52403421Y-107101470D01*
X52489000Y-107127430D01*
X52497421Y-107128259D01*
X52555705Y-107134000D01*
X52555712Y-107134000D01*
X52578000Y-107136195D01*
X52600288Y-107134000D01*
X52756083Y-107134000D01*
X52864626Y-107337070D01*
X53011709Y-107516291D01*
X53190930Y-107663374D01*
X53395403Y-107772667D01*
X53617268Y-107839969D01*
X53790188Y-107857000D01*
X53905812Y-107857000D01*
X54078732Y-107839969D01*
X54300597Y-107772667D01*
X54505070Y-107663374D01*
X54684291Y-107516291D01*
X54831374Y-107337070D01*
X54940667Y-107132597D01*
X55007969Y-106910732D01*
X55030694Y-106680000D01*
X55007969Y-106449268D01*
X54940667Y-106227403D01*
X54831374Y-106022930D01*
X54684291Y-105843709D01*
X54505070Y-105696626D01*
X54300597Y-105587333D01*
X54078732Y-105520031D01*
X53905812Y-105503000D01*
X53790188Y-105503000D01*
X53617268Y-105520031D01*
X53483199Y-105560700D01*
X53428606Y-105544140D01*
X53340000Y-105535413D01*
X53251393Y-105544140D01*
X53166190Y-105569986D01*
X53087667Y-105611957D01*
X53018841Y-105668441D01*
X52962357Y-105737268D01*
X52920386Y-105815791D01*
X52894540Y-105900994D01*
X52888000Y-105967396D01*
X52888000Y-105994449D01*
X52864626Y-106022930D01*
X52759556Y-106219503D01*
X39304000Y-92763948D01*
X39304000Y-92276582D01*
X39400000Y-92276582D01*
X39464103Y-92270268D01*
X39525743Y-92251570D01*
X39582550Y-92221206D01*
X39600000Y-92206886D01*
X39617450Y-92221206D01*
X39674257Y-92251570D01*
X39735897Y-92270268D01*
X39800000Y-92276582D01*
X40054400Y-92276582D01*
X40054400Y-92808195D01*
X40052213Y-92830400D01*
X40060940Y-92919007D01*
X40086786Y-93004209D01*
X40086787Y-93004210D01*
X40128758Y-93082733D01*
X40185242Y-93151559D01*
X40202496Y-93165719D01*
X51480681Y-104443905D01*
X51494841Y-104461159D01*
X51563667Y-104517643D01*
X51642190Y-104559614D01*
X51727392Y-104585460D01*
X51816000Y-104594187D01*
X51838205Y-104592000D01*
X52755152Y-104592000D01*
X52755333Y-104592597D01*
X52864626Y-104797070D01*
X53011709Y-104976291D01*
X53190930Y-105123374D01*
X53395403Y-105232667D01*
X53617268Y-105299969D01*
X53790188Y-105317000D01*
X53905812Y-105317000D01*
X54078732Y-105299969D01*
X54300597Y-105232667D01*
X54505070Y-105123374D01*
X54684291Y-104976291D01*
X54831374Y-104797070D01*
X54940667Y-104592597D01*
X55007969Y-104370732D01*
X55030694Y-104140000D01*
X55007969Y-103909268D01*
X54940667Y-103687403D01*
X54831374Y-103482930D01*
X54684291Y-103303709D01*
X54505070Y-103156626D01*
X54300597Y-103047333D01*
X54078732Y-102980031D01*
X53905812Y-102963000D01*
X53790188Y-102963000D01*
X53617268Y-102980031D01*
X53395403Y-103047333D01*
X53190930Y-103156626D01*
X53011709Y-103303709D01*
X52864626Y-103482930D01*
X52755333Y-103687403D01*
X52755152Y-103688000D01*
X52003224Y-103688000D01*
X40958400Y-92643177D01*
X40958400Y-92270830D01*
X40964103Y-92270268D01*
X41025743Y-92251570D01*
X41082550Y-92221206D01*
X41100000Y-92206886D01*
X41117450Y-92221206D01*
X41174257Y-92251570D01*
X41235897Y-92270268D01*
X41300000Y-92276582D01*
X41398001Y-92276582D01*
X41398001Y-92277385D01*
X41395813Y-92299600D01*
X41404540Y-92388207D01*
X41430386Y-92473409D01*
X41454509Y-92518540D01*
X41472358Y-92551933D01*
X41528842Y-92620759D01*
X41546096Y-92634919D01*
X50815081Y-101903905D01*
X50829241Y-101921159D01*
X50898067Y-101977643D01*
X50976590Y-102019614D01*
X51061792Y-102045460D01*
X51150400Y-102054187D01*
X51172605Y-102052000D01*
X52755152Y-102052000D01*
X52755333Y-102052597D01*
X52864626Y-102257070D01*
X53011709Y-102436291D01*
X53190930Y-102583374D01*
X53395403Y-102692667D01*
X53617268Y-102759969D01*
X53790188Y-102777000D01*
X53905812Y-102777000D01*
X54078732Y-102759969D01*
X54300597Y-102692667D01*
X54505070Y-102583374D01*
X54684291Y-102436291D01*
X54831374Y-102257070D01*
X54940667Y-102052597D01*
X55007969Y-101830732D01*
X55030694Y-101600000D01*
X55007969Y-101369268D01*
X54940667Y-101147403D01*
X54831374Y-100942930D01*
X54684291Y-100763709D01*
X54505070Y-100616626D01*
X54300597Y-100507333D01*
X54078732Y-100440031D01*
X53905812Y-100423000D01*
X53790188Y-100423000D01*
X53617268Y-100440031D01*
X53395403Y-100507333D01*
X53190930Y-100616626D01*
X53011709Y-100763709D01*
X52864626Y-100942930D01*
X52755333Y-101147403D01*
X52755152Y-101148000D01*
X51337624Y-101148000D01*
X42460269Y-92270646D01*
X42464103Y-92270268D01*
X42525743Y-92251570D01*
X42582550Y-92221206D01*
X42600000Y-92206886D01*
X42617450Y-92221206D01*
X42674257Y-92251570D01*
X42735897Y-92270268D01*
X42800000Y-92276582D01*
X43900000Y-92276582D01*
X43964103Y-92270268D01*
X44025743Y-92251570D01*
X44082550Y-92221206D01*
X44132343Y-92180343D01*
X44173206Y-92130550D01*
X44203570Y-92073743D01*
X44222268Y-92012103D01*
X44228582Y-91948000D01*
X44228582Y-91741600D01*
X45379548Y-91741600D01*
X52668233Y-99030286D01*
X52665306Y-99060000D01*
X52688031Y-99290732D01*
X52755333Y-99512597D01*
X52864626Y-99717070D01*
X53011709Y-99896291D01*
X53190930Y-100043374D01*
X53395403Y-100152667D01*
X53617268Y-100219969D01*
X53790188Y-100237000D01*
X53905812Y-100237000D01*
X54078732Y-100219969D01*
X54300597Y-100152667D01*
X54505070Y-100043374D01*
X54684291Y-99896291D01*
X54831374Y-99717070D01*
X54940667Y-99512597D01*
X55007969Y-99290732D01*
X55030694Y-99060000D01*
X55007969Y-98829268D01*
X54940667Y-98607403D01*
X54831374Y-98402930D01*
X54684291Y-98223709D01*
X54505070Y-98076626D01*
X54300597Y-97967333D01*
X54078732Y-97900031D01*
X53905812Y-97883000D01*
X53790188Y-97883000D01*
X53617268Y-97900031D01*
X53395403Y-97967333D01*
X53190930Y-98076626D01*
X53085337Y-98163284D01*
X45904395Y-90982343D01*
X45890179Y-90965021D01*
X45821049Y-90908287D01*
X45742179Y-90866130D01*
X45656599Y-90840170D01*
X45589895Y-90833600D01*
X45589888Y-90833600D01*
X45567600Y-90831405D01*
X45545312Y-90833600D01*
X44228582Y-90833600D01*
X44228582Y-90424000D01*
X44222268Y-90359897D01*
X44203570Y-90298257D01*
X44173206Y-90241450D01*
X44132343Y-90191657D01*
X44082550Y-90150794D01*
X44025743Y-90120430D01*
X43964103Y-90101732D01*
X43900000Y-90095418D01*
X42800000Y-90095418D01*
X42735897Y-90101732D01*
X42674257Y-90120430D01*
X42617450Y-90150794D01*
X42600000Y-90165114D01*
X42582550Y-90150794D01*
X42525743Y-90120430D01*
X42464103Y-90101732D01*
X42400000Y-90095418D01*
X41300000Y-90095418D01*
X41235897Y-90101732D01*
X41174257Y-90120430D01*
X41117450Y-90150794D01*
X41100000Y-90165114D01*
X41082550Y-90150794D01*
X41025743Y-90120430D01*
X40964103Y-90101732D01*
X40900000Y-90095418D01*
X39800000Y-90095418D01*
X39735897Y-90101732D01*
X39674257Y-90120430D01*
X39617450Y-90150794D01*
X39600000Y-90165114D01*
X39582550Y-90150794D01*
X39525743Y-90120430D01*
X39464103Y-90101732D01*
X39400000Y-90095418D01*
X38300000Y-90095418D01*
X38235897Y-90101732D01*
X38174257Y-90120430D01*
X38117450Y-90150794D01*
X38100000Y-90165114D01*
X38082550Y-90150794D01*
X38025743Y-90120430D01*
X37964103Y-90101732D01*
X37900000Y-90095418D01*
X36800000Y-90095418D01*
X36735897Y-90101732D01*
X36674257Y-90120430D01*
X36617450Y-90150794D01*
X36600000Y-90165114D01*
X36582550Y-90150794D01*
X36525743Y-90120430D01*
X36464103Y-90101732D01*
X36400000Y-90095418D01*
X35300000Y-90095418D01*
X35235897Y-90101732D01*
X35174257Y-90120430D01*
X35117450Y-90150794D01*
X35100000Y-90165114D01*
X35082550Y-90150794D01*
X35025743Y-90120430D01*
X34964103Y-90101732D01*
X34900000Y-90095418D01*
X33800000Y-90095418D01*
X33735897Y-90101732D01*
X33674257Y-90120430D01*
X33617450Y-90150794D01*
X33600000Y-90165114D01*
X33582550Y-90150794D01*
X33525743Y-90120430D01*
X33464103Y-90101732D01*
X33400000Y-90095418D01*
X32300000Y-90095418D01*
X32235897Y-90101732D01*
X32174257Y-90120430D01*
X32117450Y-90150794D01*
X32067657Y-90191657D01*
X32026794Y-90241450D01*
X31996430Y-90298257D01*
X31977732Y-90359897D01*
X31971418Y-90424000D01*
X31971418Y-90833600D01*
X30654684Y-90833600D01*
X30632399Y-90831405D01*
X30610114Y-90833600D01*
X30610105Y-90833600D01*
X30543401Y-90840170D01*
X30457821Y-90866130D01*
X30378951Y-90908287D01*
X30309821Y-90965021D01*
X30295610Y-90982337D01*
X23114664Y-98163284D01*
X23009070Y-98076626D01*
X22804597Y-97967333D01*
X22582732Y-97900031D01*
X22409812Y-97883000D01*
X22294188Y-97883000D01*
X22121268Y-97900031D01*
X21899403Y-97967333D01*
X21694930Y-98076626D01*
X21515709Y-98223709D01*
X21368626Y-98402930D01*
X21259333Y-98607403D01*
X21192031Y-98829268D01*
X21169306Y-99060000D01*
X20707000Y-99060000D01*
X20707000Y-64395000D01*
X30353000Y-64395000D01*
X30353000Y-70364047D01*
M02*
