M48
; DRILL file {KiCad 5.1.0} date Thu 28 Mar 2019 07:41:02 PM CET
; FORMAT={-:-/ absolute / inch / decimal}
; #@! TF.CreationDate,2019-03-28T19:41:02+01:00
; #@! TF.GenerationSoftware,Kicad,Pcbnew,5.1.0
; #@! TF.FileFunction,Plated,1,2,PTH
FMAT,2
INCH
T1C0.0394
%
G90
G05
T1
X0.88Y-2.6
X0.88Y-2.7
X0.88Y-2.8
X0.88Y-2.9
X0.88Y-3.0
X0.88Y-3.1
X0.88Y-3.2
X0.88Y-3.3
X0.88Y-3.4
X0.88Y-3.5
X0.88Y-3.6
X0.88Y-3.7
X0.88Y-3.8
X0.88Y-3.9
X0.88Y-4.0
X0.88Y-4.1
X0.88Y-4.2
X2.12Y-2.6
X2.12Y-2.7
X2.12Y-2.8
X2.12Y-2.9
X2.12Y-3.0
X2.12Y-3.1
X2.12Y-3.2
X2.12Y-3.3
X2.12Y-3.4
X2.12Y-3.5
X2.12Y-3.6
X2.12Y-3.7
X2.12Y-3.8
X2.12Y-3.9
X2.12Y-4.0
X2.12Y-4.1
X2.12Y-4.2
T0
M30
